G04 #@! TF.GenerationSoftware,KiCad,Pcbnew,5.1.10*
G04 #@! TF.CreationDate,2021-08-30T11:46:02-07:00*
G04 #@! TF.ProjectId,M68K-BREAKOUT,4d36384b-2d42-4524-9541-4b4f55542e6b,rev?*
G04 #@! TF.SameCoordinates,Original*
G04 #@! TF.FileFunction,Paste,Top*
G04 #@! TF.FilePolarity,Positive*
%FSLAX46Y46*%
G04 Gerber Fmt 4.6, Leading zero omitted, Abs format (unit mm)*
G04 Created by KiCad (PCBNEW 5.1.10) date 2021-08-30 11:46:02*
%MOMM*%
%LPD*%
G01*
G04 APERTURE LIST*
G04 APERTURE END LIST*
G36*
G01*
X161663500Y-83455500D02*
X161663500Y-83930500D01*
G75*
G02*
X161426000Y-84168000I-237500J0D01*
G01*
X160826000Y-84168000D01*
G75*
G02*
X160588500Y-83930500I0J237500D01*
G01*
X160588500Y-83455500D01*
G75*
G02*
X160826000Y-83218000I237500J0D01*
G01*
X161426000Y-83218000D01*
G75*
G02*
X161663500Y-83455500I0J-237500D01*
G01*
G37*
G36*
G01*
X163388500Y-83455500D02*
X163388500Y-83930500D01*
G75*
G02*
X163151000Y-84168000I-237500J0D01*
G01*
X162551000Y-84168000D01*
G75*
G02*
X162313500Y-83930500I0J237500D01*
G01*
X162313500Y-83455500D01*
G75*
G02*
X162551000Y-83218000I237500J0D01*
G01*
X163151000Y-83218000D01*
G75*
G02*
X163388500Y-83455500I0J-237500D01*
G01*
G37*
G36*
G01*
X164685000Y-121428500D02*
X164685000Y-121903500D01*
G75*
G02*
X164447500Y-122141000I-237500J0D01*
G01*
X163847500Y-122141000D01*
G75*
G02*
X163610000Y-121903500I0J237500D01*
G01*
X163610000Y-121428500D01*
G75*
G02*
X163847500Y-121191000I237500J0D01*
G01*
X164447500Y-121191000D01*
G75*
G02*
X164685000Y-121428500I0J-237500D01*
G01*
G37*
G36*
G01*
X166410000Y-121428500D02*
X166410000Y-121903500D01*
G75*
G02*
X166172500Y-122141000I-237500J0D01*
G01*
X165572500Y-122141000D01*
G75*
G02*
X165335000Y-121903500I0J237500D01*
G01*
X165335000Y-121428500D01*
G75*
G02*
X165572500Y-121191000I237500J0D01*
G01*
X166172500Y-121191000D01*
G75*
G02*
X166410000Y-121428500I0J-237500D01*
G01*
G37*
G36*
G01*
X164685000Y-101426000D02*
X164685000Y-101901000D01*
G75*
G02*
X164447500Y-102138500I-237500J0D01*
G01*
X163847500Y-102138500D01*
G75*
G02*
X163610000Y-101901000I0J237500D01*
G01*
X163610000Y-101426000D01*
G75*
G02*
X163847500Y-101188500I237500J0D01*
G01*
X164447500Y-101188500D01*
G75*
G02*
X164685000Y-101426000I0J-237500D01*
G01*
G37*
G36*
G01*
X166410000Y-101426000D02*
X166410000Y-101901000D01*
G75*
G02*
X166172500Y-102138500I-237500J0D01*
G01*
X165572500Y-102138500D01*
G75*
G02*
X165335000Y-101901000I0J237500D01*
G01*
X165335000Y-101426000D01*
G75*
G02*
X165572500Y-101188500I237500J0D01*
G01*
X166172500Y-101188500D01*
G75*
G02*
X166410000Y-101426000I0J-237500D01*
G01*
G37*
G36*
G01*
X164674500Y-61421000D02*
X164674500Y-61896000D01*
G75*
G02*
X164437000Y-62133500I-237500J0D01*
G01*
X163837000Y-62133500D01*
G75*
G02*
X163599500Y-61896000I0J237500D01*
G01*
X163599500Y-61421000D01*
G75*
G02*
X163837000Y-61183500I237500J0D01*
G01*
X164437000Y-61183500D01*
G75*
G02*
X164674500Y-61421000I0J-237500D01*
G01*
G37*
G36*
G01*
X166399500Y-61421000D02*
X166399500Y-61896000D01*
G75*
G02*
X166162000Y-62133500I-237500J0D01*
G01*
X165562000Y-62133500D01*
G75*
G02*
X165324500Y-61896000I0J237500D01*
G01*
X165324500Y-61421000D01*
G75*
G02*
X165562000Y-61183500I237500J0D01*
G01*
X166162000Y-61183500D01*
G75*
G02*
X166399500Y-61421000I0J-237500D01*
G01*
G37*
G36*
G01*
X159419000Y-121903500D02*
X159419000Y-121428500D01*
G75*
G02*
X159656500Y-121191000I237500J0D01*
G01*
X160256500Y-121191000D01*
G75*
G02*
X160494000Y-121428500I0J-237500D01*
G01*
X160494000Y-121903500D01*
G75*
G02*
X160256500Y-122141000I-237500J0D01*
G01*
X159656500Y-122141000D01*
G75*
G02*
X159419000Y-121903500I0J237500D01*
G01*
G37*
G36*
G01*
X157694000Y-121903500D02*
X157694000Y-121428500D01*
G75*
G02*
X157931500Y-121191000I237500J0D01*
G01*
X158531500Y-121191000D01*
G75*
G02*
X158769000Y-121428500I0J-237500D01*
G01*
X158769000Y-121903500D01*
G75*
G02*
X158531500Y-122141000I-237500J0D01*
G01*
X157931500Y-122141000D01*
G75*
G02*
X157694000Y-121903500I0J237500D01*
G01*
G37*
G36*
G01*
X159355500Y-101901000D02*
X159355500Y-101426000D01*
G75*
G02*
X159593000Y-101188500I237500J0D01*
G01*
X160193000Y-101188500D01*
G75*
G02*
X160430500Y-101426000I0J-237500D01*
G01*
X160430500Y-101901000D01*
G75*
G02*
X160193000Y-102138500I-237500J0D01*
G01*
X159593000Y-102138500D01*
G75*
G02*
X159355500Y-101901000I0J237500D01*
G01*
G37*
G36*
G01*
X157630500Y-101901000D02*
X157630500Y-101426000D01*
G75*
G02*
X157868000Y-101188500I237500J0D01*
G01*
X158468000Y-101188500D01*
G75*
G02*
X158705500Y-101426000I0J-237500D01*
G01*
X158705500Y-101901000D01*
G75*
G02*
X158468000Y-102138500I-237500J0D01*
G01*
X157868000Y-102138500D01*
G75*
G02*
X157630500Y-101901000I0J237500D01*
G01*
G37*
G36*
G01*
X159366000Y-61896000D02*
X159366000Y-61421000D01*
G75*
G02*
X159603500Y-61183500I237500J0D01*
G01*
X160203500Y-61183500D01*
G75*
G02*
X160441000Y-61421000I0J-237500D01*
G01*
X160441000Y-61896000D01*
G75*
G02*
X160203500Y-62133500I-237500J0D01*
G01*
X159603500Y-62133500D01*
G75*
G02*
X159366000Y-61896000I0J237500D01*
G01*
G37*
G36*
G01*
X157641000Y-61896000D02*
X157641000Y-61421000D01*
G75*
G02*
X157878500Y-61183500I237500J0D01*
G01*
X158478500Y-61183500D01*
G75*
G02*
X158716000Y-61421000I0J-237500D01*
G01*
X158716000Y-61896000D01*
G75*
G02*
X158478500Y-62133500I-237500J0D01*
G01*
X157878500Y-62133500D01*
G75*
G02*
X157641000Y-61896000I0J237500D01*
G01*
G37*
G36*
G01*
X165027000Y-123420500D02*
X165027000Y-123270500D01*
G75*
G02*
X165102000Y-123195500I75000J0D01*
G01*
X166427000Y-123195500D01*
G75*
G02*
X166502000Y-123270500I0J-75000D01*
G01*
X166502000Y-123420500D01*
G75*
G02*
X166427000Y-123495500I-75000J0D01*
G01*
X165102000Y-123495500D01*
G75*
G02*
X165027000Y-123420500I0J75000D01*
G01*
G37*
G36*
G01*
X165027000Y-123920500D02*
X165027000Y-123770500D01*
G75*
G02*
X165102000Y-123695500I75000J0D01*
G01*
X166427000Y-123695500D01*
G75*
G02*
X166502000Y-123770500I0J-75000D01*
G01*
X166502000Y-123920500D01*
G75*
G02*
X166427000Y-123995500I-75000J0D01*
G01*
X165102000Y-123995500D01*
G75*
G02*
X165027000Y-123920500I0J75000D01*
G01*
G37*
G36*
G01*
X165027000Y-124420500D02*
X165027000Y-124270500D01*
G75*
G02*
X165102000Y-124195500I75000J0D01*
G01*
X166427000Y-124195500D01*
G75*
G02*
X166502000Y-124270500I0J-75000D01*
G01*
X166502000Y-124420500D01*
G75*
G02*
X166427000Y-124495500I-75000J0D01*
G01*
X165102000Y-124495500D01*
G75*
G02*
X165027000Y-124420500I0J75000D01*
G01*
G37*
G36*
G01*
X165027000Y-124920500D02*
X165027000Y-124770500D01*
G75*
G02*
X165102000Y-124695500I75000J0D01*
G01*
X166427000Y-124695500D01*
G75*
G02*
X166502000Y-124770500I0J-75000D01*
G01*
X166502000Y-124920500D01*
G75*
G02*
X166427000Y-124995500I-75000J0D01*
G01*
X165102000Y-124995500D01*
G75*
G02*
X165027000Y-124920500I0J75000D01*
G01*
G37*
G36*
G01*
X165027000Y-125420500D02*
X165027000Y-125270500D01*
G75*
G02*
X165102000Y-125195500I75000J0D01*
G01*
X166427000Y-125195500D01*
G75*
G02*
X166502000Y-125270500I0J-75000D01*
G01*
X166502000Y-125420500D01*
G75*
G02*
X166427000Y-125495500I-75000J0D01*
G01*
X165102000Y-125495500D01*
G75*
G02*
X165027000Y-125420500I0J75000D01*
G01*
G37*
G36*
G01*
X165027000Y-125920500D02*
X165027000Y-125770500D01*
G75*
G02*
X165102000Y-125695500I75000J0D01*
G01*
X166427000Y-125695500D01*
G75*
G02*
X166502000Y-125770500I0J-75000D01*
G01*
X166502000Y-125920500D01*
G75*
G02*
X166427000Y-125995500I-75000J0D01*
G01*
X165102000Y-125995500D01*
G75*
G02*
X165027000Y-125920500I0J75000D01*
G01*
G37*
G36*
G01*
X165027000Y-126420500D02*
X165027000Y-126270500D01*
G75*
G02*
X165102000Y-126195500I75000J0D01*
G01*
X166427000Y-126195500D01*
G75*
G02*
X166502000Y-126270500I0J-75000D01*
G01*
X166502000Y-126420500D01*
G75*
G02*
X166427000Y-126495500I-75000J0D01*
G01*
X165102000Y-126495500D01*
G75*
G02*
X165027000Y-126420500I0J75000D01*
G01*
G37*
G36*
G01*
X165027000Y-126920500D02*
X165027000Y-126770500D01*
G75*
G02*
X165102000Y-126695500I75000J0D01*
G01*
X166427000Y-126695500D01*
G75*
G02*
X166502000Y-126770500I0J-75000D01*
G01*
X166502000Y-126920500D01*
G75*
G02*
X166427000Y-126995500I-75000J0D01*
G01*
X165102000Y-126995500D01*
G75*
G02*
X165027000Y-126920500I0J75000D01*
G01*
G37*
G36*
G01*
X165027000Y-127420500D02*
X165027000Y-127270500D01*
G75*
G02*
X165102000Y-127195500I75000J0D01*
G01*
X166427000Y-127195500D01*
G75*
G02*
X166502000Y-127270500I0J-75000D01*
G01*
X166502000Y-127420500D01*
G75*
G02*
X166427000Y-127495500I-75000J0D01*
G01*
X165102000Y-127495500D01*
G75*
G02*
X165027000Y-127420500I0J75000D01*
G01*
G37*
G36*
G01*
X165027000Y-127920500D02*
X165027000Y-127770500D01*
G75*
G02*
X165102000Y-127695500I75000J0D01*
G01*
X166427000Y-127695500D01*
G75*
G02*
X166502000Y-127770500I0J-75000D01*
G01*
X166502000Y-127920500D01*
G75*
G02*
X166427000Y-127995500I-75000J0D01*
G01*
X165102000Y-127995500D01*
G75*
G02*
X165027000Y-127920500I0J75000D01*
G01*
G37*
G36*
G01*
X165027000Y-128420500D02*
X165027000Y-128270500D01*
G75*
G02*
X165102000Y-128195500I75000J0D01*
G01*
X166427000Y-128195500D01*
G75*
G02*
X166502000Y-128270500I0J-75000D01*
G01*
X166502000Y-128420500D01*
G75*
G02*
X166427000Y-128495500I-75000J0D01*
G01*
X165102000Y-128495500D01*
G75*
G02*
X165027000Y-128420500I0J75000D01*
G01*
G37*
G36*
G01*
X165027000Y-128920500D02*
X165027000Y-128770500D01*
G75*
G02*
X165102000Y-128695500I75000J0D01*
G01*
X166427000Y-128695500D01*
G75*
G02*
X166502000Y-128770500I0J-75000D01*
G01*
X166502000Y-128920500D01*
G75*
G02*
X166427000Y-128995500I-75000J0D01*
G01*
X165102000Y-128995500D01*
G75*
G02*
X165027000Y-128920500I0J75000D01*
G01*
G37*
G36*
G01*
X165027000Y-129420500D02*
X165027000Y-129270500D01*
G75*
G02*
X165102000Y-129195500I75000J0D01*
G01*
X166427000Y-129195500D01*
G75*
G02*
X166502000Y-129270500I0J-75000D01*
G01*
X166502000Y-129420500D01*
G75*
G02*
X166427000Y-129495500I-75000J0D01*
G01*
X165102000Y-129495500D01*
G75*
G02*
X165027000Y-129420500I0J75000D01*
G01*
G37*
G36*
G01*
X165027000Y-129920500D02*
X165027000Y-129770500D01*
G75*
G02*
X165102000Y-129695500I75000J0D01*
G01*
X166427000Y-129695500D01*
G75*
G02*
X166502000Y-129770500I0J-75000D01*
G01*
X166502000Y-129920500D01*
G75*
G02*
X166427000Y-129995500I-75000J0D01*
G01*
X165102000Y-129995500D01*
G75*
G02*
X165027000Y-129920500I0J75000D01*
G01*
G37*
G36*
G01*
X165027000Y-130420500D02*
X165027000Y-130270500D01*
G75*
G02*
X165102000Y-130195500I75000J0D01*
G01*
X166427000Y-130195500D01*
G75*
G02*
X166502000Y-130270500I0J-75000D01*
G01*
X166502000Y-130420500D01*
G75*
G02*
X166427000Y-130495500I-75000J0D01*
G01*
X165102000Y-130495500D01*
G75*
G02*
X165027000Y-130420500I0J75000D01*
G01*
G37*
G36*
G01*
X165027000Y-130920500D02*
X165027000Y-130770500D01*
G75*
G02*
X165102000Y-130695500I75000J0D01*
G01*
X166427000Y-130695500D01*
G75*
G02*
X166502000Y-130770500I0J-75000D01*
G01*
X166502000Y-130920500D01*
G75*
G02*
X166427000Y-130995500I-75000J0D01*
G01*
X165102000Y-130995500D01*
G75*
G02*
X165027000Y-130920500I0J75000D01*
G01*
G37*
G36*
G01*
X165027000Y-131420500D02*
X165027000Y-131270500D01*
G75*
G02*
X165102000Y-131195500I75000J0D01*
G01*
X166427000Y-131195500D01*
G75*
G02*
X166502000Y-131270500I0J-75000D01*
G01*
X166502000Y-131420500D01*
G75*
G02*
X166427000Y-131495500I-75000J0D01*
G01*
X165102000Y-131495500D01*
G75*
G02*
X165027000Y-131420500I0J75000D01*
G01*
G37*
G36*
G01*
X165027000Y-131920500D02*
X165027000Y-131770500D01*
G75*
G02*
X165102000Y-131695500I75000J0D01*
G01*
X166427000Y-131695500D01*
G75*
G02*
X166502000Y-131770500I0J-75000D01*
G01*
X166502000Y-131920500D01*
G75*
G02*
X166427000Y-131995500I-75000J0D01*
G01*
X165102000Y-131995500D01*
G75*
G02*
X165027000Y-131920500I0J75000D01*
G01*
G37*
G36*
G01*
X165027000Y-132420500D02*
X165027000Y-132270500D01*
G75*
G02*
X165102000Y-132195500I75000J0D01*
G01*
X166427000Y-132195500D01*
G75*
G02*
X166502000Y-132270500I0J-75000D01*
G01*
X166502000Y-132420500D01*
G75*
G02*
X166427000Y-132495500I-75000J0D01*
G01*
X165102000Y-132495500D01*
G75*
G02*
X165027000Y-132420500I0J75000D01*
G01*
G37*
G36*
G01*
X165027000Y-132920500D02*
X165027000Y-132770500D01*
G75*
G02*
X165102000Y-132695500I75000J0D01*
G01*
X166427000Y-132695500D01*
G75*
G02*
X166502000Y-132770500I0J-75000D01*
G01*
X166502000Y-132920500D01*
G75*
G02*
X166427000Y-132995500I-75000J0D01*
G01*
X165102000Y-132995500D01*
G75*
G02*
X165027000Y-132920500I0J75000D01*
G01*
G37*
G36*
G01*
X165027000Y-133420500D02*
X165027000Y-133270500D01*
G75*
G02*
X165102000Y-133195500I75000J0D01*
G01*
X166427000Y-133195500D01*
G75*
G02*
X166502000Y-133270500I0J-75000D01*
G01*
X166502000Y-133420500D01*
G75*
G02*
X166427000Y-133495500I-75000J0D01*
G01*
X165102000Y-133495500D01*
G75*
G02*
X165027000Y-133420500I0J75000D01*
G01*
G37*
G36*
G01*
X165027000Y-133920500D02*
X165027000Y-133770500D01*
G75*
G02*
X165102000Y-133695500I75000J0D01*
G01*
X166427000Y-133695500D01*
G75*
G02*
X166502000Y-133770500I0J-75000D01*
G01*
X166502000Y-133920500D01*
G75*
G02*
X166427000Y-133995500I-75000J0D01*
G01*
X165102000Y-133995500D01*
G75*
G02*
X165027000Y-133920500I0J75000D01*
G01*
G37*
G36*
G01*
X165027000Y-134420500D02*
X165027000Y-134270500D01*
G75*
G02*
X165102000Y-134195500I75000J0D01*
G01*
X166427000Y-134195500D01*
G75*
G02*
X166502000Y-134270500I0J-75000D01*
G01*
X166502000Y-134420500D01*
G75*
G02*
X166427000Y-134495500I-75000J0D01*
G01*
X165102000Y-134495500D01*
G75*
G02*
X165027000Y-134420500I0J75000D01*
G01*
G37*
G36*
G01*
X165027000Y-134920500D02*
X165027000Y-134770500D01*
G75*
G02*
X165102000Y-134695500I75000J0D01*
G01*
X166427000Y-134695500D01*
G75*
G02*
X166502000Y-134770500I0J-75000D01*
G01*
X166502000Y-134920500D01*
G75*
G02*
X166427000Y-134995500I-75000J0D01*
G01*
X165102000Y-134995500D01*
G75*
G02*
X165027000Y-134920500I0J75000D01*
G01*
G37*
G36*
G01*
X157602000Y-134920500D02*
X157602000Y-134770500D01*
G75*
G02*
X157677000Y-134695500I75000J0D01*
G01*
X159002000Y-134695500D01*
G75*
G02*
X159077000Y-134770500I0J-75000D01*
G01*
X159077000Y-134920500D01*
G75*
G02*
X159002000Y-134995500I-75000J0D01*
G01*
X157677000Y-134995500D01*
G75*
G02*
X157602000Y-134920500I0J75000D01*
G01*
G37*
G36*
G01*
X157602000Y-134420500D02*
X157602000Y-134270500D01*
G75*
G02*
X157677000Y-134195500I75000J0D01*
G01*
X159002000Y-134195500D01*
G75*
G02*
X159077000Y-134270500I0J-75000D01*
G01*
X159077000Y-134420500D01*
G75*
G02*
X159002000Y-134495500I-75000J0D01*
G01*
X157677000Y-134495500D01*
G75*
G02*
X157602000Y-134420500I0J75000D01*
G01*
G37*
G36*
G01*
X157602000Y-133920500D02*
X157602000Y-133770500D01*
G75*
G02*
X157677000Y-133695500I75000J0D01*
G01*
X159002000Y-133695500D01*
G75*
G02*
X159077000Y-133770500I0J-75000D01*
G01*
X159077000Y-133920500D01*
G75*
G02*
X159002000Y-133995500I-75000J0D01*
G01*
X157677000Y-133995500D01*
G75*
G02*
X157602000Y-133920500I0J75000D01*
G01*
G37*
G36*
G01*
X157602000Y-133420500D02*
X157602000Y-133270500D01*
G75*
G02*
X157677000Y-133195500I75000J0D01*
G01*
X159002000Y-133195500D01*
G75*
G02*
X159077000Y-133270500I0J-75000D01*
G01*
X159077000Y-133420500D01*
G75*
G02*
X159002000Y-133495500I-75000J0D01*
G01*
X157677000Y-133495500D01*
G75*
G02*
X157602000Y-133420500I0J75000D01*
G01*
G37*
G36*
G01*
X157602000Y-132920500D02*
X157602000Y-132770500D01*
G75*
G02*
X157677000Y-132695500I75000J0D01*
G01*
X159002000Y-132695500D01*
G75*
G02*
X159077000Y-132770500I0J-75000D01*
G01*
X159077000Y-132920500D01*
G75*
G02*
X159002000Y-132995500I-75000J0D01*
G01*
X157677000Y-132995500D01*
G75*
G02*
X157602000Y-132920500I0J75000D01*
G01*
G37*
G36*
G01*
X157602000Y-132420500D02*
X157602000Y-132270500D01*
G75*
G02*
X157677000Y-132195500I75000J0D01*
G01*
X159002000Y-132195500D01*
G75*
G02*
X159077000Y-132270500I0J-75000D01*
G01*
X159077000Y-132420500D01*
G75*
G02*
X159002000Y-132495500I-75000J0D01*
G01*
X157677000Y-132495500D01*
G75*
G02*
X157602000Y-132420500I0J75000D01*
G01*
G37*
G36*
G01*
X157602000Y-131920500D02*
X157602000Y-131770500D01*
G75*
G02*
X157677000Y-131695500I75000J0D01*
G01*
X159002000Y-131695500D01*
G75*
G02*
X159077000Y-131770500I0J-75000D01*
G01*
X159077000Y-131920500D01*
G75*
G02*
X159002000Y-131995500I-75000J0D01*
G01*
X157677000Y-131995500D01*
G75*
G02*
X157602000Y-131920500I0J75000D01*
G01*
G37*
G36*
G01*
X157602000Y-131420500D02*
X157602000Y-131270500D01*
G75*
G02*
X157677000Y-131195500I75000J0D01*
G01*
X159002000Y-131195500D01*
G75*
G02*
X159077000Y-131270500I0J-75000D01*
G01*
X159077000Y-131420500D01*
G75*
G02*
X159002000Y-131495500I-75000J0D01*
G01*
X157677000Y-131495500D01*
G75*
G02*
X157602000Y-131420500I0J75000D01*
G01*
G37*
G36*
G01*
X157602000Y-130920500D02*
X157602000Y-130770500D01*
G75*
G02*
X157677000Y-130695500I75000J0D01*
G01*
X159002000Y-130695500D01*
G75*
G02*
X159077000Y-130770500I0J-75000D01*
G01*
X159077000Y-130920500D01*
G75*
G02*
X159002000Y-130995500I-75000J0D01*
G01*
X157677000Y-130995500D01*
G75*
G02*
X157602000Y-130920500I0J75000D01*
G01*
G37*
G36*
G01*
X157602000Y-130420500D02*
X157602000Y-130270500D01*
G75*
G02*
X157677000Y-130195500I75000J0D01*
G01*
X159002000Y-130195500D01*
G75*
G02*
X159077000Y-130270500I0J-75000D01*
G01*
X159077000Y-130420500D01*
G75*
G02*
X159002000Y-130495500I-75000J0D01*
G01*
X157677000Y-130495500D01*
G75*
G02*
X157602000Y-130420500I0J75000D01*
G01*
G37*
G36*
G01*
X157602000Y-129920500D02*
X157602000Y-129770500D01*
G75*
G02*
X157677000Y-129695500I75000J0D01*
G01*
X159002000Y-129695500D01*
G75*
G02*
X159077000Y-129770500I0J-75000D01*
G01*
X159077000Y-129920500D01*
G75*
G02*
X159002000Y-129995500I-75000J0D01*
G01*
X157677000Y-129995500D01*
G75*
G02*
X157602000Y-129920500I0J75000D01*
G01*
G37*
G36*
G01*
X157602000Y-129420500D02*
X157602000Y-129270500D01*
G75*
G02*
X157677000Y-129195500I75000J0D01*
G01*
X159002000Y-129195500D01*
G75*
G02*
X159077000Y-129270500I0J-75000D01*
G01*
X159077000Y-129420500D01*
G75*
G02*
X159002000Y-129495500I-75000J0D01*
G01*
X157677000Y-129495500D01*
G75*
G02*
X157602000Y-129420500I0J75000D01*
G01*
G37*
G36*
G01*
X157602000Y-128920500D02*
X157602000Y-128770500D01*
G75*
G02*
X157677000Y-128695500I75000J0D01*
G01*
X159002000Y-128695500D01*
G75*
G02*
X159077000Y-128770500I0J-75000D01*
G01*
X159077000Y-128920500D01*
G75*
G02*
X159002000Y-128995500I-75000J0D01*
G01*
X157677000Y-128995500D01*
G75*
G02*
X157602000Y-128920500I0J75000D01*
G01*
G37*
G36*
G01*
X157602000Y-128420500D02*
X157602000Y-128270500D01*
G75*
G02*
X157677000Y-128195500I75000J0D01*
G01*
X159002000Y-128195500D01*
G75*
G02*
X159077000Y-128270500I0J-75000D01*
G01*
X159077000Y-128420500D01*
G75*
G02*
X159002000Y-128495500I-75000J0D01*
G01*
X157677000Y-128495500D01*
G75*
G02*
X157602000Y-128420500I0J75000D01*
G01*
G37*
G36*
G01*
X157602000Y-127920500D02*
X157602000Y-127770500D01*
G75*
G02*
X157677000Y-127695500I75000J0D01*
G01*
X159002000Y-127695500D01*
G75*
G02*
X159077000Y-127770500I0J-75000D01*
G01*
X159077000Y-127920500D01*
G75*
G02*
X159002000Y-127995500I-75000J0D01*
G01*
X157677000Y-127995500D01*
G75*
G02*
X157602000Y-127920500I0J75000D01*
G01*
G37*
G36*
G01*
X157602000Y-127420500D02*
X157602000Y-127270500D01*
G75*
G02*
X157677000Y-127195500I75000J0D01*
G01*
X159002000Y-127195500D01*
G75*
G02*
X159077000Y-127270500I0J-75000D01*
G01*
X159077000Y-127420500D01*
G75*
G02*
X159002000Y-127495500I-75000J0D01*
G01*
X157677000Y-127495500D01*
G75*
G02*
X157602000Y-127420500I0J75000D01*
G01*
G37*
G36*
G01*
X157602000Y-126920500D02*
X157602000Y-126770500D01*
G75*
G02*
X157677000Y-126695500I75000J0D01*
G01*
X159002000Y-126695500D01*
G75*
G02*
X159077000Y-126770500I0J-75000D01*
G01*
X159077000Y-126920500D01*
G75*
G02*
X159002000Y-126995500I-75000J0D01*
G01*
X157677000Y-126995500D01*
G75*
G02*
X157602000Y-126920500I0J75000D01*
G01*
G37*
G36*
G01*
X157602000Y-126420500D02*
X157602000Y-126270500D01*
G75*
G02*
X157677000Y-126195500I75000J0D01*
G01*
X159002000Y-126195500D01*
G75*
G02*
X159077000Y-126270500I0J-75000D01*
G01*
X159077000Y-126420500D01*
G75*
G02*
X159002000Y-126495500I-75000J0D01*
G01*
X157677000Y-126495500D01*
G75*
G02*
X157602000Y-126420500I0J75000D01*
G01*
G37*
G36*
G01*
X157602000Y-125920500D02*
X157602000Y-125770500D01*
G75*
G02*
X157677000Y-125695500I75000J0D01*
G01*
X159002000Y-125695500D01*
G75*
G02*
X159077000Y-125770500I0J-75000D01*
G01*
X159077000Y-125920500D01*
G75*
G02*
X159002000Y-125995500I-75000J0D01*
G01*
X157677000Y-125995500D01*
G75*
G02*
X157602000Y-125920500I0J75000D01*
G01*
G37*
G36*
G01*
X157602000Y-125420500D02*
X157602000Y-125270500D01*
G75*
G02*
X157677000Y-125195500I75000J0D01*
G01*
X159002000Y-125195500D01*
G75*
G02*
X159077000Y-125270500I0J-75000D01*
G01*
X159077000Y-125420500D01*
G75*
G02*
X159002000Y-125495500I-75000J0D01*
G01*
X157677000Y-125495500D01*
G75*
G02*
X157602000Y-125420500I0J75000D01*
G01*
G37*
G36*
G01*
X157602000Y-124920500D02*
X157602000Y-124770500D01*
G75*
G02*
X157677000Y-124695500I75000J0D01*
G01*
X159002000Y-124695500D01*
G75*
G02*
X159077000Y-124770500I0J-75000D01*
G01*
X159077000Y-124920500D01*
G75*
G02*
X159002000Y-124995500I-75000J0D01*
G01*
X157677000Y-124995500D01*
G75*
G02*
X157602000Y-124920500I0J75000D01*
G01*
G37*
G36*
G01*
X157602000Y-124420500D02*
X157602000Y-124270500D01*
G75*
G02*
X157677000Y-124195500I75000J0D01*
G01*
X159002000Y-124195500D01*
G75*
G02*
X159077000Y-124270500I0J-75000D01*
G01*
X159077000Y-124420500D01*
G75*
G02*
X159002000Y-124495500I-75000J0D01*
G01*
X157677000Y-124495500D01*
G75*
G02*
X157602000Y-124420500I0J75000D01*
G01*
G37*
G36*
G01*
X157602000Y-123920500D02*
X157602000Y-123770500D01*
G75*
G02*
X157677000Y-123695500I75000J0D01*
G01*
X159002000Y-123695500D01*
G75*
G02*
X159077000Y-123770500I0J-75000D01*
G01*
X159077000Y-123920500D01*
G75*
G02*
X159002000Y-123995500I-75000J0D01*
G01*
X157677000Y-123995500D01*
G75*
G02*
X157602000Y-123920500I0J75000D01*
G01*
G37*
G36*
G01*
X157602000Y-123420500D02*
X157602000Y-123270500D01*
G75*
G02*
X157677000Y-123195500I75000J0D01*
G01*
X159002000Y-123195500D01*
G75*
G02*
X159077000Y-123270500I0J-75000D01*
G01*
X159077000Y-123420500D01*
G75*
G02*
X159002000Y-123495500I-75000J0D01*
G01*
X157677000Y-123495500D01*
G75*
G02*
X157602000Y-123420500I0J75000D01*
G01*
G37*
G36*
G01*
X165027000Y-63413000D02*
X165027000Y-63263000D01*
G75*
G02*
X165102000Y-63188000I75000J0D01*
G01*
X166427000Y-63188000D01*
G75*
G02*
X166502000Y-63263000I0J-75000D01*
G01*
X166502000Y-63413000D01*
G75*
G02*
X166427000Y-63488000I-75000J0D01*
G01*
X165102000Y-63488000D01*
G75*
G02*
X165027000Y-63413000I0J75000D01*
G01*
G37*
G36*
G01*
X165027000Y-63913000D02*
X165027000Y-63763000D01*
G75*
G02*
X165102000Y-63688000I75000J0D01*
G01*
X166427000Y-63688000D01*
G75*
G02*
X166502000Y-63763000I0J-75000D01*
G01*
X166502000Y-63913000D01*
G75*
G02*
X166427000Y-63988000I-75000J0D01*
G01*
X165102000Y-63988000D01*
G75*
G02*
X165027000Y-63913000I0J75000D01*
G01*
G37*
G36*
G01*
X165027000Y-64413000D02*
X165027000Y-64263000D01*
G75*
G02*
X165102000Y-64188000I75000J0D01*
G01*
X166427000Y-64188000D01*
G75*
G02*
X166502000Y-64263000I0J-75000D01*
G01*
X166502000Y-64413000D01*
G75*
G02*
X166427000Y-64488000I-75000J0D01*
G01*
X165102000Y-64488000D01*
G75*
G02*
X165027000Y-64413000I0J75000D01*
G01*
G37*
G36*
G01*
X165027000Y-64913000D02*
X165027000Y-64763000D01*
G75*
G02*
X165102000Y-64688000I75000J0D01*
G01*
X166427000Y-64688000D01*
G75*
G02*
X166502000Y-64763000I0J-75000D01*
G01*
X166502000Y-64913000D01*
G75*
G02*
X166427000Y-64988000I-75000J0D01*
G01*
X165102000Y-64988000D01*
G75*
G02*
X165027000Y-64913000I0J75000D01*
G01*
G37*
G36*
G01*
X165027000Y-65413000D02*
X165027000Y-65263000D01*
G75*
G02*
X165102000Y-65188000I75000J0D01*
G01*
X166427000Y-65188000D01*
G75*
G02*
X166502000Y-65263000I0J-75000D01*
G01*
X166502000Y-65413000D01*
G75*
G02*
X166427000Y-65488000I-75000J0D01*
G01*
X165102000Y-65488000D01*
G75*
G02*
X165027000Y-65413000I0J75000D01*
G01*
G37*
G36*
G01*
X165027000Y-65913000D02*
X165027000Y-65763000D01*
G75*
G02*
X165102000Y-65688000I75000J0D01*
G01*
X166427000Y-65688000D01*
G75*
G02*
X166502000Y-65763000I0J-75000D01*
G01*
X166502000Y-65913000D01*
G75*
G02*
X166427000Y-65988000I-75000J0D01*
G01*
X165102000Y-65988000D01*
G75*
G02*
X165027000Y-65913000I0J75000D01*
G01*
G37*
G36*
G01*
X165027000Y-66413000D02*
X165027000Y-66263000D01*
G75*
G02*
X165102000Y-66188000I75000J0D01*
G01*
X166427000Y-66188000D01*
G75*
G02*
X166502000Y-66263000I0J-75000D01*
G01*
X166502000Y-66413000D01*
G75*
G02*
X166427000Y-66488000I-75000J0D01*
G01*
X165102000Y-66488000D01*
G75*
G02*
X165027000Y-66413000I0J75000D01*
G01*
G37*
G36*
G01*
X165027000Y-66913000D02*
X165027000Y-66763000D01*
G75*
G02*
X165102000Y-66688000I75000J0D01*
G01*
X166427000Y-66688000D01*
G75*
G02*
X166502000Y-66763000I0J-75000D01*
G01*
X166502000Y-66913000D01*
G75*
G02*
X166427000Y-66988000I-75000J0D01*
G01*
X165102000Y-66988000D01*
G75*
G02*
X165027000Y-66913000I0J75000D01*
G01*
G37*
G36*
G01*
X165027000Y-67413000D02*
X165027000Y-67263000D01*
G75*
G02*
X165102000Y-67188000I75000J0D01*
G01*
X166427000Y-67188000D01*
G75*
G02*
X166502000Y-67263000I0J-75000D01*
G01*
X166502000Y-67413000D01*
G75*
G02*
X166427000Y-67488000I-75000J0D01*
G01*
X165102000Y-67488000D01*
G75*
G02*
X165027000Y-67413000I0J75000D01*
G01*
G37*
G36*
G01*
X165027000Y-67913000D02*
X165027000Y-67763000D01*
G75*
G02*
X165102000Y-67688000I75000J0D01*
G01*
X166427000Y-67688000D01*
G75*
G02*
X166502000Y-67763000I0J-75000D01*
G01*
X166502000Y-67913000D01*
G75*
G02*
X166427000Y-67988000I-75000J0D01*
G01*
X165102000Y-67988000D01*
G75*
G02*
X165027000Y-67913000I0J75000D01*
G01*
G37*
G36*
G01*
X165027000Y-68413000D02*
X165027000Y-68263000D01*
G75*
G02*
X165102000Y-68188000I75000J0D01*
G01*
X166427000Y-68188000D01*
G75*
G02*
X166502000Y-68263000I0J-75000D01*
G01*
X166502000Y-68413000D01*
G75*
G02*
X166427000Y-68488000I-75000J0D01*
G01*
X165102000Y-68488000D01*
G75*
G02*
X165027000Y-68413000I0J75000D01*
G01*
G37*
G36*
G01*
X165027000Y-68913000D02*
X165027000Y-68763000D01*
G75*
G02*
X165102000Y-68688000I75000J0D01*
G01*
X166427000Y-68688000D01*
G75*
G02*
X166502000Y-68763000I0J-75000D01*
G01*
X166502000Y-68913000D01*
G75*
G02*
X166427000Y-68988000I-75000J0D01*
G01*
X165102000Y-68988000D01*
G75*
G02*
X165027000Y-68913000I0J75000D01*
G01*
G37*
G36*
G01*
X165027000Y-69413000D02*
X165027000Y-69263000D01*
G75*
G02*
X165102000Y-69188000I75000J0D01*
G01*
X166427000Y-69188000D01*
G75*
G02*
X166502000Y-69263000I0J-75000D01*
G01*
X166502000Y-69413000D01*
G75*
G02*
X166427000Y-69488000I-75000J0D01*
G01*
X165102000Y-69488000D01*
G75*
G02*
X165027000Y-69413000I0J75000D01*
G01*
G37*
G36*
G01*
X165027000Y-69913000D02*
X165027000Y-69763000D01*
G75*
G02*
X165102000Y-69688000I75000J0D01*
G01*
X166427000Y-69688000D01*
G75*
G02*
X166502000Y-69763000I0J-75000D01*
G01*
X166502000Y-69913000D01*
G75*
G02*
X166427000Y-69988000I-75000J0D01*
G01*
X165102000Y-69988000D01*
G75*
G02*
X165027000Y-69913000I0J75000D01*
G01*
G37*
G36*
G01*
X165027000Y-70413000D02*
X165027000Y-70263000D01*
G75*
G02*
X165102000Y-70188000I75000J0D01*
G01*
X166427000Y-70188000D01*
G75*
G02*
X166502000Y-70263000I0J-75000D01*
G01*
X166502000Y-70413000D01*
G75*
G02*
X166427000Y-70488000I-75000J0D01*
G01*
X165102000Y-70488000D01*
G75*
G02*
X165027000Y-70413000I0J75000D01*
G01*
G37*
G36*
G01*
X165027000Y-70913000D02*
X165027000Y-70763000D01*
G75*
G02*
X165102000Y-70688000I75000J0D01*
G01*
X166427000Y-70688000D01*
G75*
G02*
X166502000Y-70763000I0J-75000D01*
G01*
X166502000Y-70913000D01*
G75*
G02*
X166427000Y-70988000I-75000J0D01*
G01*
X165102000Y-70988000D01*
G75*
G02*
X165027000Y-70913000I0J75000D01*
G01*
G37*
G36*
G01*
X165027000Y-71413000D02*
X165027000Y-71263000D01*
G75*
G02*
X165102000Y-71188000I75000J0D01*
G01*
X166427000Y-71188000D01*
G75*
G02*
X166502000Y-71263000I0J-75000D01*
G01*
X166502000Y-71413000D01*
G75*
G02*
X166427000Y-71488000I-75000J0D01*
G01*
X165102000Y-71488000D01*
G75*
G02*
X165027000Y-71413000I0J75000D01*
G01*
G37*
G36*
G01*
X165027000Y-71913000D02*
X165027000Y-71763000D01*
G75*
G02*
X165102000Y-71688000I75000J0D01*
G01*
X166427000Y-71688000D01*
G75*
G02*
X166502000Y-71763000I0J-75000D01*
G01*
X166502000Y-71913000D01*
G75*
G02*
X166427000Y-71988000I-75000J0D01*
G01*
X165102000Y-71988000D01*
G75*
G02*
X165027000Y-71913000I0J75000D01*
G01*
G37*
G36*
G01*
X165027000Y-72413000D02*
X165027000Y-72263000D01*
G75*
G02*
X165102000Y-72188000I75000J0D01*
G01*
X166427000Y-72188000D01*
G75*
G02*
X166502000Y-72263000I0J-75000D01*
G01*
X166502000Y-72413000D01*
G75*
G02*
X166427000Y-72488000I-75000J0D01*
G01*
X165102000Y-72488000D01*
G75*
G02*
X165027000Y-72413000I0J75000D01*
G01*
G37*
G36*
G01*
X165027000Y-72913000D02*
X165027000Y-72763000D01*
G75*
G02*
X165102000Y-72688000I75000J0D01*
G01*
X166427000Y-72688000D01*
G75*
G02*
X166502000Y-72763000I0J-75000D01*
G01*
X166502000Y-72913000D01*
G75*
G02*
X166427000Y-72988000I-75000J0D01*
G01*
X165102000Y-72988000D01*
G75*
G02*
X165027000Y-72913000I0J75000D01*
G01*
G37*
G36*
G01*
X165027000Y-73413000D02*
X165027000Y-73263000D01*
G75*
G02*
X165102000Y-73188000I75000J0D01*
G01*
X166427000Y-73188000D01*
G75*
G02*
X166502000Y-73263000I0J-75000D01*
G01*
X166502000Y-73413000D01*
G75*
G02*
X166427000Y-73488000I-75000J0D01*
G01*
X165102000Y-73488000D01*
G75*
G02*
X165027000Y-73413000I0J75000D01*
G01*
G37*
G36*
G01*
X165027000Y-73913000D02*
X165027000Y-73763000D01*
G75*
G02*
X165102000Y-73688000I75000J0D01*
G01*
X166427000Y-73688000D01*
G75*
G02*
X166502000Y-73763000I0J-75000D01*
G01*
X166502000Y-73913000D01*
G75*
G02*
X166427000Y-73988000I-75000J0D01*
G01*
X165102000Y-73988000D01*
G75*
G02*
X165027000Y-73913000I0J75000D01*
G01*
G37*
G36*
G01*
X165027000Y-74413000D02*
X165027000Y-74263000D01*
G75*
G02*
X165102000Y-74188000I75000J0D01*
G01*
X166427000Y-74188000D01*
G75*
G02*
X166502000Y-74263000I0J-75000D01*
G01*
X166502000Y-74413000D01*
G75*
G02*
X166427000Y-74488000I-75000J0D01*
G01*
X165102000Y-74488000D01*
G75*
G02*
X165027000Y-74413000I0J75000D01*
G01*
G37*
G36*
G01*
X165027000Y-74913000D02*
X165027000Y-74763000D01*
G75*
G02*
X165102000Y-74688000I75000J0D01*
G01*
X166427000Y-74688000D01*
G75*
G02*
X166502000Y-74763000I0J-75000D01*
G01*
X166502000Y-74913000D01*
G75*
G02*
X166427000Y-74988000I-75000J0D01*
G01*
X165102000Y-74988000D01*
G75*
G02*
X165027000Y-74913000I0J75000D01*
G01*
G37*
G36*
G01*
X157602000Y-74913000D02*
X157602000Y-74763000D01*
G75*
G02*
X157677000Y-74688000I75000J0D01*
G01*
X159002000Y-74688000D01*
G75*
G02*
X159077000Y-74763000I0J-75000D01*
G01*
X159077000Y-74913000D01*
G75*
G02*
X159002000Y-74988000I-75000J0D01*
G01*
X157677000Y-74988000D01*
G75*
G02*
X157602000Y-74913000I0J75000D01*
G01*
G37*
G36*
G01*
X157602000Y-74413000D02*
X157602000Y-74263000D01*
G75*
G02*
X157677000Y-74188000I75000J0D01*
G01*
X159002000Y-74188000D01*
G75*
G02*
X159077000Y-74263000I0J-75000D01*
G01*
X159077000Y-74413000D01*
G75*
G02*
X159002000Y-74488000I-75000J0D01*
G01*
X157677000Y-74488000D01*
G75*
G02*
X157602000Y-74413000I0J75000D01*
G01*
G37*
G36*
G01*
X157602000Y-73913000D02*
X157602000Y-73763000D01*
G75*
G02*
X157677000Y-73688000I75000J0D01*
G01*
X159002000Y-73688000D01*
G75*
G02*
X159077000Y-73763000I0J-75000D01*
G01*
X159077000Y-73913000D01*
G75*
G02*
X159002000Y-73988000I-75000J0D01*
G01*
X157677000Y-73988000D01*
G75*
G02*
X157602000Y-73913000I0J75000D01*
G01*
G37*
G36*
G01*
X157602000Y-73413000D02*
X157602000Y-73263000D01*
G75*
G02*
X157677000Y-73188000I75000J0D01*
G01*
X159002000Y-73188000D01*
G75*
G02*
X159077000Y-73263000I0J-75000D01*
G01*
X159077000Y-73413000D01*
G75*
G02*
X159002000Y-73488000I-75000J0D01*
G01*
X157677000Y-73488000D01*
G75*
G02*
X157602000Y-73413000I0J75000D01*
G01*
G37*
G36*
G01*
X157602000Y-72913000D02*
X157602000Y-72763000D01*
G75*
G02*
X157677000Y-72688000I75000J0D01*
G01*
X159002000Y-72688000D01*
G75*
G02*
X159077000Y-72763000I0J-75000D01*
G01*
X159077000Y-72913000D01*
G75*
G02*
X159002000Y-72988000I-75000J0D01*
G01*
X157677000Y-72988000D01*
G75*
G02*
X157602000Y-72913000I0J75000D01*
G01*
G37*
G36*
G01*
X157602000Y-72413000D02*
X157602000Y-72263000D01*
G75*
G02*
X157677000Y-72188000I75000J0D01*
G01*
X159002000Y-72188000D01*
G75*
G02*
X159077000Y-72263000I0J-75000D01*
G01*
X159077000Y-72413000D01*
G75*
G02*
X159002000Y-72488000I-75000J0D01*
G01*
X157677000Y-72488000D01*
G75*
G02*
X157602000Y-72413000I0J75000D01*
G01*
G37*
G36*
G01*
X157602000Y-71913000D02*
X157602000Y-71763000D01*
G75*
G02*
X157677000Y-71688000I75000J0D01*
G01*
X159002000Y-71688000D01*
G75*
G02*
X159077000Y-71763000I0J-75000D01*
G01*
X159077000Y-71913000D01*
G75*
G02*
X159002000Y-71988000I-75000J0D01*
G01*
X157677000Y-71988000D01*
G75*
G02*
X157602000Y-71913000I0J75000D01*
G01*
G37*
G36*
G01*
X157602000Y-71413000D02*
X157602000Y-71263000D01*
G75*
G02*
X157677000Y-71188000I75000J0D01*
G01*
X159002000Y-71188000D01*
G75*
G02*
X159077000Y-71263000I0J-75000D01*
G01*
X159077000Y-71413000D01*
G75*
G02*
X159002000Y-71488000I-75000J0D01*
G01*
X157677000Y-71488000D01*
G75*
G02*
X157602000Y-71413000I0J75000D01*
G01*
G37*
G36*
G01*
X157602000Y-70913000D02*
X157602000Y-70763000D01*
G75*
G02*
X157677000Y-70688000I75000J0D01*
G01*
X159002000Y-70688000D01*
G75*
G02*
X159077000Y-70763000I0J-75000D01*
G01*
X159077000Y-70913000D01*
G75*
G02*
X159002000Y-70988000I-75000J0D01*
G01*
X157677000Y-70988000D01*
G75*
G02*
X157602000Y-70913000I0J75000D01*
G01*
G37*
G36*
G01*
X157602000Y-70413000D02*
X157602000Y-70263000D01*
G75*
G02*
X157677000Y-70188000I75000J0D01*
G01*
X159002000Y-70188000D01*
G75*
G02*
X159077000Y-70263000I0J-75000D01*
G01*
X159077000Y-70413000D01*
G75*
G02*
X159002000Y-70488000I-75000J0D01*
G01*
X157677000Y-70488000D01*
G75*
G02*
X157602000Y-70413000I0J75000D01*
G01*
G37*
G36*
G01*
X157602000Y-69913000D02*
X157602000Y-69763000D01*
G75*
G02*
X157677000Y-69688000I75000J0D01*
G01*
X159002000Y-69688000D01*
G75*
G02*
X159077000Y-69763000I0J-75000D01*
G01*
X159077000Y-69913000D01*
G75*
G02*
X159002000Y-69988000I-75000J0D01*
G01*
X157677000Y-69988000D01*
G75*
G02*
X157602000Y-69913000I0J75000D01*
G01*
G37*
G36*
G01*
X157602000Y-69413000D02*
X157602000Y-69263000D01*
G75*
G02*
X157677000Y-69188000I75000J0D01*
G01*
X159002000Y-69188000D01*
G75*
G02*
X159077000Y-69263000I0J-75000D01*
G01*
X159077000Y-69413000D01*
G75*
G02*
X159002000Y-69488000I-75000J0D01*
G01*
X157677000Y-69488000D01*
G75*
G02*
X157602000Y-69413000I0J75000D01*
G01*
G37*
G36*
G01*
X157602000Y-68913000D02*
X157602000Y-68763000D01*
G75*
G02*
X157677000Y-68688000I75000J0D01*
G01*
X159002000Y-68688000D01*
G75*
G02*
X159077000Y-68763000I0J-75000D01*
G01*
X159077000Y-68913000D01*
G75*
G02*
X159002000Y-68988000I-75000J0D01*
G01*
X157677000Y-68988000D01*
G75*
G02*
X157602000Y-68913000I0J75000D01*
G01*
G37*
G36*
G01*
X157602000Y-68413000D02*
X157602000Y-68263000D01*
G75*
G02*
X157677000Y-68188000I75000J0D01*
G01*
X159002000Y-68188000D01*
G75*
G02*
X159077000Y-68263000I0J-75000D01*
G01*
X159077000Y-68413000D01*
G75*
G02*
X159002000Y-68488000I-75000J0D01*
G01*
X157677000Y-68488000D01*
G75*
G02*
X157602000Y-68413000I0J75000D01*
G01*
G37*
G36*
G01*
X157602000Y-67913000D02*
X157602000Y-67763000D01*
G75*
G02*
X157677000Y-67688000I75000J0D01*
G01*
X159002000Y-67688000D01*
G75*
G02*
X159077000Y-67763000I0J-75000D01*
G01*
X159077000Y-67913000D01*
G75*
G02*
X159002000Y-67988000I-75000J0D01*
G01*
X157677000Y-67988000D01*
G75*
G02*
X157602000Y-67913000I0J75000D01*
G01*
G37*
G36*
G01*
X157602000Y-67413000D02*
X157602000Y-67263000D01*
G75*
G02*
X157677000Y-67188000I75000J0D01*
G01*
X159002000Y-67188000D01*
G75*
G02*
X159077000Y-67263000I0J-75000D01*
G01*
X159077000Y-67413000D01*
G75*
G02*
X159002000Y-67488000I-75000J0D01*
G01*
X157677000Y-67488000D01*
G75*
G02*
X157602000Y-67413000I0J75000D01*
G01*
G37*
G36*
G01*
X157602000Y-66913000D02*
X157602000Y-66763000D01*
G75*
G02*
X157677000Y-66688000I75000J0D01*
G01*
X159002000Y-66688000D01*
G75*
G02*
X159077000Y-66763000I0J-75000D01*
G01*
X159077000Y-66913000D01*
G75*
G02*
X159002000Y-66988000I-75000J0D01*
G01*
X157677000Y-66988000D01*
G75*
G02*
X157602000Y-66913000I0J75000D01*
G01*
G37*
G36*
G01*
X157602000Y-66413000D02*
X157602000Y-66263000D01*
G75*
G02*
X157677000Y-66188000I75000J0D01*
G01*
X159002000Y-66188000D01*
G75*
G02*
X159077000Y-66263000I0J-75000D01*
G01*
X159077000Y-66413000D01*
G75*
G02*
X159002000Y-66488000I-75000J0D01*
G01*
X157677000Y-66488000D01*
G75*
G02*
X157602000Y-66413000I0J75000D01*
G01*
G37*
G36*
G01*
X157602000Y-65913000D02*
X157602000Y-65763000D01*
G75*
G02*
X157677000Y-65688000I75000J0D01*
G01*
X159002000Y-65688000D01*
G75*
G02*
X159077000Y-65763000I0J-75000D01*
G01*
X159077000Y-65913000D01*
G75*
G02*
X159002000Y-65988000I-75000J0D01*
G01*
X157677000Y-65988000D01*
G75*
G02*
X157602000Y-65913000I0J75000D01*
G01*
G37*
G36*
G01*
X157602000Y-65413000D02*
X157602000Y-65263000D01*
G75*
G02*
X157677000Y-65188000I75000J0D01*
G01*
X159002000Y-65188000D01*
G75*
G02*
X159077000Y-65263000I0J-75000D01*
G01*
X159077000Y-65413000D01*
G75*
G02*
X159002000Y-65488000I-75000J0D01*
G01*
X157677000Y-65488000D01*
G75*
G02*
X157602000Y-65413000I0J75000D01*
G01*
G37*
G36*
G01*
X157602000Y-64913000D02*
X157602000Y-64763000D01*
G75*
G02*
X157677000Y-64688000I75000J0D01*
G01*
X159002000Y-64688000D01*
G75*
G02*
X159077000Y-64763000I0J-75000D01*
G01*
X159077000Y-64913000D01*
G75*
G02*
X159002000Y-64988000I-75000J0D01*
G01*
X157677000Y-64988000D01*
G75*
G02*
X157602000Y-64913000I0J75000D01*
G01*
G37*
G36*
G01*
X157602000Y-64413000D02*
X157602000Y-64263000D01*
G75*
G02*
X157677000Y-64188000I75000J0D01*
G01*
X159002000Y-64188000D01*
G75*
G02*
X159077000Y-64263000I0J-75000D01*
G01*
X159077000Y-64413000D01*
G75*
G02*
X159002000Y-64488000I-75000J0D01*
G01*
X157677000Y-64488000D01*
G75*
G02*
X157602000Y-64413000I0J75000D01*
G01*
G37*
G36*
G01*
X157602000Y-63913000D02*
X157602000Y-63763000D01*
G75*
G02*
X157677000Y-63688000I75000J0D01*
G01*
X159002000Y-63688000D01*
G75*
G02*
X159077000Y-63763000I0J-75000D01*
G01*
X159077000Y-63913000D01*
G75*
G02*
X159002000Y-63988000I-75000J0D01*
G01*
X157677000Y-63988000D01*
G75*
G02*
X157602000Y-63913000I0J75000D01*
G01*
G37*
G36*
G01*
X157602000Y-63413000D02*
X157602000Y-63263000D01*
G75*
G02*
X157677000Y-63188000I75000J0D01*
G01*
X159002000Y-63188000D01*
G75*
G02*
X159077000Y-63263000I0J-75000D01*
G01*
X159077000Y-63413000D01*
G75*
G02*
X159002000Y-63488000I-75000J0D01*
G01*
X157677000Y-63488000D01*
G75*
G02*
X157602000Y-63413000I0J75000D01*
G01*
G37*
G36*
G01*
X163488500Y-85430500D02*
X163488500Y-85130500D01*
G75*
G02*
X163638500Y-84980500I150000J0D01*
G01*
X165288500Y-84980500D01*
G75*
G02*
X165438500Y-85130500I0J-150000D01*
G01*
X165438500Y-85430500D01*
G75*
G02*
X165288500Y-85580500I-150000J0D01*
G01*
X163638500Y-85580500D01*
G75*
G02*
X163488500Y-85430500I0J150000D01*
G01*
G37*
G36*
G01*
X163488500Y-86700500D02*
X163488500Y-86400500D01*
G75*
G02*
X163638500Y-86250500I150000J0D01*
G01*
X165288500Y-86250500D01*
G75*
G02*
X165438500Y-86400500I0J-150000D01*
G01*
X165438500Y-86700500D01*
G75*
G02*
X165288500Y-86850500I-150000J0D01*
G01*
X163638500Y-86850500D01*
G75*
G02*
X163488500Y-86700500I0J150000D01*
G01*
G37*
G36*
G01*
X163488500Y-87970500D02*
X163488500Y-87670500D01*
G75*
G02*
X163638500Y-87520500I150000J0D01*
G01*
X165288500Y-87520500D01*
G75*
G02*
X165438500Y-87670500I0J-150000D01*
G01*
X165438500Y-87970500D01*
G75*
G02*
X165288500Y-88120500I-150000J0D01*
G01*
X163638500Y-88120500D01*
G75*
G02*
X163488500Y-87970500I0J150000D01*
G01*
G37*
G36*
G01*
X163488500Y-89240500D02*
X163488500Y-88940500D01*
G75*
G02*
X163638500Y-88790500I150000J0D01*
G01*
X165288500Y-88790500D01*
G75*
G02*
X165438500Y-88940500I0J-150000D01*
G01*
X165438500Y-89240500D01*
G75*
G02*
X165288500Y-89390500I-150000J0D01*
G01*
X163638500Y-89390500D01*
G75*
G02*
X163488500Y-89240500I0J150000D01*
G01*
G37*
G36*
G01*
X163488500Y-90510500D02*
X163488500Y-90210500D01*
G75*
G02*
X163638500Y-90060500I150000J0D01*
G01*
X165288500Y-90060500D01*
G75*
G02*
X165438500Y-90210500I0J-150000D01*
G01*
X165438500Y-90510500D01*
G75*
G02*
X165288500Y-90660500I-150000J0D01*
G01*
X163638500Y-90660500D01*
G75*
G02*
X163488500Y-90510500I0J150000D01*
G01*
G37*
G36*
G01*
X163488500Y-91780500D02*
X163488500Y-91480500D01*
G75*
G02*
X163638500Y-91330500I150000J0D01*
G01*
X165288500Y-91330500D01*
G75*
G02*
X165438500Y-91480500I0J-150000D01*
G01*
X165438500Y-91780500D01*
G75*
G02*
X165288500Y-91930500I-150000J0D01*
G01*
X163638500Y-91930500D01*
G75*
G02*
X163488500Y-91780500I0J150000D01*
G01*
G37*
G36*
G01*
X163488500Y-93050500D02*
X163488500Y-92750500D01*
G75*
G02*
X163638500Y-92600500I150000J0D01*
G01*
X165288500Y-92600500D01*
G75*
G02*
X165438500Y-92750500I0J-150000D01*
G01*
X165438500Y-93050500D01*
G75*
G02*
X165288500Y-93200500I-150000J0D01*
G01*
X163638500Y-93200500D01*
G75*
G02*
X163488500Y-93050500I0J150000D01*
G01*
G37*
G36*
G01*
X158538500Y-93050500D02*
X158538500Y-92750500D01*
G75*
G02*
X158688500Y-92600500I150000J0D01*
G01*
X160338500Y-92600500D01*
G75*
G02*
X160488500Y-92750500I0J-150000D01*
G01*
X160488500Y-93050500D01*
G75*
G02*
X160338500Y-93200500I-150000J0D01*
G01*
X158688500Y-93200500D01*
G75*
G02*
X158538500Y-93050500I0J150000D01*
G01*
G37*
G36*
G01*
X158538500Y-91780500D02*
X158538500Y-91480500D01*
G75*
G02*
X158688500Y-91330500I150000J0D01*
G01*
X160338500Y-91330500D01*
G75*
G02*
X160488500Y-91480500I0J-150000D01*
G01*
X160488500Y-91780500D01*
G75*
G02*
X160338500Y-91930500I-150000J0D01*
G01*
X158688500Y-91930500D01*
G75*
G02*
X158538500Y-91780500I0J150000D01*
G01*
G37*
G36*
G01*
X158538500Y-90510500D02*
X158538500Y-90210500D01*
G75*
G02*
X158688500Y-90060500I150000J0D01*
G01*
X160338500Y-90060500D01*
G75*
G02*
X160488500Y-90210500I0J-150000D01*
G01*
X160488500Y-90510500D01*
G75*
G02*
X160338500Y-90660500I-150000J0D01*
G01*
X158688500Y-90660500D01*
G75*
G02*
X158538500Y-90510500I0J150000D01*
G01*
G37*
G36*
G01*
X158538500Y-89240500D02*
X158538500Y-88940500D01*
G75*
G02*
X158688500Y-88790500I150000J0D01*
G01*
X160338500Y-88790500D01*
G75*
G02*
X160488500Y-88940500I0J-150000D01*
G01*
X160488500Y-89240500D01*
G75*
G02*
X160338500Y-89390500I-150000J0D01*
G01*
X158688500Y-89390500D01*
G75*
G02*
X158538500Y-89240500I0J150000D01*
G01*
G37*
G36*
G01*
X158538500Y-87970500D02*
X158538500Y-87670500D01*
G75*
G02*
X158688500Y-87520500I150000J0D01*
G01*
X160338500Y-87520500D01*
G75*
G02*
X160488500Y-87670500I0J-150000D01*
G01*
X160488500Y-87970500D01*
G75*
G02*
X160338500Y-88120500I-150000J0D01*
G01*
X158688500Y-88120500D01*
G75*
G02*
X158538500Y-87970500I0J150000D01*
G01*
G37*
G36*
G01*
X158538500Y-86700500D02*
X158538500Y-86400500D01*
G75*
G02*
X158688500Y-86250500I150000J0D01*
G01*
X160338500Y-86250500D01*
G75*
G02*
X160488500Y-86400500I0J-150000D01*
G01*
X160488500Y-86700500D01*
G75*
G02*
X160338500Y-86850500I-150000J0D01*
G01*
X158688500Y-86850500D01*
G75*
G02*
X158538500Y-86700500I0J150000D01*
G01*
G37*
G36*
G01*
X158538500Y-85430500D02*
X158538500Y-85130500D01*
G75*
G02*
X158688500Y-84980500I150000J0D01*
G01*
X160338500Y-84980500D01*
G75*
G02*
X160488500Y-85130500I0J-150000D01*
G01*
X160488500Y-85430500D01*
G75*
G02*
X160338500Y-85580500I-150000J0D01*
G01*
X158688500Y-85580500D01*
G75*
G02*
X158538500Y-85430500I0J150000D01*
G01*
G37*
G36*
G01*
X165027000Y-103418000D02*
X165027000Y-103268000D01*
G75*
G02*
X165102000Y-103193000I75000J0D01*
G01*
X166427000Y-103193000D01*
G75*
G02*
X166502000Y-103268000I0J-75000D01*
G01*
X166502000Y-103418000D01*
G75*
G02*
X166427000Y-103493000I-75000J0D01*
G01*
X165102000Y-103493000D01*
G75*
G02*
X165027000Y-103418000I0J75000D01*
G01*
G37*
G36*
G01*
X165027000Y-103918000D02*
X165027000Y-103768000D01*
G75*
G02*
X165102000Y-103693000I75000J0D01*
G01*
X166427000Y-103693000D01*
G75*
G02*
X166502000Y-103768000I0J-75000D01*
G01*
X166502000Y-103918000D01*
G75*
G02*
X166427000Y-103993000I-75000J0D01*
G01*
X165102000Y-103993000D01*
G75*
G02*
X165027000Y-103918000I0J75000D01*
G01*
G37*
G36*
G01*
X165027000Y-104418000D02*
X165027000Y-104268000D01*
G75*
G02*
X165102000Y-104193000I75000J0D01*
G01*
X166427000Y-104193000D01*
G75*
G02*
X166502000Y-104268000I0J-75000D01*
G01*
X166502000Y-104418000D01*
G75*
G02*
X166427000Y-104493000I-75000J0D01*
G01*
X165102000Y-104493000D01*
G75*
G02*
X165027000Y-104418000I0J75000D01*
G01*
G37*
G36*
G01*
X165027000Y-104918000D02*
X165027000Y-104768000D01*
G75*
G02*
X165102000Y-104693000I75000J0D01*
G01*
X166427000Y-104693000D01*
G75*
G02*
X166502000Y-104768000I0J-75000D01*
G01*
X166502000Y-104918000D01*
G75*
G02*
X166427000Y-104993000I-75000J0D01*
G01*
X165102000Y-104993000D01*
G75*
G02*
X165027000Y-104918000I0J75000D01*
G01*
G37*
G36*
G01*
X165027000Y-105418000D02*
X165027000Y-105268000D01*
G75*
G02*
X165102000Y-105193000I75000J0D01*
G01*
X166427000Y-105193000D01*
G75*
G02*
X166502000Y-105268000I0J-75000D01*
G01*
X166502000Y-105418000D01*
G75*
G02*
X166427000Y-105493000I-75000J0D01*
G01*
X165102000Y-105493000D01*
G75*
G02*
X165027000Y-105418000I0J75000D01*
G01*
G37*
G36*
G01*
X165027000Y-105918000D02*
X165027000Y-105768000D01*
G75*
G02*
X165102000Y-105693000I75000J0D01*
G01*
X166427000Y-105693000D01*
G75*
G02*
X166502000Y-105768000I0J-75000D01*
G01*
X166502000Y-105918000D01*
G75*
G02*
X166427000Y-105993000I-75000J0D01*
G01*
X165102000Y-105993000D01*
G75*
G02*
X165027000Y-105918000I0J75000D01*
G01*
G37*
G36*
G01*
X165027000Y-106418000D02*
X165027000Y-106268000D01*
G75*
G02*
X165102000Y-106193000I75000J0D01*
G01*
X166427000Y-106193000D01*
G75*
G02*
X166502000Y-106268000I0J-75000D01*
G01*
X166502000Y-106418000D01*
G75*
G02*
X166427000Y-106493000I-75000J0D01*
G01*
X165102000Y-106493000D01*
G75*
G02*
X165027000Y-106418000I0J75000D01*
G01*
G37*
G36*
G01*
X165027000Y-106918000D02*
X165027000Y-106768000D01*
G75*
G02*
X165102000Y-106693000I75000J0D01*
G01*
X166427000Y-106693000D01*
G75*
G02*
X166502000Y-106768000I0J-75000D01*
G01*
X166502000Y-106918000D01*
G75*
G02*
X166427000Y-106993000I-75000J0D01*
G01*
X165102000Y-106993000D01*
G75*
G02*
X165027000Y-106918000I0J75000D01*
G01*
G37*
G36*
G01*
X165027000Y-107418000D02*
X165027000Y-107268000D01*
G75*
G02*
X165102000Y-107193000I75000J0D01*
G01*
X166427000Y-107193000D01*
G75*
G02*
X166502000Y-107268000I0J-75000D01*
G01*
X166502000Y-107418000D01*
G75*
G02*
X166427000Y-107493000I-75000J0D01*
G01*
X165102000Y-107493000D01*
G75*
G02*
X165027000Y-107418000I0J75000D01*
G01*
G37*
G36*
G01*
X165027000Y-107918000D02*
X165027000Y-107768000D01*
G75*
G02*
X165102000Y-107693000I75000J0D01*
G01*
X166427000Y-107693000D01*
G75*
G02*
X166502000Y-107768000I0J-75000D01*
G01*
X166502000Y-107918000D01*
G75*
G02*
X166427000Y-107993000I-75000J0D01*
G01*
X165102000Y-107993000D01*
G75*
G02*
X165027000Y-107918000I0J75000D01*
G01*
G37*
G36*
G01*
X165027000Y-108418000D02*
X165027000Y-108268000D01*
G75*
G02*
X165102000Y-108193000I75000J0D01*
G01*
X166427000Y-108193000D01*
G75*
G02*
X166502000Y-108268000I0J-75000D01*
G01*
X166502000Y-108418000D01*
G75*
G02*
X166427000Y-108493000I-75000J0D01*
G01*
X165102000Y-108493000D01*
G75*
G02*
X165027000Y-108418000I0J75000D01*
G01*
G37*
G36*
G01*
X165027000Y-108918000D02*
X165027000Y-108768000D01*
G75*
G02*
X165102000Y-108693000I75000J0D01*
G01*
X166427000Y-108693000D01*
G75*
G02*
X166502000Y-108768000I0J-75000D01*
G01*
X166502000Y-108918000D01*
G75*
G02*
X166427000Y-108993000I-75000J0D01*
G01*
X165102000Y-108993000D01*
G75*
G02*
X165027000Y-108918000I0J75000D01*
G01*
G37*
G36*
G01*
X165027000Y-109418000D02*
X165027000Y-109268000D01*
G75*
G02*
X165102000Y-109193000I75000J0D01*
G01*
X166427000Y-109193000D01*
G75*
G02*
X166502000Y-109268000I0J-75000D01*
G01*
X166502000Y-109418000D01*
G75*
G02*
X166427000Y-109493000I-75000J0D01*
G01*
X165102000Y-109493000D01*
G75*
G02*
X165027000Y-109418000I0J75000D01*
G01*
G37*
G36*
G01*
X165027000Y-109918000D02*
X165027000Y-109768000D01*
G75*
G02*
X165102000Y-109693000I75000J0D01*
G01*
X166427000Y-109693000D01*
G75*
G02*
X166502000Y-109768000I0J-75000D01*
G01*
X166502000Y-109918000D01*
G75*
G02*
X166427000Y-109993000I-75000J0D01*
G01*
X165102000Y-109993000D01*
G75*
G02*
X165027000Y-109918000I0J75000D01*
G01*
G37*
G36*
G01*
X165027000Y-110418000D02*
X165027000Y-110268000D01*
G75*
G02*
X165102000Y-110193000I75000J0D01*
G01*
X166427000Y-110193000D01*
G75*
G02*
X166502000Y-110268000I0J-75000D01*
G01*
X166502000Y-110418000D01*
G75*
G02*
X166427000Y-110493000I-75000J0D01*
G01*
X165102000Y-110493000D01*
G75*
G02*
X165027000Y-110418000I0J75000D01*
G01*
G37*
G36*
G01*
X165027000Y-110918000D02*
X165027000Y-110768000D01*
G75*
G02*
X165102000Y-110693000I75000J0D01*
G01*
X166427000Y-110693000D01*
G75*
G02*
X166502000Y-110768000I0J-75000D01*
G01*
X166502000Y-110918000D01*
G75*
G02*
X166427000Y-110993000I-75000J0D01*
G01*
X165102000Y-110993000D01*
G75*
G02*
X165027000Y-110918000I0J75000D01*
G01*
G37*
G36*
G01*
X165027000Y-111418000D02*
X165027000Y-111268000D01*
G75*
G02*
X165102000Y-111193000I75000J0D01*
G01*
X166427000Y-111193000D01*
G75*
G02*
X166502000Y-111268000I0J-75000D01*
G01*
X166502000Y-111418000D01*
G75*
G02*
X166427000Y-111493000I-75000J0D01*
G01*
X165102000Y-111493000D01*
G75*
G02*
X165027000Y-111418000I0J75000D01*
G01*
G37*
G36*
G01*
X165027000Y-111918000D02*
X165027000Y-111768000D01*
G75*
G02*
X165102000Y-111693000I75000J0D01*
G01*
X166427000Y-111693000D01*
G75*
G02*
X166502000Y-111768000I0J-75000D01*
G01*
X166502000Y-111918000D01*
G75*
G02*
X166427000Y-111993000I-75000J0D01*
G01*
X165102000Y-111993000D01*
G75*
G02*
X165027000Y-111918000I0J75000D01*
G01*
G37*
G36*
G01*
X165027000Y-112418000D02*
X165027000Y-112268000D01*
G75*
G02*
X165102000Y-112193000I75000J0D01*
G01*
X166427000Y-112193000D01*
G75*
G02*
X166502000Y-112268000I0J-75000D01*
G01*
X166502000Y-112418000D01*
G75*
G02*
X166427000Y-112493000I-75000J0D01*
G01*
X165102000Y-112493000D01*
G75*
G02*
X165027000Y-112418000I0J75000D01*
G01*
G37*
G36*
G01*
X165027000Y-112918000D02*
X165027000Y-112768000D01*
G75*
G02*
X165102000Y-112693000I75000J0D01*
G01*
X166427000Y-112693000D01*
G75*
G02*
X166502000Y-112768000I0J-75000D01*
G01*
X166502000Y-112918000D01*
G75*
G02*
X166427000Y-112993000I-75000J0D01*
G01*
X165102000Y-112993000D01*
G75*
G02*
X165027000Y-112918000I0J75000D01*
G01*
G37*
G36*
G01*
X165027000Y-113418000D02*
X165027000Y-113268000D01*
G75*
G02*
X165102000Y-113193000I75000J0D01*
G01*
X166427000Y-113193000D01*
G75*
G02*
X166502000Y-113268000I0J-75000D01*
G01*
X166502000Y-113418000D01*
G75*
G02*
X166427000Y-113493000I-75000J0D01*
G01*
X165102000Y-113493000D01*
G75*
G02*
X165027000Y-113418000I0J75000D01*
G01*
G37*
G36*
G01*
X165027000Y-113918000D02*
X165027000Y-113768000D01*
G75*
G02*
X165102000Y-113693000I75000J0D01*
G01*
X166427000Y-113693000D01*
G75*
G02*
X166502000Y-113768000I0J-75000D01*
G01*
X166502000Y-113918000D01*
G75*
G02*
X166427000Y-113993000I-75000J0D01*
G01*
X165102000Y-113993000D01*
G75*
G02*
X165027000Y-113918000I0J75000D01*
G01*
G37*
G36*
G01*
X165027000Y-114418000D02*
X165027000Y-114268000D01*
G75*
G02*
X165102000Y-114193000I75000J0D01*
G01*
X166427000Y-114193000D01*
G75*
G02*
X166502000Y-114268000I0J-75000D01*
G01*
X166502000Y-114418000D01*
G75*
G02*
X166427000Y-114493000I-75000J0D01*
G01*
X165102000Y-114493000D01*
G75*
G02*
X165027000Y-114418000I0J75000D01*
G01*
G37*
G36*
G01*
X165027000Y-114918000D02*
X165027000Y-114768000D01*
G75*
G02*
X165102000Y-114693000I75000J0D01*
G01*
X166427000Y-114693000D01*
G75*
G02*
X166502000Y-114768000I0J-75000D01*
G01*
X166502000Y-114918000D01*
G75*
G02*
X166427000Y-114993000I-75000J0D01*
G01*
X165102000Y-114993000D01*
G75*
G02*
X165027000Y-114918000I0J75000D01*
G01*
G37*
G36*
G01*
X157602000Y-114918000D02*
X157602000Y-114768000D01*
G75*
G02*
X157677000Y-114693000I75000J0D01*
G01*
X159002000Y-114693000D01*
G75*
G02*
X159077000Y-114768000I0J-75000D01*
G01*
X159077000Y-114918000D01*
G75*
G02*
X159002000Y-114993000I-75000J0D01*
G01*
X157677000Y-114993000D01*
G75*
G02*
X157602000Y-114918000I0J75000D01*
G01*
G37*
G36*
G01*
X157602000Y-114418000D02*
X157602000Y-114268000D01*
G75*
G02*
X157677000Y-114193000I75000J0D01*
G01*
X159002000Y-114193000D01*
G75*
G02*
X159077000Y-114268000I0J-75000D01*
G01*
X159077000Y-114418000D01*
G75*
G02*
X159002000Y-114493000I-75000J0D01*
G01*
X157677000Y-114493000D01*
G75*
G02*
X157602000Y-114418000I0J75000D01*
G01*
G37*
G36*
G01*
X157602000Y-113918000D02*
X157602000Y-113768000D01*
G75*
G02*
X157677000Y-113693000I75000J0D01*
G01*
X159002000Y-113693000D01*
G75*
G02*
X159077000Y-113768000I0J-75000D01*
G01*
X159077000Y-113918000D01*
G75*
G02*
X159002000Y-113993000I-75000J0D01*
G01*
X157677000Y-113993000D01*
G75*
G02*
X157602000Y-113918000I0J75000D01*
G01*
G37*
G36*
G01*
X157602000Y-113418000D02*
X157602000Y-113268000D01*
G75*
G02*
X157677000Y-113193000I75000J0D01*
G01*
X159002000Y-113193000D01*
G75*
G02*
X159077000Y-113268000I0J-75000D01*
G01*
X159077000Y-113418000D01*
G75*
G02*
X159002000Y-113493000I-75000J0D01*
G01*
X157677000Y-113493000D01*
G75*
G02*
X157602000Y-113418000I0J75000D01*
G01*
G37*
G36*
G01*
X157602000Y-112918000D02*
X157602000Y-112768000D01*
G75*
G02*
X157677000Y-112693000I75000J0D01*
G01*
X159002000Y-112693000D01*
G75*
G02*
X159077000Y-112768000I0J-75000D01*
G01*
X159077000Y-112918000D01*
G75*
G02*
X159002000Y-112993000I-75000J0D01*
G01*
X157677000Y-112993000D01*
G75*
G02*
X157602000Y-112918000I0J75000D01*
G01*
G37*
G36*
G01*
X157602000Y-112418000D02*
X157602000Y-112268000D01*
G75*
G02*
X157677000Y-112193000I75000J0D01*
G01*
X159002000Y-112193000D01*
G75*
G02*
X159077000Y-112268000I0J-75000D01*
G01*
X159077000Y-112418000D01*
G75*
G02*
X159002000Y-112493000I-75000J0D01*
G01*
X157677000Y-112493000D01*
G75*
G02*
X157602000Y-112418000I0J75000D01*
G01*
G37*
G36*
G01*
X157602000Y-111918000D02*
X157602000Y-111768000D01*
G75*
G02*
X157677000Y-111693000I75000J0D01*
G01*
X159002000Y-111693000D01*
G75*
G02*
X159077000Y-111768000I0J-75000D01*
G01*
X159077000Y-111918000D01*
G75*
G02*
X159002000Y-111993000I-75000J0D01*
G01*
X157677000Y-111993000D01*
G75*
G02*
X157602000Y-111918000I0J75000D01*
G01*
G37*
G36*
G01*
X157602000Y-111418000D02*
X157602000Y-111268000D01*
G75*
G02*
X157677000Y-111193000I75000J0D01*
G01*
X159002000Y-111193000D01*
G75*
G02*
X159077000Y-111268000I0J-75000D01*
G01*
X159077000Y-111418000D01*
G75*
G02*
X159002000Y-111493000I-75000J0D01*
G01*
X157677000Y-111493000D01*
G75*
G02*
X157602000Y-111418000I0J75000D01*
G01*
G37*
G36*
G01*
X157602000Y-110918000D02*
X157602000Y-110768000D01*
G75*
G02*
X157677000Y-110693000I75000J0D01*
G01*
X159002000Y-110693000D01*
G75*
G02*
X159077000Y-110768000I0J-75000D01*
G01*
X159077000Y-110918000D01*
G75*
G02*
X159002000Y-110993000I-75000J0D01*
G01*
X157677000Y-110993000D01*
G75*
G02*
X157602000Y-110918000I0J75000D01*
G01*
G37*
G36*
G01*
X157602000Y-110418000D02*
X157602000Y-110268000D01*
G75*
G02*
X157677000Y-110193000I75000J0D01*
G01*
X159002000Y-110193000D01*
G75*
G02*
X159077000Y-110268000I0J-75000D01*
G01*
X159077000Y-110418000D01*
G75*
G02*
X159002000Y-110493000I-75000J0D01*
G01*
X157677000Y-110493000D01*
G75*
G02*
X157602000Y-110418000I0J75000D01*
G01*
G37*
G36*
G01*
X157602000Y-109918000D02*
X157602000Y-109768000D01*
G75*
G02*
X157677000Y-109693000I75000J0D01*
G01*
X159002000Y-109693000D01*
G75*
G02*
X159077000Y-109768000I0J-75000D01*
G01*
X159077000Y-109918000D01*
G75*
G02*
X159002000Y-109993000I-75000J0D01*
G01*
X157677000Y-109993000D01*
G75*
G02*
X157602000Y-109918000I0J75000D01*
G01*
G37*
G36*
G01*
X157602000Y-109418000D02*
X157602000Y-109268000D01*
G75*
G02*
X157677000Y-109193000I75000J0D01*
G01*
X159002000Y-109193000D01*
G75*
G02*
X159077000Y-109268000I0J-75000D01*
G01*
X159077000Y-109418000D01*
G75*
G02*
X159002000Y-109493000I-75000J0D01*
G01*
X157677000Y-109493000D01*
G75*
G02*
X157602000Y-109418000I0J75000D01*
G01*
G37*
G36*
G01*
X157602000Y-108918000D02*
X157602000Y-108768000D01*
G75*
G02*
X157677000Y-108693000I75000J0D01*
G01*
X159002000Y-108693000D01*
G75*
G02*
X159077000Y-108768000I0J-75000D01*
G01*
X159077000Y-108918000D01*
G75*
G02*
X159002000Y-108993000I-75000J0D01*
G01*
X157677000Y-108993000D01*
G75*
G02*
X157602000Y-108918000I0J75000D01*
G01*
G37*
G36*
G01*
X157602000Y-108418000D02*
X157602000Y-108268000D01*
G75*
G02*
X157677000Y-108193000I75000J0D01*
G01*
X159002000Y-108193000D01*
G75*
G02*
X159077000Y-108268000I0J-75000D01*
G01*
X159077000Y-108418000D01*
G75*
G02*
X159002000Y-108493000I-75000J0D01*
G01*
X157677000Y-108493000D01*
G75*
G02*
X157602000Y-108418000I0J75000D01*
G01*
G37*
G36*
G01*
X157602000Y-107918000D02*
X157602000Y-107768000D01*
G75*
G02*
X157677000Y-107693000I75000J0D01*
G01*
X159002000Y-107693000D01*
G75*
G02*
X159077000Y-107768000I0J-75000D01*
G01*
X159077000Y-107918000D01*
G75*
G02*
X159002000Y-107993000I-75000J0D01*
G01*
X157677000Y-107993000D01*
G75*
G02*
X157602000Y-107918000I0J75000D01*
G01*
G37*
G36*
G01*
X157602000Y-107418000D02*
X157602000Y-107268000D01*
G75*
G02*
X157677000Y-107193000I75000J0D01*
G01*
X159002000Y-107193000D01*
G75*
G02*
X159077000Y-107268000I0J-75000D01*
G01*
X159077000Y-107418000D01*
G75*
G02*
X159002000Y-107493000I-75000J0D01*
G01*
X157677000Y-107493000D01*
G75*
G02*
X157602000Y-107418000I0J75000D01*
G01*
G37*
G36*
G01*
X157602000Y-106918000D02*
X157602000Y-106768000D01*
G75*
G02*
X157677000Y-106693000I75000J0D01*
G01*
X159002000Y-106693000D01*
G75*
G02*
X159077000Y-106768000I0J-75000D01*
G01*
X159077000Y-106918000D01*
G75*
G02*
X159002000Y-106993000I-75000J0D01*
G01*
X157677000Y-106993000D01*
G75*
G02*
X157602000Y-106918000I0J75000D01*
G01*
G37*
G36*
G01*
X157602000Y-106418000D02*
X157602000Y-106268000D01*
G75*
G02*
X157677000Y-106193000I75000J0D01*
G01*
X159002000Y-106193000D01*
G75*
G02*
X159077000Y-106268000I0J-75000D01*
G01*
X159077000Y-106418000D01*
G75*
G02*
X159002000Y-106493000I-75000J0D01*
G01*
X157677000Y-106493000D01*
G75*
G02*
X157602000Y-106418000I0J75000D01*
G01*
G37*
G36*
G01*
X157602000Y-105918000D02*
X157602000Y-105768000D01*
G75*
G02*
X157677000Y-105693000I75000J0D01*
G01*
X159002000Y-105693000D01*
G75*
G02*
X159077000Y-105768000I0J-75000D01*
G01*
X159077000Y-105918000D01*
G75*
G02*
X159002000Y-105993000I-75000J0D01*
G01*
X157677000Y-105993000D01*
G75*
G02*
X157602000Y-105918000I0J75000D01*
G01*
G37*
G36*
G01*
X157602000Y-105418000D02*
X157602000Y-105268000D01*
G75*
G02*
X157677000Y-105193000I75000J0D01*
G01*
X159002000Y-105193000D01*
G75*
G02*
X159077000Y-105268000I0J-75000D01*
G01*
X159077000Y-105418000D01*
G75*
G02*
X159002000Y-105493000I-75000J0D01*
G01*
X157677000Y-105493000D01*
G75*
G02*
X157602000Y-105418000I0J75000D01*
G01*
G37*
G36*
G01*
X157602000Y-104918000D02*
X157602000Y-104768000D01*
G75*
G02*
X157677000Y-104693000I75000J0D01*
G01*
X159002000Y-104693000D01*
G75*
G02*
X159077000Y-104768000I0J-75000D01*
G01*
X159077000Y-104918000D01*
G75*
G02*
X159002000Y-104993000I-75000J0D01*
G01*
X157677000Y-104993000D01*
G75*
G02*
X157602000Y-104918000I0J75000D01*
G01*
G37*
G36*
G01*
X157602000Y-104418000D02*
X157602000Y-104268000D01*
G75*
G02*
X157677000Y-104193000I75000J0D01*
G01*
X159002000Y-104193000D01*
G75*
G02*
X159077000Y-104268000I0J-75000D01*
G01*
X159077000Y-104418000D01*
G75*
G02*
X159002000Y-104493000I-75000J0D01*
G01*
X157677000Y-104493000D01*
G75*
G02*
X157602000Y-104418000I0J75000D01*
G01*
G37*
G36*
G01*
X157602000Y-103918000D02*
X157602000Y-103768000D01*
G75*
G02*
X157677000Y-103693000I75000J0D01*
G01*
X159002000Y-103693000D01*
G75*
G02*
X159077000Y-103768000I0J-75000D01*
G01*
X159077000Y-103918000D01*
G75*
G02*
X159002000Y-103993000I-75000J0D01*
G01*
X157677000Y-103993000D01*
G75*
G02*
X157602000Y-103918000I0J75000D01*
G01*
G37*
G36*
G01*
X157602000Y-103418000D02*
X157602000Y-103268000D01*
G75*
G02*
X157677000Y-103193000I75000J0D01*
G01*
X159002000Y-103193000D01*
G75*
G02*
X159077000Y-103268000I0J-75000D01*
G01*
X159077000Y-103418000D01*
G75*
G02*
X159002000Y-103493000I-75000J0D01*
G01*
X157677000Y-103493000D01*
G75*
G02*
X157602000Y-103418000I0J75000D01*
G01*
G37*
M02*
