%FSLAX45Y45*%
G04 Gerber Fmt 4.5, Leading zero omitted, Abs format (unit mm)*
G04 Created by KiCad (PCBNEW 5.1.10) date 2021-08-30 11:46:24*
%MOMM*%
%LPD*%
G01*
G04 APERTURE LIST*
%TA.AperFunction,Profile*%
%ADD10C,0.050000*%
%TD*%
%ADD11C,0.200000*%
%ADD12C,0.300000*%
G04 APERTURE END LIST*
D10*
X12274550Y-5568950D02*
X17970500Y-5568950D01*
X12274550Y-13925550D02*
X17970500Y-13925550D01*
X12274550Y-5568950D02*
X12274550Y-13925550D01*
X17970500Y-5568950D02*
X17970500Y-13925550D01*
D11*
X12697700Y-9535400D02*
X12727700Y-9565400D01*
X12727700Y-9535400D02*
X12697700Y-9565400D01*
X13040600Y-9090900D02*
X13070600Y-9120900D01*
X13070600Y-9090900D02*
X13040600Y-9120900D01*
X14209000Y-9598900D02*
X14239000Y-9628900D01*
X14239000Y-9598900D02*
X14209000Y-9628900D01*
X15390100Y-12265900D02*
X15420100Y-12295900D01*
X15420100Y-12265900D02*
X15390100Y-12295900D01*
X15390100Y-12519900D02*
X15420100Y-12549900D01*
X15420100Y-12519900D02*
X15390100Y-12549900D01*
X15390100Y-12773900D02*
X15420100Y-12803900D01*
X15420100Y-12773900D02*
X15390100Y-12803900D01*
X15466300Y-8982950D02*
X15496300Y-9012950D01*
X15496300Y-8982950D02*
X15466300Y-9012950D01*
X15466300Y-9116300D02*
X15496300Y-9146300D01*
X15496300Y-9116300D02*
X15466300Y-9146300D01*
X15517100Y-8919450D02*
X15547100Y-8949450D01*
X15547100Y-8919450D02*
X15517100Y-8949450D01*
X15517100Y-9046450D02*
X15547100Y-9076450D01*
X15547100Y-9046450D02*
X15517100Y-9076450D01*
X15522869Y-9176670D02*
X15552869Y-9206670D01*
X15552869Y-9176670D02*
X15522869Y-9206670D01*
X15656800Y-8633700D02*
X15686800Y-8663700D01*
X15686800Y-8633700D02*
X15656800Y-8663700D01*
X15694900Y-6150850D02*
X15724900Y-6180850D01*
X15724900Y-6150850D02*
X15694900Y-6180850D01*
X15694900Y-9637000D02*
X15724900Y-9667000D01*
X15724900Y-9637000D02*
X15694900Y-9667000D01*
X15694900Y-10151350D02*
X15724900Y-10181350D01*
X15724900Y-10151350D02*
X15694900Y-10181350D01*
X15701250Y-12151600D02*
X15731250Y-12181600D01*
X15731250Y-12151600D02*
X15701250Y-12181600D01*
X15961600Y-6468350D02*
X15991600Y-6498350D01*
X15991600Y-6468350D02*
X15961600Y-6498350D01*
X15961600Y-6620750D02*
X15991600Y-6650750D01*
X15991600Y-6620750D02*
X15961600Y-6650750D01*
X15961600Y-6766800D02*
X15991600Y-6796800D01*
X15991600Y-6766800D02*
X15961600Y-6796800D01*
X15961600Y-6893800D02*
X15991600Y-6923800D01*
X15991600Y-6893800D02*
X15961600Y-6923800D01*
X15961600Y-7020800D02*
X15991600Y-7050800D01*
X15991600Y-7020800D02*
X15961600Y-7050800D01*
X15961600Y-7173200D02*
X15991600Y-7203200D01*
X15991600Y-7173200D02*
X15961600Y-7203200D01*
X15961600Y-7319250D02*
X15991600Y-7349250D01*
X15991600Y-7319250D02*
X15961600Y-7349250D01*
X15961600Y-9471900D02*
X15991600Y-9501900D01*
X15991600Y-9471900D02*
X15961600Y-9501900D01*
X15961600Y-10316450D02*
X15991600Y-10346450D01*
X15991600Y-10316450D02*
X15961600Y-10346450D01*
X15961600Y-10468850D02*
X15991600Y-10498850D01*
X15991600Y-10468850D02*
X15961600Y-10498850D01*
X15961600Y-10621250D02*
X15991600Y-10651250D01*
X15991600Y-10621250D02*
X15961600Y-10651250D01*
X15961600Y-10767300D02*
X15991600Y-10797300D01*
X15991600Y-10767300D02*
X15961600Y-10797300D01*
X15961600Y-10894300D02*
X15991600Y-10924300D01*
X15991600Y-10894300D02*
X15961600Y-10924300D01*
X15961600Y-11021300D02*
X15991600Y-11051300D01*
X15991600Y-11021300D02*
X15961600Y-11051300D01*
X15961600Y-11173700D02*
X15991600Y-11203700D01*
X15991600Y-11173700D02*
X15961600Y-11203700D01*
X15961600Y-11319750D02*
X15991600Y-11349750D01*
X15991600Y-11319750D02*
X15961600Y-11349750D01*
X15961600Y-11465800D02*
X15991600Y-11495800D01*
X15991600Y-11465800D02*
X15961600Y-11495800D01*
X15961600Y-12323050D02*
X15991600Y-12353050D01*
X15991600Y-12323050D02*
X15961600Y-12353050D01*
X15961600Y-12469100D02*
X15991600Y-12499100D01*
X15991600Y-12469100D02*
X15961600Y-12499100D01*
X15961600Y-12621500D02*
X15991600Y-12651500D01*
X15991600Y-12621500D02*
X15961600Y-12651500D01*
X15961600Y-12767550D02*
X15991600Y-12797550D01*
X15991600Y-12767550D02*
X15961600Y-12797550D01*
X15961600Y-13021550D02*
X15991600Y-13051550D01*
X15991600Y-13021550D02*
X15961600Y-13051550D01*
X15961600Y-13167600D02*
X15991600Y-13197600D01*
X15991600Y-13167600D02*
X15961600Y-13197600D01*
X15961600Y-13320000D02*
X15991600Y-13350000D01*
X15991600Y-13320000D02*
X15961600Y-13350000D01*
X15961600Y-13472400D02*
X15991600Y-13502400D01*
X15991600Y-13472400D02*
X15961600Y-13502400D01*
X15993350Y-8354300D02*
X16023350Y-8384300D01*
X16023350Y-8354300D02*
X15993350Y-8384300D01*
X16082250Y-6150850D02*
X16112250Y-6180850D01*
X16112250Y-6150850D02*
X16082250Y-6180850D01*
X16082250Y-9637000D02*
X16112250Y-9667000D01*
X16112250Y-9637000D02*
X16082250Y-9667000D01*
X16082250Y-10151350D02*
X16112250Y-10181350D01*
X16112250Y-10151350D02*
X16082250Y-10181350D01*
X16088600Y-8640050D02*
X16118600Y-8670050D01*
X16118600Y-8640050D02*
X16088600Y-8670050D01*
X16088600Y-8767050D02*
X16118600Y-8797050D01*
X16118600Y-8767050D02*
X16088600Y-8797050D01*
X16088600Y-8894050D02*
X16118600Y-8924050D01*
X16118600Y-8894050D02*
X16088600Y-8924050D01*
X16088600Y-12151600D02*
X16118600Y-12181600D01*
X16118600Y-12151600D02*
X16088600Y-12181600D01*
X16114000Y-9275050D02*
X16144000Y-9305050D01*
X16144000Y-9275050D02*
X16114000Y-9305050D01*
X16279100Y-8767050D02*
X16309100Y-8797050D01*
X16309100Y-8767050D02*
X16279100Y-8797050D01*
X16279100Y-9275050D02*
X16309100Y-9305050D01*
X16309100Y-9275050D02*
X16279100Y-9305050D01*
X16283450Y-9019050D02*
X16313450Y-9049050D01*
X16313450Y-9019050D02*
X16283450Y-9049050D01*
X16285450Y-8513050D02*
X16315450Y-8543050D01*
X16315450Y-8513050D02*
X16285450Y-8543050D01*
X16285450Y-8640050D02*
X16315450Y-8670050D01*
X16315450Y-8640050D02*
X16285450Y-8670050D01*
X16285450Y-8894050D02*
X16315450Y-8924050D01*
X16315450Y-8894050D02*
X16285450Y-8924050D01*
X16285450Y-9148050D02*
X16315450Y-9178050D01*
X16315450Y-9148050D02*
X16285450Y-9178050D01*
X16291800Y-6150850D02*
X16321800Y-6180850D01*
X16321800Y-6150850D02*
X16291800Y-6180850D01*
X16291800Y-9637000D02*
X16321800Y-9667000D01*
X16321800Y-9637000D02*
X16291800Y-9667000D01*
X16291800Y-10151350D02*
X16321800Y-10181350D01*
X16321800Y-10151350D02*
X16291800Y-10181350D01*
X16291800Y-12151600D02*
X16321800Y-12181600D01*
X16321800Y-12151600D02*
X16291800Y-12181600D01*
X16374350Y-8354300D02*
X16404350Y-8384300D01*
X16404350Y-8354300D02*
X16374350Y-8384300D01*
X16418800Y-6322300D02*
X16448800Y-6352300D01*
X16448800Y-6322300D02*
X16418800Y-6352300D01*
X16418800Y-6468350D02*
X16448800Y-6498350D01*
X16448800Y-6468350D02*
X16418800Y-6498350D01*
X16418800Y-6620750D02*
X16448800Y-6650750D01*
X16448800Y-6620750D02*
X16418800Y-6650750D01*
X16418800Y-6766800D02*
X16448800Y-6796800D01*
X16448800Y-6766800D02*
X16418800Y-6796800D01*
X16418800Y-7020800D02*
X16448800Y-7050800D01*
X16448800Y-7020800D02*
X16418800Y-7050800D01*
X16418800Y-7166850D02*
X16448800Y-7196850D01*
X16448800Y-7166850D02*
X16418800Y-7196850D01*
X16418800Y-7319250D02*
X16448800Y-7349250D01*
X16448800Y-7319250D02*
X16418800Y-7349250D01*
X16418800Y-7471650D02*
X16448800Y-7501650D01*
X16448800Y-7471650D02*
X16418800Y-7501650D01*
X16418800Y-9471900D02*
X16448800Y-9501900D01*
X16448800Y-9471900D02*
X16418800Y-9501900D01*
X16418800Y-10322800D02*
X16448800Y-10352800D01*
X16448800Y-10322800D02*
X16418800Y-10352800D01*
X16418800Y-10468850D02*
X16448800Y-10498850D01*
X16448800Y-10468850D02*
X16418800Y-10498850D01*
X16418800Y-10621250D02*
X16448800Y-10651250D01*
X16448800Y-10621250D02*
X16418800Y-10651250D01*
X16418800Y-10767300D02*
X16448800Y-10797300D01*
X16448800Y-10767300D02*
X16418800Y-10797300D01*
X16418800Y-11014950D02*
X16448800Y-11044950D01*
X16448800Y-11014950D02*
X16418800Y-11044950D01*
X16418800Y-11167350D02*
X16448800Y-11197350D01*
X16448800Y-11167350D02*
X16418800Y-11197350D01*
X16418800Y-11319750D02*
X16448800Y-11349750D01*
X16448800Y-11319750D02*
X16418800Y-11349750D01*
X16418800Y-11465800D02*
X16448800Y-11495800D01*
X16448800Y-11465800D02*
X16418800Y-11495800D01*
X16418800Y-12323050D02*
X16448800Y-12353050D01*
X16448800Y-12323050D02*
X16418800Y-12353050D01*
X16418800Y-12469100D02*
X16448800Y-12499100D01*
X16448800Y-12469100D02*
X16418800Y-12499100D01*
X16418800Y-12621500D02*
X16448800Y-12651500D01*
X16448800Y-12621500D02*
X16418800Y-12651500D01*
X16418800Y-12767550D02*
X16448800Y-12797550D01*
X16448800Y-12767550D02*
X16418800Y-12797550D01*
X16418800Y-13021550D02*
X16448800Y-13051550D01*
X16448800Y-13021550D02*
X16418800Y-13051550D01*
X16418800Y-13167600D02*
X16448800Y-13197600D01*
X16448800Y-13167600D02*
X16418800Y-13197600D01*
X16418800Y-13320000D02*
X16448800Y-13350000D01*
X16448800Y-13320000D02*
X16418800Y-13350000D01*
X16418800Y-13472400D02*
X16448800Y-13502400D01*
X16448800Y-13472400D02*
X16418800Y-13502400D01*
X16679150Y-6144500D02*
X16709150Y-6174500D01*
X16709150Y-6144500D02*
X16679150Y-6174500D01*
X16679150Y-8284450D02*
X16709150Y-8314450D01*
X16709150Y-8284450D02*
X16679150Y-8314450D01*
X16679150Y-9637000D02*
X16709150Y-9667000D01*
X16709150Y-9637000D02*
X16679150Y-9667000D01*
X16679150Y-10151350D02*
X16709150Y-10181350D01*
X16709150Y-10151350D02*
X16679150Y-10181350D01*
X16679150Y-12151600D02*
X16709150Y-12181600D01*
X16709150Y-12151600D02*
X16679150Y-12181600D01*
X12732700Y-10439400D02*
G75*
G03*
X12732700Y-10439400I-20000J0D01*
G01*
X15400850Y-8584050D02*
G75*
G03*
X15400850Y-8584050I-20000J0D01*
G01*
X12496800Y-5763900D02*
X12496800Y-5843900D01*
X12456800Y-5803900D02*
X12536800Y-5803900D01*
X12496800Y-6017900D02*
X12496800Y-6097900D01*
X12456800Y-6057900D02*
X12536800Y-6057900D01*
X12496800Y-6271900D02*
X12496800Y-6351900D01*
X12456800Y-6311900D02*
X12536800Y-6311900D01*
X12496800Y-6525900D02*
X12496800Y-6605900D01*
X12456800Y-6565900D02*
X12536800Y-6565900D01*
X12496800Y-6779900D02*
X12496800Y-6859900D01*
X12456800Y-6819900D02*
X12536800Y-6819900D01*
X12496800Y-7033900D02*
X12496800Y-7113900D01*
X12456800Y-7073900D02*
X12536800Y-7073900D01*
X12496800Y-7287900D02*
X12496800Y-7367900D01*
X12456800Y-7327900D02*
X12536800Y-7327900D01*
X12496800Y-7541900D02*
X12496800Y-7621900D01*
X12456800Y-7581900D02*
X12536800Y-7581900D01*
X12496800Y-7795900D02*
X12496800Y-7875900D01*
X12456800Y-7835900D02*
X12536800Y-7835900D01*
X12496800Y-8049900D02*
X12496800Y-8129900D01*
X12456800Y-8089900D02*
X12536800Y-8089900D01*
X12496800Y-8303900D02*
X12496800Y-8383900D01*
X12456800Y-8343900D02*
X12536800Y-8343900D01*
X12496800Y-8557900D02*
X12496800Y-8637900D01*
X12456800Y-8597900D02*
X12536800Y-8597900D01*
X12496800Y-8811900D02*
X12496800Y-8891900D01*
X12456800Y-8851900D02*
X12536800Y-8851900D01*
X12496800Y-9065900D02*
X12496800Y-9145900D01*
X12456800Y-9105900D02*
X12536800Y-9105900D01*
X12496800Y-9319900D02*
X12496800Y-9399900D01*
X12456800Y-9359900D02*
X12536800Y-9359900D01*
X12496800Y-9573900D02*
X12496800Y-9653900D01*
X12456800Y-9613900D02*
X12536800Y-9613900D01*
X12496800Y-9827900D02*
X12496800Y-9907900D01*
X12456800Y-9867900D02*
X12536800Y-9867900D01*
X12496800Y-10081900D02*
X12496800Y-10161900D01*
X12456800Y-10121900D02*
X12536800Y-10121900D01*
X12496800Y-10335900D02*
X12496800Y-10415900D01*
X12456800Y-10375900D02*
X12536800Y-10375900D01*
X12496800Y-10589900D02*
X12496800Y-10669900D01*
X12456800Y-10629900D02*
X12536800Y-10629900D01*
X12496800Y-10843900D02*
X12496800Y-10923900D01*
X12456800Y-10883900D02*
X12536800Y-10883900D01*
X12496800Y-11097900D02*
X12496800Y-11177900D01*
X12456800Y-11137900D02*
X12536800Y-11137900D01*
X12496800Y-11351900D02*
X12496800Y-11431900D01*
X12456800Y-11391900D02*
X12536800Y-11391900D01*
X12496800Y-11605900D02*
X12496800Y-11685900D01*
X12456800Y-11645900D02*
X12536800Y-11645900D01*
X12496800Y-11859900D02*
X12496800Y-11939900D01*
X12456800Y-11899900D02*
X12536800Y-11899900D01*
X12496800Y-12113900D02*
X12496800Y-12193900D01*
X12456800Y-12153900D02*
X12536800Y-12153900D01*
X12496800Y-12367900D02*
X12496800Y-12447900D01*
X12456800Y-12407900D02*
X12536800Y-12407900D01*
X12496800Y-12621900D02*
X12496800Y-12701900D01*
X12456800Y-12661900D02*
X12536800Y-12661900D01*
X12496800Y-12875900D02*
X12496800Y-12955900D01*
X12456800Y-12915900D02*
X12536800Y-12915900D01*
X12496800Y-13129900D02*
X12496800Y-13209900D01*
X12456800Y-13169900D02*
X12536800Y-13169900D01*
X12496800Y-13383900D02*
X12496800Y-13463900D01*
X12456800Y-13423900D02*
X12536800Y-13423900D01*
X12496800Y-13637900D02*
X12496800Y-13717900D01*
X12456800Y-13677900D02*
X12536800Y-13677900D01*
X14782800Y-5763900D02*
X14782800Y-5843900D01*
X14742800Y-5803900D02*
X14822800Y-5803900D01*
X14782800Y-6017900D02*
X14782800Y-6097900D01*
X14742800Y-6057900D02*
X14822800Y-6057900D01*
X14782800Y-6271900D02*
X14782800Y-6351900D01*
X14742800Y-6311900D02*
X14822800Y-6311900D01*
X14782800Y-6525900D02*
X14782800Y-6605900D01*
X14742800Y-6565900D02*
X14822800Y-6565900D01*
X14782800Y-6779900D02*
X14782800Y-6859900D01*
X14742800Y-6819900D02*
X14822800Y-6819900D01*
X14782800Y-7033900D02*
X14782800Y-7113900D01*
X14742800Y-7073900D02*
X14822800Y-7073900D01*
X14782800Y-7287900D02*
X14782800Y-7367900D01*
X14742800Y-7327900D02*
X14822800Y-7327900D01*
X14782800Y-7541900D02*
X14782800Y-7621900D01*
X14742800Y-7581900D02*
X14822800Y-7581900D01*
X14782800Y-7795900D02*
X14782800Y-7875900D01*
X14742800Y-7835900D02*
X14822800Y-7835900D01*
X14782800Y-8049900D02*
X14782800Y-8129900D01*
X14742800Y-8089900D02*
X14822800Y-8089900D01*
X14782800Y-8303900D02*
X14782800Y-8383900D01*
X14742800Y-8343900D02*
X14822800Y-8343900D01*
X14782800Y-8557900D02*
X14782800Y-8637900D01*
X14742800Y-8597900D02*
X14822800Y-8597900D01*
X14782800Y-8811900D02*
X14782800Y-8891900D01*
X14742800Y-8851900D02*
X14822800Y-8851900D01*
X14782800Y-9065900D02*
X14782800Y-9145900D01*
X14742800Y-9105900D02*
X14822800Y-9105900D01*
X14782800Y-9319900D02*
X14782800Y-9399900D01*
X14742800Y-9359900D02*
X14822800Y-9359900D01*
X14782800Y-9573900D02*
X14782800Y-9653900D01*
X14742800Y-9613900D02*
X14822800Y-9613900D01*
X14782800Y-9827900D02*
X14782800Y-9907900D01*
X14742800Y-9867900D02*
X14822800Y-9867900D01*
X14782800Y-10081900D02*
X14782800Y-10161900D01*
X14742800Y-10121900D02*
X14822800Y-10121900D01*
X14782800Y-10335900D02*
X14782800Y-10415900D01*
X14742800Y-10375900D02*
X14822800Y-10375900D01*
X14782800Y-10589900D02*
X14782800Y-10669900D01*
X14742800Y-10629900D02*
X14822800Y-10629900D01*
X14782800Y-10843900D02*
X14782800Y-10923900D01*
X14742800Y-10883900D02*
X14822800Y-10883900D01*
X14782800Y-11097900D02*
X14782800Y-11177900D01*
X14742800Y-11137900D02*
X14822800Y-11137900D01*
X14782800Y-11351900D02*
X14782800Y-11431900D01*
X14742800Y-11391900D02*
X14822800Y-11391900D01*
X14782800Y-11605900D02*
X14782800Y-11685900D01*
X14742800Y-11645900D02*
X14822800Y-11645900D01*
X14782800Y-11859900D02*
X14782800Y-11939900D01*
X14742800Y-11899900D02*
X14822800Y-11899900D01*
X14782800Y-12113900D02*
X14782800Y-12193900D01*
X14742800Y-12153900D02*
X14822800Y-12153900D01*
X14782800Y-12367900D02*
X14782800Y-12447900D01*
X14742800Y-12407900D02*
X14822800Y-12407900D01*
X14782800Y-12621900D02*
X14782800Y-12701900D01*
X14742800Y-12661900D02*
X14822800Y-12661900D01*
X14782800Y-12875900D02*
X14782800Y-12955900D01*
X14742800Y-12915900D02*
X14822800Y-12915900D01*
X14782800Y-13129900D02*
X14782800Y-13209900D01*
X14742800Y-13169900D02*
X14822800Y-13169900D01*
X14782800Y-13383900D02*
X14782800Y-13463900D01*
X14742800Y-13423900D02*
X14822800Y-13423900D01*
X14782800Y-13637900D02*
X14782800Y-13717900D01*
X14742800Y-13677900D02*
X14822800Y-13677900D01*
X17124172Y-6069299D02*
X17124172Y-6149299D01*
X17084172Y-6109299D02*
X17164172Y-6109299D01*
X17124172Y-6269299D02*
X17124172Y-6349299D01*
X17084172Y-6309299D02*
X17164172Y-6309299D01*
X17124172Y-6469299D02*
X17124172Y-6549299D01*
X17084172Y-6509299D02*
X17164172Y-6509299D01*
X17124172Y-6669299D02*
X17124172Y-6749299D01*
X17084172Y-6709299D02*
X17164172Y-6709299D01*
X17124172Y-6869299D02*
X17124172Y-6949299D01*
X17084172Y-6909299D02*
X17164172Y-6909299D01*
X17124172Y-7069299D02*
X17124172Y-7149299D01*
X17084172Y-7109299D02*
X17164172Y-7109299D01*
X17124172Y-7269299D02*
X17124172Y-7349299D01*
X17084172Y-7309299D02*
X17164172Y-7309299D01*
X17124172Y-7469299D02*
X17124172Y-7549299D01*
X17084172Y-7509299D02*
X17164172Y-7509299D01*
X17124172Y-7669299D02*
X17124172Y-7749299D01*
X17084172Y-7709299D02*
X17164172Y-7709299D01*
X17124172Y-8069299D02*
X17124172Y-8149299D01*
X17084172Y-8109299D02*
X17164172Y-8109299D01*
X17124172Y-8269299D02*
X17124172Y-8349299D01*
X17084172Y-8309299D02*
X17164172Y-8309299D01*
X17124172Y-8469299D02*
X17124172Y-8549299D01*
X17084172Y-8509299D02*
X17164172Y-8509299D01*
X17124172Y-8669299D02*
X17124172Y-8749299D01*
X17084172Y-8709299D02*
X17164172Y-8709299D01*
X17124172Y-8869299D02*
X17124172Y-8949299D01*
X17084172Y-8909299D02*
X17164172Y-8909299D01*
X17124172Y-9069299D02*
X17124172Y-9149299D01*
X17084172Y-9109299D02*
X17164172Y-9109299D01*
X17124172Y-9269299D02*
X17124172Y-9349299D01*
X17084172Y-9309299D02*
X17164172Y-9309299D01*
X17124172Y-9469299D02*
X17124172Y-9549299D01*
X17084172Y-9509299D02*
X17164172Y-9509299D01*
X17124172Y-9669299D02*
X17124172Y-9749299D01*
X17084172Y-9709299D02*
X17164172Y-9709299D01*
X17124172Y-10069299D02*
X17124172Y-10149299D01*
X17084172Y-10109299D02*
X17164172Y-10109299D01*
X17124172Y-10269299D02*
X17124172Y-10349299D01*
X17084172Y-10309299D02*
X17164172Y-10309299D01*
X17124172Y-10469299D02*
X17124172Y-10549299D01*
X17084172Y-10509299D02*
X17164172Y-10509299D01*
X17124172Y-10669299D02*
X17124172Y-10749299D01*
X17084172Y-10709299D02*
X17164172Y-10709299D01*
X17124172Y-10869299D02*
X17124172Y-10949299D01*
X17084172Y-10909299D02*
X17164172Y-10909299D01*
X17124172Y-11069299D02*
X17124172Y-11149299D01*
X17084172Y-11109299D02*
X17164172Y-11109299D01*
X17124172Y-11269299D02*
X17124172Y-11349299D01*
X17084172Y-11309299D02*
X17164172Y-11309299D01*
X17124172Y-11469299D02*
X17124172Y-11549299D01*
X17084172Y-11509299D02*
X17164172Y-11509299D01*
X17124172Y-11669299D02*
X17124172Y-11749299D01*
X17084172Y-11709299D02*
X17164172Y-11709299D01*
X17124172Y-12069299D02*
X17124172Y-12149299D01*
X17084172Y-12109299D02*
X17164172Y-12109299D01*
X17124172Y-12269299D02*
X17124172Y-12349299D01*
X17084172Y-12309299D02*
X17164172Y-12309299D01*
X17124172Y-12469299D02*
X17124172Y-12549299D01*
X17084172Y-12509299D02*
X17164172Y-12509299D01*
X17124172Y-12669299D02*
X17124172Y-12749299D01*
X17084172Y-12709299D02*
X17164172Y-12709299D01*
X17124172Y-12869299D02*
X17124172Y-12949299D01*
X17084172Y-12909299D02*
X17164172Y-12909299D01*
X17124172Y-13069299D02*
X17124172Y-13149299D01*
X17084172Y-13109299D02*
X17164172Y-13109299D01*
X17124172Y-13269299D02*
X17124172Y-13349299D01*
X17084172Y-13309299D02*
X17164172Y-13309299D01*
X17124172Y-13469299D02*
X17124172Y-13549299D01*
X17084172Y-13509299D02*
X17164172Y-13509299D01*
X17124172Y-13669299D02*
X17124172Y-13749299D01*
X17084172Y-13709299D02*
X17164172Y-13709299D01*
X17324172Y-6069299D02*
X17324172Y-6149299D01*
X17284172Y-6109299D02*
X17364172Y-6109299D01*
X17324172Y-6269299D02*
X17324172Y-6349299D01*
X17284172Y-6309299D02*
X17364172Y-6309299D01*
X17324172Y-6469299D02*
X17324172Y-6549299D01*
X17284172Y-6509299D02*
X17364172Y-6509299D01*
X17324172Y-6669299D02*
X17324172Y-6749299D01*
X17284172Y-6709299D02*
X17364172Y-6709299D01*
X17324172Y-6869299D02*
X17324172Y-6949299D01*
X17284172Y-6909299D02*
X17364172Y-6909299D01*
X17324172Y-7069299D02*
X17324172Y-7149299D01*
X17284172Y-7109299D02*
X17364172Y-7109299D01*
X17324172Y-7269299D02*
X17324172Y-7349299D01*
X17284172Y-7309299D02*
X17364172Y-7309299D01*
X17324172Y-7469299D02*
X17324172Y-7549299D01*
X17284172Y-7509299D02*
X17364172Y-7509299D01*
X17324172Y-7669299D02*
X17324172Y-7749299D01*
X17284172Y-7709299D02*
X17364172Y-7709299D01*
X17324172Y-8069299D02*
X17324172Y-8149299D01*
X17284172Y-8109299D02*
X17364172Y-8109299D01*
X17324172Y-8269299D02*
X17324172Y-8349299D01*
X17284172Y-8309299D02*
X17364172Y-8309299D01*
X17324172Y-8469299D02*
X17324172Y-8549299D01*
X17284172Y-8509299D02*
X17364172Y-8509299D01*
X17324172Y-8669299D02*
X17324172Y-8749299D01*
X17284172Y-8709299D02*
X17364172Y-8709299D01*
X17324172Y-8869299D02*
X17324172Y-8949299D01*
X17284172Y-8909299D02*
X17364172Y-8909299D01*
X17324172Y-9069299D02*
X17324172Y-9149299D01*
X17284172Y-9109299D02*
X17364172Y-9109299D01*
X17324172Y-9269299D02*
X17324172Y-9349299D01*
X17284172Y-9309299D02*
X17364172Y-9309299D01*
X17324172Y-9469299D02*
X17324172Y-9549299D01*
X17284172Y-9509299D02*
X17364172Y-9509299D01*
X17324172Y-9669299D02*
X17324172Y-9749299D01*
X17284172Y-9709299D02*
X17364172Y-9709299D01*
X17324172Y-10069299D02*
X17324172Y-10149299D01*
X17284172Y-10109299D02*
X17364172Y-10109299D01*
X17324172Y-10269299D02*
X17324172Y-10349299D01*
X17284172Y-10309299D02*
X17364172Y-10309299D01*
X17324172Y-10469299D02*
X17324172Y-10549299D01*
X17284172Y-10509299D02*
X17364172Y-10509299D01*
X17324172Y-10669299D02*
X17324172Y-10749299D01*
X17284172Y-10709299D02*
X17364172Y-10709299D01*
X17324172Y-10869299D02*
X17324172Y-10949299D01*
X17284172Y-10909299D02*
X17364172Y-10909299D01*
X17324172Y-11069299D02*
X17324172Y-11149299D01*
X17284172Y-11109299D02*
X17364172Y-11109299D01*
X17324172Y-11269299D02*
X17324172Y-11349299D01*
X17284172Y-11309299D02*
X17364172Y-11309299D01*
X17324172Y-11469299D02*
X17324172Y-11549299D01*
X17284172Y-11509299D02*
X17364172Y-11509299D01*
X17324172Y-11669299D02*
X17324172Y-11749299D01*
X17284172Y-11709299D02*
X17364172Y-11709299D01*
X17324172Y-12069299D02*
X17324172Y-12149299D01*
X17284172Y-12109299D02*
X17364172Y-12109299D01*
X17324172Y-12269299D02*
X17324172Y-12349299D01*
X17284172Y-12309299D02*
X17364172Y-12309299D01*
X17324172Y-12469299D02*
X17324172Y-12549299D01*
X17284172Y-12509299D02*
X17364172Y-12509299D01*
X17324172Y-12669299D02*
X17324172Y-12749299D01*
X17284172Y-12709299D02*
X17364172Y-12709299D01*
X17324172Y-12869299D02*
X17324172Y-12949299D01*
X17284172Y-12909299D02*
X17364172Y-12909299D01*
X17324172Y-13069299D02*
X17324172Y-13149299D01*
X17284172Y-13109299D02*
X17364172Y-13109299D01*
X17324172Y-13269299D02*
X17324172Y-13349299D01*
X17284172Y-13309299D02*
X17364172Y-13309299D01*
X17324172Y-13469299D02*
X17324172Y-13549299D01*
X17284172Y-13509299D02*
X17364172Y-13509299D01*
X17324172Y-13669299D02*
X17324172Y-13749299D01*
X17284172Y-13709299D02*
X17364172Y-13709299D01*
D12*
X12558478Y-14393764D02*
X12558478Y-14093764D01*
X12629907Y-14093764D01*
X12672764Y-14108050D01*
X12701336Y-14136621D01*
X12715621Y-14165193D01*
X12729907Y-14222336D01*
X12729907Y-14265193D01*
X12715621Y-14322336D01*
X12701336Y-14350907D01*
X12672764Y-14379479D01*
X12629907Y-14393764D01*
X12558478Y-14393764D01*
X12858478Y-14393764D02*
X12858478Y-14193764D01*
X12858478Y-14250907D02*
X12872764Y-14222336D01*
X12887050Y-14208050D01*
X12915621Y-14193764D01*
X12944193Y-14193764D01*
X13044193Y-14393764D02*
X13044193Y-14193764D01*
X13044193Y-14093764D02*
X13029907Y-14108050D01*
X13044193Y-14122336D01*
X13058478Y-14108050D01*
X13044193Y-14093764D01*
X13044193Y-14122336D01*
X13229907Y-14393764D02*
X13201336Y-14379479D01*
X13187050Y-14350907D01*
X13187050Y-14093764D01*
X13387050Y-14393764D02*
X13358478Y-14379479D01*
X13344193Y-14350907D01*
X13344193Y-14093764D01*
X13729907Y-14393764D02*
X13729907Y-14093764D01*
X13829907Y-14308050D01*
X13929907Y-14093764D01*
X13929907Y-14393764D01*
X14201336Y-14393764D02*
X14201336Y-14236621D01*
X14187050Y-14208050D01*
X14158478Y-14193764D01*
X14101336Y-14193764D01*
X14072764Y-14208050D01*
X14201336Y-14379479D02*
X14172764Y-14393764D01*
X14101336Y-14393764D01*
X14072764Y-14379479D01*
X14058478Y-14350907D01*
X14058478Y-14322336D01*
X14072764Y-14293764D01*
X14101336Y-14279479D01*
X14172764Y-14279479D01*
X14201336Y-14265193D01*
X14344193Y-14193764D02*
X14344193Y-14493764D01*
X14344193Y-14208050D02*
X14372764Y-14193764D01*
X14429907Y-14193764D01*
X14458478Y-14208050D01*
X14472764Y-14222336D01*
X14487050Y-14250907D01*
X14487050Y-14336621D01*
X14472764Y-14365193D01*
X14458478Y-14379479D01*
X14429907Y-14393764D01*
X14372764Y-14393764D01*
X14344193Y-14379479D01*
X14615621Y-14365193D02*
X14629907Y-14379479D01*
X14615621Y-14393764D01*
X14601336Y-14379479D01*
X14615621Y-14365193D01*
X14615621Y-14393764D01*
X14615621Y-14208050D02*
X14629907Y-14222336D01*
X14615621Y-14236621D01*
X14601336Y-14222336D01*
X14615621Y-14208050D01*
X14615621Y-14236621D01*
X12242050Y-14873050D02*
X12272050Y-14903050D01*
X12272050Y-14873050D02*
X12242050Y-14903050D01*
X12615621Y-14723764D02*
X12644193Y-14723764D01*
X12672764Y-14738050D01*
X12687050Y-14752336D01*
X12701336Y-14780907D01*
X12715621Y-14838050D01*
X12715621Y-14909479D01*
X12701336Y-14966621D01*
X12687050Y-14995193D01*
X12672764Y-15009479D01*
X12644193Y-15023764D01*
X12615621Y-15023764D01*
X12587050Y-15009479D01*
X12572764Y-14995193D01*
X12558478Y-14966621D01*
X12544193Y-14909479D01*
X12544193Y-14838050D01*
X12558478Y-14780907D01*
X12572764Y-14752336D01*
X12587050Y-14738050D01*
X12615621Y-14723764D01*
X12844193Y-14995193D02*
X12858478Y-15009479D01*
X12844193Y-15023764D01*
X12829907Y-15009479D01*
X12844193Y-14995193D01*
X12844193Y-15023764D01*
X12958478Y-14723764D02*
X13144193Y-14723764D01*
X13044193Y-14838050D01*
X13087050Y-14838050D01*
X13115621Y-14852336D01*
X13129907Y-14866621D01*
X13144193Y-14895193D01*
X13144193Y-14966621D01*
X13129907Y-14995193D01*
X13115621Y-15009479D01*
X13087050Y-15023764D01*
X13001336Y-15023764D01*
X12972764Y-15009479D01*
X12958478Y-14995193D01*
X13329907Y-14723764D02*
X13358478Y-14723764D01*
X13387050Y-14738050D01*
X13401336Y-14752336D01*
X13415621Y-14780907D01*
X13429907Y-14838050D01*
X13429907Y-14909479D01*
X13415621Y-14966621D01*
X13401336Y-14995193D01*
X13387050Y-15009479D01*
X13358478Y-15023764D01*
X13329907Y-15023764D01*
X13301336Y-15009479D01*
X13287050Y-14995193D01*
X13272764Y-14966621D01*
X13258478Y-14909479D01*
X13258478Y-14838050D01*
X13272764Y-14780907D01*
X13287050Y-14752336D01*
X13301336Y-14738050D01*
X13329907Y-14723764D01*
X13615621Y-14723764D02*
X13644193Y-14723764D01*
X13672764Y-14738050D01*
X13687050Y-14752336D01*
X13701336Y-14780907D01*
X13715621Y-14838050D01*
X13715621Y-14909479D01*
X13701336Y-14966621D01*
X13687050Y-14995193D01*
X13672764Y-15009479D01*
X13644193Y-15023764D01*
X13615621Y-15023764D01*
X13587050Y-15009479D01*
X13572764Y-14995193D01*
X13558478Y-14966621D01*
X13544193Y-14909479D01*
X13544193Y-14838050D01*
X13558478Y-14780907D01*
X13572764Y-14752336D01*
X13587050Y-14738050D01*
X13615621Y-14723764D01*
X13844193Y-15023764D02*
X13844193Y-14823764D01*
X13844193Y-14852336D02*
X13858478Y-14838050D01*
X13887050Y-14823764D01*
X13929907Y-14823764D01*
X13958478Y-14838050D01*
X13972764Y-14866621D01*
X13972764Y-15023764D01*
X13972764Y-14866621D02*
X13987050Y-14838050D01*
X14015621Y-14823764D01*
X14058478Y-14823764D01*
X14087050Y-14838050D01*
X14101336Y-14866621D01*
X14101336Y-15023764D01*
X14244193Y-15023764D02*
X14244193Y-14823764D01*
X14244193Y-14852336D02*
X14258478Y-14838050D01*
X14287050Y-14823764D01*
X14329907Y-14823764D01*
X14358478Y-14838050D01*
X14372764Y-14866621D01*
X14372764Y-15023764D01*
X14372764Y-14866621D02*
X14387050Y-14838050D01*
X14415621Y-14823764D01*
X14458478Y-14823764D01*
X14487050Y-14838050D01*
X14501336Y-14866621D01*
X14501336Y-15023764D01*
X15087050Y-14709479D02*
X14829907Y-15095193D01*
X15472764Y-14723764D02*
X15501336Y-14723764D01*
X15529907Y-14738050D01*
X15544193Y-14752336D01*
X15558478Y-14780907D01*
X15572764Y-14838050D01*
X15572764Y-14909479D01*
X15558478Y-14966621D01*
X15544193Y-14995193D01*
X15529907Y-15009479D01*
X15501336Y-15023764D01*
X15472764Y-15023764D01*
X15444193Y-15009479D01*
X15429907Y-14995193D01*
X15415621Y-14966621D01*
X15401336Y-14909479D01*
X15401336Y-14838050D01*
X15415621Y-14780907D01*
X15429907Y-14752336D01*
X15444193Y-14738050D01*
X15472764Y-14723764D01*
X15701336Y-14995193D02*
X15715621Y-15009479D01*
X15701336Y-15023764D01*
X15687050Y-15009479D01*
X15701336Y-14995193D01*
X15701336Y-15023764D01*
X15901336Y-14723764D02*
X15929907Y-14723764D01*
X15958478Y-14738050D01*
X15972764Y-14752336D01*
X15987050Y-14780907D01*
X16001336Y-14838050D01*
X16001336Y-14909479D01*
X15987050Y-14966621D01*
X15972764Y-14995193D01*
X15958478Y-15009479D01*
X15929907Y-15023764D01*
X15901336Y-15023764D01*
X15872764Y-15009479D01*
X15858478Y-14995193D01*
X15844193Y-14966621D01*
X15829907Y-14909479D01*
X15829907Y-14838050D01*
X15844193Y-14780907D01*
X15858478Y-14752336D01*
X15872764Y-14738050D01*
X15901336Y-14723764D01*
X16287050Y-15023764D02*
X16115621Y-15023764D01*
X16201336Y-15023764D02*
X16201336Y-14723764D01*
X16172764Y-14766621D01*
X16144193Y-14795193D01*
X16115621Y-14809479D01*
X16572764Y-15023764D02*
X16401336Y-15023764D01*
X16487050Y-15023764D02*
X16487050Y-14723764D01*
X16458478Y-14766621D01*
X16429907Y-14795193D01*
X16401336Y-14809479D01*
X16744193Y-14852336D02*
X16715621Y-14838050D01*
X16701336Y-14823764D01*
X16687050Y-14795193D01*
X16687050Y-14780907D01*
X16701336Y-14752336D01*
X16715621Y-14738050D01*
X16744193Y-14723764D01*
X16801336Y-14723764D01*
X16829907Y-14738050D01*
X16844193Y-14752336D01*
X16858478Y-14780907D01*
X16858478Y-14795193D01*
X16844193Y-14823764D01*
X16829907Y-14838050D01*
X16801336Y-14852336D01*
X16744193Y-14852336D01*
X16715621Y-14866621D01*
X16701336Y-14880907D01*
X16687050Y-14909479D01*
X16687050Y-14966621D01*
X16701336Y-14995193D01*
X16715621Y-15009479D01*
X16744193Y-15023764D01*
X16801336Y-15023764D01*
X16829907Y-15009479D01*
X16844193Y-14995193D01*
X16858478Y-14966621D01*
X16858478Y-14909479D01*
X16844193Y-14880907D01*
X16829907Y-14866621D01*
X16801336Y-14852336D01*
X16972764Y-14723764D02*
X16972764Y-14780907D01*
X17087050Y-14723764D02*
X17087050Y-14780907D01*
X17529907Y-15138050D02*
X17515621Y-15123764D01*
X17487050Y-15080907D01*
X17472764Y-15052336D01*
X17458478Y-15009479D01*
X17444193Y-14938050D01*
X17444193Y-14880907D01*
X17458478Y-14809479D01*
X17472764Y-14766621D01*
X17487050Y-14738050D01*
X17515621Y-14695193D01*
X17529907Y-14680907D01*
X17658478Y-15023764D02*
X17715621Y-15023764D01*
X17744193Y-15009479D01*
X17758478Y-14995193D01*
X17787050Y-14952336D01*
X17801336Y-14895193D01*
X17801336Y-14780907D01*
X17787050Y-14752336D01*
X17772764Y-14738050D01*
X17744193Y-14723764D01*
X17687050Y-14723764D01*
X17658478Y-14738050D01*
X17644193Y-14752336D01*
X17629907Y-14780907D01*
X17629907Y-14852336D01*
X17644193Y-14880907D01*
X17658478Y-14895193D01*
X17687050Y-14909479D01*
X17744193Y-14909479D01*
X17772764Y-14895193D01*
X17787050Y-14880907D01*
X17801336Y-14852336D01*
X17915621Y-14752336D02*
X17929907Y-14738050D01*
X17958478Y-14723764D01*
X18029907Y-14723764D01*
X18058478Y-14738050D01*
X18072764Y-14752336D01*
X18087050Y-14780907D01*
X18087050Y-14809479D01*
X18072764Y-14852336D01*
X17901336Y-15023764D01*
X18087050Y-15023764D01*
X18444193Y-15023764D02*
X18444193Y-14723764D01*
X18572764Y-15023764D02*
X18572764Y-14866621D01*
X18558478Y-14838050D01*
X18529907Y-14823764D01*
X18487050Y-14823764D01*
X18458478Y-14838050D01*
X18444193Y-14852336D01*
X18758478Y-15023764D02*
X18729907Y-15009479D01*
X18715621Y-14995193D01*
X18701336Y-14966621D01*
X18701336Y-14880907D01*
X18715621Y-14852336D01*
X18729907Y-14838050D01*
X18758478Y-14823764D01*
X18801336Y-14823764D01*
X18829907Y-14838050D01*
X18844193Y-14852336D01*
X18858478Y-14880907D01*
X18858478Y-14966621D01*
X18844193Y-14995193D01*
X18829907Y-15009479D01*
X18801336Y-15023764D01*
X18758478Y-15023764D01*
X19029907Y-15023764D02*
X19001336Y-15009479D01*
X18987050Y-14980907D01*
X18987050Y-14723764D01*
X19258478Y-15009479D02*
X19229907Y-15023764D01*
X19172764Y-15023764D01*
X19144193Y-15009479D01*
X19129907Y-14980907D01*
X19129907Y-14866621D01*
X19144193Y-14838050D01*
X19172764Y-14823764D01*
X19229907Y-14823764D01*
X19258478Y-14838050D01*
X19272764Y-14866621D01*
X19272764Y-14895193D01*
X19129907Y-14923764D01*
X19387050Y-15009479D02*
X19415621Y-15023764D01*
X19472764Y-15023764D01*
X19501336Y-15009479D01*
X19515621Y-14980907D01*
X19515621Y-14966621D01*
X19501336Y-14938050D01*
X19472764Y-14923764D01*
X19429907Y-14923764D01*
X19401336Y-14909479D01*
X19387050Y-14880907D01*
X19387050Y-14866621D01*
X19401336Y-14838050D01*
X19429907Y-14823764D01*
X19472764Y-14823764D01*
X19501336Y-14838050D01*
X19615621Y-15138050D02*
X19629907Y-15123764D01*
X19658478Y-15080907D01*
X19672764Y-15052336D01*
X19687050Y-15009479D01*
X19701336Y-14938050D01*
X19701336Y-14880907D01*
X19687050Y-14809479D01*
X19672764Y-14766621D01*
X19658478Y-14738050D01*
X19629907Y-14695193D01*
X19615621Y-14680907D01*
X12272050Y-15284050D02*
G75*
G03*
X12272050Y-15284050I-20000J0D01*
G01*
X12615621Y-15119764D02*
X12644193Y-15119764D01*
X12672764Y-15134050D01*
X12687050Y-15148336D01*
X12701336Y-15176907D01*
X12715621Y-15234050D01*
X12715621Y-15305479D01*
X12701336Y-15362621D01*
X12687050Y-15391193D01*
X12672764Y-15405479D01*
X12644193Y-15419764D01*
X12615621Y-15419764D01*
X12587050Y-15405479D01*
X12572764Y-15391193D01*
X12558478Y-15362621D01*
X12544193Y-15305479D01*
X12544193Y-15234050D01*
X12558478Y-15176907D01*
X12572764Y-15148336D01*
X12587050Y-15134050D01*
X12615621Y-15119764D01*
X12844193Y-15391193D02*
X12858478Y-15405479D01*
X12844193Y-15419764D01*
X12829907Y-15405479D01*
X12844193Y-15391193D01*
X12844193Y-15419764D01*
X13115621Y-15219764D02*
X13115621Y-15419764D01*
X13044193Y-15105479D02*
X12972764Y-15319764D01*
X13158478Y-15319764D01*
X13329907Y-15119764D02*
X13358478Y-15119764D01*
X13387050Y-15134050D01*
X13401336Y-15148336D01*
X13415621Y-15176907D01*
X13429907Y-15234050D01*
X13429907Y-15305479D01*
X13415621Y-15362621D01*
X13401336Y-15391193D01*
X13387050Y-15405479D01*
X13358478Y-15419764D01*
X13329907Y-15419764D01*
X13301336Y-15405479D01*
X13287050Y-15391193D01*
X13272764Y-15362621D01*
X13258478Y-15305479D01*
X13258478Y-15234050D01*
X13272764Y-15176907D01*
X13287050Y-15148336D01*
X13301336Y-15134050D01*
X13329907Y-15119764D01*
X13615621Y-15119764D02*
X13644193Y-15119764D01*
X13672764Y-15134050D01*
X13687050Y-15148336D01*
X13701336Y-15176907D01*
X13715621Y-15234050D01*
X13715621Y-15305479D01*
X13701336Y-15362621D01*
X13687050Y-15391193D01*
X13672764Y-15405479D01*
X13644193Y-15419764D01*
X13615621Y-15419764D01*
X13587050Y-15405479D01*
X13572764Y-15391193D01*
X13558478Y-15362621D01*
X13544193Y-15305479D01*
X13544193Y-15234050D01*
X13558478Y-15176907D01*
X13572764Y-15148336D01*
X13587050Y-15134050D01*
X13615621Y-15119764D01*
X13844193Y-15419764D02*
X13844193Y-15219764D01*
X13844193Y-15248336D02*
X13858478Y-15234050D01*
X13887050Y-15219764D01*
X13929907Y-15219764D01*
X13958478Y-15234050D01*
X13972764Y-15262621D01*
X13972764Y-15419764D01*
X13972764Y-15262621D02*
X13987050Y-15234050D01*
X14015621Y-15219764D01*
X14058478Y-15219764D01*
X14087050Y-15234050D01*
X14101336Y-15262621D01*
X14101336Y-15419764D01*
X14244193Y-15419764D02*
X14244193Y-15219764D01*
X14244193Y-15248336D02*
X14258478Y-15234050D01*
X14287050Y-15219764D01*
X14329907Y-15219764D01*
X14358478Y-15234050D01*
X14372764Y-15262621D01*
X14372764Y-15419764D01*
X14372764Y-15262621D02*
X14387050Y-15234050D01*
X14415621Y-15219764D01*
X14458478Y-15219764D01*
X14487050Y-15234050D01*
X14501336Y-15262621D01*
X14501336Y-15419764D01*
X15087050Y-15105479D02*
X14829907Y-15491193D01*
X15472764Y-15119764D02*
X15501336Y-15119764D01*
X15529907Y-15134050D01*
X15544193Y-15148336D01*
X15558478Y-15176907D01*
X15572764Y-15234050D01*
X15572764Y-15305479D01*
X15558478Y-15362621D01*
X15544193Y-15391193D01*
X15529907Y-15405479D01*
X15501336Y-15419764D01*
X15472764Y-15419764D01*
X15444193Y-15405479D01*
X15429907Y-15391193D01*
X15415621Y-15362621D01*
X15401336Y-15305479D01*
X15401336Y-15234050D01*
X15415621Y-15176907D01*
X15429907Y-15148336D01*
X15444193Y-15134050D01*
X15472764Y-15119764D01*
X15701336Y-15391193D02*
X15715621Y-15405479D01*
X15701336Y-15419764D01*
X15687050Y-15405479D01*
X15701336Y-15391193D01*
X15701336Y-15419764D01*
X15901336Y-15119764D02*
X15929907Y-15119764D01*
X15958478Y-15134050D01*
X15972764Y-15148336D01*
X15987050Y-15176907D01*
X16001336Y-15234050D01*
X16001336Y-15305479D01*
X15987050Y-15362621D01*
X15972764Y-15391193D01*
X15958478Y-15405479D01*
X15929907Y-15419764D01*
X15901336Y-15419764D01*
X15872764Y-15405479D01*
X15858478Y-15391193D01*
X15844193Y-15362621D01*
X15829907Y-15305479D01*
X15829907Y-15234050D01*
X15844193Y-15176907D01*
X15858478Y-15148336D01*
X15872764Y-15134050D01*
X15901336Y-15119764D01*
X16287050Y-15419764D02*
X16115621Y-15419764D01*
X16201336Y-15419764D02*
X16201336Y-15119764D01*
X16172764Y-15162621D01*
X16144193Y-15191193D01*
X16115621Y-15205479D01*
X16558478Y-15119764D02*
X16415621Y-15119764D01*
X16401336Y-15262621D01*
X16415621Y-15248336D01*
X16444193Y-15234050D01*
X16515621Y-15234050D01*
X16544193Y-15248336D01*
X16558478Y-15262621D01*
X16572764Y-15291193D01*
X16572764Y-15362621D01*
X16558478Y-15391193D01*
X16544193Y-15405479D01*
X16515621Y-15419764D01*
X16444193Y-15419764D01*
X16415621Y-15405479D01*
X16401336Y-15391193D01*
X16672764Y-15119764D02*
X16872764Y-15119764D01*
X16744193Y-15419764D01*
X16972764Y-15119764D02*
X16972764Y-15176907D01*
X17087050Y-15119764D02*
X17087050Y-15176907D01*
X17529907Y-15534050D02*
X17515621Y-15519764D01*
X17487050Y-15476907D01*
X17472764Y-15448336D01*
X17458478Y-15405479D01*
X17444193Y-15334050D01*
X17444193Y-15276907D01*
X17458478Y-15205479D01*
X17472764Y-15162621D01*
X17487050Y-15134050D01*
X17515621Y-15091193D01*
X17529907Y-15076907D01*
X17629907Y-15148336D02*
X17644193Y-15134050D01*
X17672764Y-15119764D01*
X17744193Y-15119764D01*
X17772764Y-15134050D01*
X17787050Y-15148336D01*
X17801336Y-15176907D01*
X17801336Y-15205479D01*
X17787050Y-15248336D01*
X17615621Y-15419764D01*
X17801336Y-15419764D01*
X18158478Y-15419764D02*
X18158478Y-15119764D01*
X18287050Y-15419764D02*
X18287050Y-15262621D01*
X18272764Y-15234050D01*
X18244193Y-15219764D01*
X18201336Y-15219764D01*
X18172764Y-15234050D01*
X18158478Y-15248336D01*
X18472764Y-15419764D02*
X18444193Y-15405479D01*
X18429907Y-15391193D01*
X18415621Y-15362621D01*
X18415621Y-15276907D01*
X18429907Y-15248336D01*
X18444193Y-15234050D01*
X18472764Y-15219764D01*
X18515621Y-15219764D01*
X18544193Y-15234050D01*
X18558478Y-15248336D01*
X18572764Y-15276907D01*
X18572764Y-15362621D01*
X18558478Y-15391193D01*
X18544193Y-15405479D01*
X18515621Y-15419764D01*
X18472764Y-15419764D01*
X18744193Y-15419764D02*
X18715621Y-15405479D01*
X18701336Y-15376907D01*
X18701336Y-15119764D01*
X18972764Y-15405479D02*
X18944193Y-15419764D01*
X18887050Y-15419764D01*
X18858478Y-15405479D01*
X18844193Y-15376907D01*
X18844193Y-15262621D01*
X18858478Y-15234050D01*
X18887050Y-15219764D01*
X18944193Y-15219764D01*
X18972764Y-15234050D01*
X18987050Y-15262621D01*
X18987050Y-15291193D01*
X18844193Y-15319764D01*
X19101336Y-15405479D02*
X19129907Y-15419764D01*
X19187050Y-15419764D01*
X19215621Y-15405479D01*
X19229907Y-15376907D01*
X19229907Y-15362621D01*
X19215621Y-15334050D01*
X19187050Y-15319764D01*
X19144193Y-15319764D01*
X19115621Y-15305479D01*
X19101336Y-15276907D01*
X19101336Y-15262621D01*
X19115621Y-15234050D01*
X19144193Y-15219764D01*
X19187050Y-15219764D01*
X19215621Y-15234050D01*
X19329907Y-15534050D02*
X19344193Y-15519764D01*
X19372764Y-15476907D01*
X19387050Y-15448336D01*
X19401336Y-15405479D01*
X19415621Y-15334050D01*
X19415621Y-15276907D01*
X19401336Y-15205479D01*
X19387050Y-15162621D01*
X19372764Y-15134050D01*
X19344193Y-15091193D01*
X19329907Y-15076907D01*
X12232050Y-15640050D02*
X12232050Y-15720050D01*
X12192050Y-15680050D02*
X12272050Y-15680050D01*
X12615621Y-15515764D02*
X12644193Y-15515764D01*
X12672764Y-15530050D01*
X12687050Y-15544336D01*
X12701336Y-15572907D01*
X12715621Y-15630050D01*
X12715621Y-15701479D01*
X12701336Y-15758621D01*
X12687050Y-15787193D01*
X12672764Y-15801479D01*
X12644193Y-15815764D01*
X12615621Y-15815764D01*
X12587050Y-15801479D01*
X12572764Y-15787193D01*
X12558478Y-15758621D01*
X12544193Y-15701479D01*
X12544193Y-15630050D01*
X12558478Y-15572907D01*
X12572764Y-15544336D01*
X12587050Y-15530050D01*
X12615621Y-15515764D01*
X12844193Y-15787193D02*
X12858478Y-15801479D01*
X12844193Y-15815764D01*
X12829907Y-15801479D01*
X12844193Y-15787193D01*
X12844193Y-15815764D01*
X13029907Y-15644336D02*
X13001336Y-15630050D01*
X12987050Y-15615764D01*
X12972764Y-15587193D01*
X12972764Y-15572907D01*
X12987050Y-15544336D01*
X13001336Y-15530050D01*
X13029907Y-15515764D01*
X13087050Y-15515764D01*
X13115621Y-15530050D01*
X13129907Y-15544336D01*
X13144193Y-15572907D01*
X13144193Y-15587193D01*
X13129907Y-15615764D01*
X13115621Y-15630050D01*
X13087050Y-15644336D01*
X13029907Y-15644336D01*
X13001336Y-15658621D01*
X12987050Y-15672907D01*
X12972764Y-15701479D01*
X12972764Y-15758621D01*
X12987050Y-15787193D01*
X13001336Y-15801479D01*
X13029907Y-15815764D01*
X13087050Y-15815764D01*
X13115621Y-15801479D01*
X13129907Y-15787193D01*
X13144193Y-15758621D01*
X13144193Y-15701479D01*
X13129907Y-15672907D01*
X13115621Y-15658621D01*
X13087050Y-15644336D01*
X13329907Y-15515764D02*
X13358478Y-15515764D01*
X13387050Y-15530050D01*
X13401336Y-15544336D01*
X13415621Y-15572907D01*
X13429907Y-15630050D01*
X13429907Y-15701479D01*
X13415621Y-15758621D01*
X13401336Y-15787193D01*
X13387050Y-15801479D01*
X13358478Y-15815764D01*
X13329907Y-15815764D01*
X13301336Y-15801479D01*
X13287050Y-15787193D01*
X13272764Y-15758621D01*
X13258478Y-15701479D01*
X13258478Y-15630050D01*
X13272764Y-15572907D01*
X13287050Y-15544336D01*
X13301336Y-15530050D01*
X13329907Y-15515764D01*
X13615621Y-15515764D02*
X13644193Y-15515764D01*
X13672764Y-15530050D01*
X13687050Y-15544336D01*
X13701336Y-15572907D01*
X13715621Y-15630050D01*
X13715621Y-15701479D01*
X13701336Y-15758621D01*
X13687050Y-15787193D01*
X13672764Y-15801479D01*
X13644193Y-15815764D01*
X13615621Y-15815764D01*
X13587050Y-15801479D01*
X13572764Y-15787193D01*
X13558478Y-15758621D01*
X13544193Y-15701479D01*
X13544193Y-15630050D01*
X13558478Y-15572907D01*
X13572764Y-15544336D01*
X13587050Y-15530050D01*
X13615621Y-15515764D01*
X13844193Y-15815764D02*
X13844193Y-15615764D01*
X13844193Y-15644336D02*
X13858478Y-15630050D01*
X13887050Y-15615764D01*
X13929907Y-15615764D01*
X13958478Y-15630050D01*
X13972764Y-15658621D01*
X13972764Y-15815764D01*
X13972764Y-15658621D02*
X13987050Y-15630050D01*
X14015621Y-15615764D01*
X14058478Y-15615764D01*
X14087050Y-15630050D01*
X14101336Y-15658621D01*
X14101336Y-15815764D01*
X14244193Y-15815764D02*
X14244193Y-15615764D01*
X14244193Y-15644336D02*
X14258478Y-15630050D01*
X14287050Y-15615764D01*
X14329907Y-15615764D01*
X14358478Y-15630050D01*
X14372764Y-15658621D01*
X14372764Y-15815764D01*
X14372764Y-15658621D02*
X14387050Y-15630050D01*
X14415621Y-15615764D01*
X14458478Y-15615764D01*
X14487050Y-15630050D01*
X14501336Y-15658621D01*
X14501336Y-15815764D01*
X15087050Y-15501479D02*
X14829907Y-15887193D01*
X15472764Y-15515764D02*
X15501336Y-15515764D01*
X15529907Y-15530050D01*
X15544193Y-15544336D01*
X15558478Y-15572907D01*
X15572764Y-15630050D01*
X15572764Y-15701479D01*
X15558478Y-15758621D01*
X15544193Y-15787193D01*
X15529907Y-15801479D01*
X15501336Y-15815764D01*
X15472764Y-15815764D01*
X15444193Y-15801479D01*
X15429907Y-15787193D01*
X15415621Y-15758621D01*
X15401336Y-15701479D01*
X15401336Y-15630050D01*
X15415621Y-15572907D01*
X15429907Y-15544336D01*
X15444193Y-15530050D01*
X15472764Y-15515764D01*
X15701336Y-15787193D02*
X15715621Y-15801479D01*
X15701336Y-15815764D01*
X15687050Y-15801479D01*
X15701336Y-15787193D01*
X15701336Y-15815764D01*
X15901336Y-15515764D02*
X15929907Y-15515764D01*
X15958478Y-15530050D01*
X15972764Y-15544336D01*
X15987050Y-15572907D01*
X16001336Y-15630050D01*
X16001336Y-15701479D01*
X15987050Y-15758621D01*
X15972764Y-15787193D01*
X15958478Y-15801479D01*
X15929907Y-15815764D01*
X15901336Y-15815764D01*
X15872764Y-15801479D01*
X15858478Y-15787193D01*
X15844193Y-15758621D01*
X15829907Y-15701479D01*
X15829907Y-15630050D01*
X15844193Y-15572907D01*
X15858478Y-15544336D01*
X15872764Y-15530050D01*
X15901336Y-15515764D01*
X16101336Y-15515764D02*
X16287050Y-15515764D01*
X16187050Y-15630050D01*
X16229907Y-15630050D01*
X16258478Y-15644336D01*
X16272764Y-15658621D01*
X16287050Y-15687193D01*
X16287050Y-15758621D01*
X16272764Y-15787193D01*
X16258478Y-15801479D01*
X16229907Y-15815764D01*
X16144193Y-15815764D01*
X16115621Y-15801479D01*
X16101336Y-15787193D01*
X16572764Y-15815764D02*
X16401336Y-15815764D01*
X16487050Y-15815764D02*
X16487050Y-15515764D01*
X16458478Y-15558621D01*
X16429907Y-15587193D01*
X16401336Y-15601479D01*
X16844193Y-15515764D02*
X16701336Y-15515764D01*
X16687050Y-15658621D01*
X16701336Y-15644336D01*
X16729907Y-15630050D01*
X16801336Y-15630050D01*
X16829907Y-15644336D01*
X16844193Y-15658621D01*
X16858478Y-15687193D01*
X16858478Y-15758621D01*
X16844193Y-15787193D01*
X16829907Y-15801479D01*
X16801336Y-15815764D01*
X16729907Y-15815764D01*
X16701336Y-15801479D01*
X16687050Y-15787193D01*
X16972764Y-15515764D02*
X16972764Y-15572907D01*
X17087050Y-15515764D02*
X17087050Y-15572907D01*
X17529907Y-15930050D02*
X17515621Y-15915764D01*
X17487050Y-15872907D01*
X17472764Y-15844336D01*
X17458478Y-15801479D01*
X17444193Y-15730050D01*
X17444193Y-15672907D01*
X17458478Y-15601479D01*
X17472764Y-15558621D01*
X17487050Y-15530050D01*
X17515621Y-15487193D01*
X17529907Y-15472907D01*
X17801336Y-15815764D02*
X17629907Y-15815764D01*
X17715621Y-15815764D02*
X17715621Y-15515764D01*
X17687050Y-15558621D01*
X17658478Y-15587193D01*
X17629907Y-15601479D01*
X17901336Y-15515764D02*
X18087050Y-15515764D01*
X17987050Y-15630050D01*
X18029907Y-15630050D01*
X18058478Y-15644336D01*
X18072764Y-15658621D01*
X18087050Y-15687193D01*
X18087050Y-15758621D01*
X18072764Y-15787193D01*
X18058478Y-15801479D01*
X18029907Y-15815764D01*
X17944193Y-15815764D01*
X17915621Y-15801479D01*
X17901336Y-15787193D01*
X18344193Y-15515764D02*
X18287050Y-15515764D01*
X18258478Y-15530050D01*
X18244193Y-15544336D01*
X18215621Y-15587193D01*
X18201336Y-15644336D01*
X18201336Y-15758621D01*
X18215621Y-15787193D01*
X18229907Y-15801479D01*
X18258478Y-15815764D01*
X18315621Y-15815764D01*
X18344193Y-15801479D01*
X18358478Y-15787193D01*
X18372764Y-15758621D01*
X18372764Y-15687193D01*
X18358478Y-15658621D01*
X18344193Y-15644336D01*
X18315621Y-15630050D01*
X18258478Y-15630050D01*
X18229907Y-15644336D01*
X18215621Y-15658621D01*
X18201336Y-15687193D01*
X18729907Y-15815764D02*
X18729907Y-15515764D01*
X18858478Y-15815764D02*
X18858478Y-15658621D01*
X18844193Y-15630050D01*
X18815621Y-15615764D01*
X18772764Y-15615764D01*
X18744193Y-15630050D01*
X18729907Y-15644336D01*
X19044193Y-15815764D02*
X19015621Y-15801479D01*
X19001336Y-15787193D01*
X18987050Y-15758621D01*
X18987050Y-15672907D01*
X19001336Y-15644336D01*
X19015621Y-15630050D01*
X19044193Y-15615764D01*
X19087050Y-15615764D01*
X19115621Y-15630050D01*
X19129907Y-15644336D01*
X19144193Y-15672907D01*
X19144193Y-15758621D01*
X19129907Y-15787193D01*
X19115621Y-15801479D01*
X19087050Y-15815764D01*
X19044193Y-15815764D01*
X19315621Y-15815764D02*
X19287050Y-15801479D01*
X19272764Y-15772907D01*
X19272764Y-15515764D01*
X19544193Y-15801479D02*
X19515621Y-15815764D01*
X19458478Y-15815764D01*
X19429907Y-15801479D01*
X19415621Y-15772907D01*
X19415621Y-15658621D01*
X19429907Y-15630050D01*
X19458478Y-15615764D01*
X19515621Y-15615764D01*
X19544193Y-15630050D01*
X19558478Y-15658621D01*
X19558478Y-15687193D01*
X19415621Y-15715764D01*
X19672764Y-15801479D02*
X19701336Y-15815764D01*
X19758478Y-15815764D01*
X19787050Y-15801479D01*
X19801336Y-15772907D01*
X19801336Y-15758621D01*
X19787050Y-15730050D01*
X19758478Y-15715764D01*
X19715621Y-15715764D01*
X19687050Y-15701479D01*
X19672764Y-15672907D01*
X19672764Y-15658621D01*
X19687050Y-15630050D01*
X19715621Y-15615764D01*
X19758478Y-15615764D01*
X19787050Y-15630050D01*
X19901336Y-15930050D02*
X19915621Y-15915764D01*
X19944193Y-15872907D01*
X19958478Y-15844336D01*
X19972764Y-15801479D01*
X19987050Y-15730050D01*
X19987050Y-15672907D01*
X19972764Y-15601479D01*
X19958478Y-15558621D01*
X19944193Y-15530050D01*
X19915621Y-15487193D01*
X19901336Y-15472907D01*
M02*
