G04 #@! TF.GenerationSoftware,KiCad,Pcbnew,5.1.10*
G04 #@! TF.CreationDate,2021-08-30T11:46:02-07:00*
G04 #@! TF.ProjectId,M68K-BREAKOUT,4d36384b-2d42-4524-9541-4b4f55542e6b,rev?*
G04 #@! TF.SameCoordinates,Original*
G04 #@! TF.FileFunction,Copper,L4,Bot*
G04 #@! TF.FilePolarity,Positive*
%FSLAX46Y46*%
G04 Gerber Fmt 4.6, Leading zero omitted, Abs format (unit mm)*
G04 Created by KiCad (PCBNEW 5.1.10) date 2021-08-30 11:46:02*
%MOMM*%
%LPD*%
G01*
G04 APERTURE LIST*
G04 #@! TA.AperFunction,ComponentPad*
%ADD10O,1.350000X1.350000*%
G04 #@! TD*
G04 #@! TA.AperFunction,ComponentPad*
%ADD11R,1.350000X1.350000*%
G04 #@! TD*
G04 #@! TA.AperFunction,ComponentPad*
%ADD12O,1.600000X1.600000*%
G04 #@! TD*
G04 #@! TA.AperFunction,ComponentPad*
%ADD13R,1.600000X1.600000*%
G04 #@! TD*
G04 #@! TA.AperFunction,ViaPad*
%ADD14C,0.600000*%
G04 #@! TD*
G04 #@! TA.AperFunction,ViaPad*
%ADD15C,0.800000*%
G04 #@! TD*
G04 #@! TA.AperFunction,Conductor*
%ADD16C,0.254000*%
G04 #@! TD*
G04 #@! TA.AperFunction,Conductor*
%ADD17C,0.152400*%
G04 #@! TD*
G04 APERTURE END LIST*
G04 #@! TA.AperFunction,SMDPad,CuDef*
G36*
G01*
X126889500Y-107105000D02*
X127364500Y-107105000D01*
G75*
G02*
X127602000Y-107342500I0J-237500D01*
G01*
X127602000Y-107842500D01*
G75*
G02*
X127364500Y-108080000I-237500J0D01*
G01*
X126889500Y-108080000D01*
G75*
G02*
X126652000Y-107842500I0J237500D01*
G01*
X126652000Y-107342500D01*
G75*
G02*
X126889500Y-107105000I237500J0D01*
G01*
G37*
G04 #@! TD.AperFunction*
G04 #@! TA.AperFunction,SMDPad,CuDef*
G36*
G01*
X126889500Y-105280000D02*
X127364500Y-105280000D01*
G75*
G02*
X127602000Y-105517500I0J-237500D01*
G01*
X127602000Y-106017500D01*
G75*
G02*
X127364500Y-106255000I-237500J0D01*
G01*
X126889500Y-106255000D01*
G75*
G02*
X126652000Y-106017500I0J237500D01*
G01*
X126652000Y-105517500D01*
G75*
G02*
X126889500Y-105280000I237500J0D01*
G01*
G37*
G04 #@! TD.AperFunction*
D10*
X173241720Y-137092991D03*
X171241720Y-137092991D03*
X173241720Y-135092991D03*
X171241720Y-135092991D03*
X173241720Y-133092991D03*
X171241720Y-133092991D03*
X173241720Y-131092991D03*
X171241720Y-131092991D03*
X173241720Y-129092991D03*
X171241720Y-129092991D03*
X173241720Y-127092991D03*
X171241720Y-127092991D03*
X173241720Y-125092991D03*
X171241720Y-125092991D03*
X173241720Y-123092991D03*
X171241720Y-123092991D03*
X173241720Y-121092991D03*
D11*
X171241720Y-121092991D03*
D10*
X173241720Y-117092991D03*
X171241720Y-117092991D03*
X173241720Y-115092991D03*
X171241720Y-115092991D03*
X173241720Y-113092991D03*
X171241720Y-113092991D03*
X173241720Y-111092991D03*
X171241720Y-111092991D03*
X173241720Y-109092991D03*
X171241720Y-109092991D03*
X173241720Y-107092991D03*
X171241720Y-107092991D03*
X173241720Y-105092991D03*
X171241720Y-105092991D03*
X173241720Y-103092991D03*
X171241720Y-103092991D03*
X173241720Y-101092991D03*
D11*
X171241720Y-101092991D03*
D10*
X173241720Y-97092991D03*
X171241720Y-97092991D03*
X173241720Y-95092991D03*
X171241720Y-95092991D03*
X173241720Y-93092991D03*
X171241720Y-93092991D03*
X173241720Y-91092991D03*
X171241720Y-91092991D03*
X173241720Y-89092991D03*
X171241720Y-89092991D03*
X173241720Y-87092991D03*
X171241720Y-87092991D03*
X173241720Y-85092991D03*
X171241720Y-85092991D03*
X173241720Y-83092991D03*
X171241720Y-83092991D03*
X173241720Y-81092991D03*
D11*
X171241720Y-81092991D03*
D10*
X173241720Y-77092991D03*
X171241720Y-77092991D03*
X173241720Y-75092991D03*
X171241720Y-75092991D03*
X173241720Y-73092991D03*
X171241720Y-73092991D03*
X173241720Y-71092991D03*
X171241720Y-71092991D03*
X173241720Y-69092991D03*
X171241720Y-69092991D03*
X173241720Y-67092991D03*
X171241720Y-67092991D03*
X173241720Y-65092991D03*
X171241720Y-65092991D03*
X173241720Y-63092991D03*
X171241720Y-63092991D03*
X173241720Y-61092991D03*
D11*
X171241720Y-61092991D03*
G04 #@! TA.AperFunction,SMDPad,CuDef*
G36*
G01*
X164685000Y-96282500D02*
X164685000Y-96757500D01*
G75*
G02*
X164447500Y-96995000I-237500J0D01*
G01*
X163847500Y-96995000D01*
G75*
G02*
X163610000Y-96757500I0J237500D01*
G01*
X163610000Y-96282500D01*
G75*
G02*
X163847500Y-96045000I237500J0D01*
G01*
X164447500Y-96045000D01*
G75*
G02*
X164685000Y-96282500I0J-237500D01*
G01*
G37*
G04 #@! TD.AperFunction*
G04 #@! TA.AperFunction,SMDPad,CuDef*
G36*
G01*
X166410000Y-96282500D02*
X166410000Y-96757500D01*
G75*
G02*
X166172500Y-96995000I-237500J0D01*
G01*
X165572500Y-96995000D01*
G75*
G02*
X165335000Y-96757500I0J237500D01*
G01*
X165335000Y-96282500D01*
G75*
G02*
X165572500Y-96045000I237500J0D01*
G01*
X166172500Y-96045000D01*
G75*
G02*
X166410000Y-96282500I0J-237500D01*
G01*
G37*
G04 #@! TD.AperFunction*
G04 #@! TA.AperFunction,SMDPad,CuDef*
G36*
G01*
X159366000Y-96757500D02*
X159366000Y-96282500D01*
G75*
G02*
X159603500Y-96045000I237500J0D01*
G01*
X160203500Y-96045000D01*
G75*
G02*
X160441000Y-96282500I0J-237500D01*
G01*
X160441000Y-96757500D01*
G75*
G02*
X160203500Y-96995000I-237500J0D01*
G01*
X159603500Y-96995000D01*
G75*
G02*
X159366000Y-96757500I0J237500D01*
G01*
G37*
G04 #@! TD.AperFunction*
G04 #@! TA.AperFunction,SMDPad,CuDef*
G36*
G01*
X157641000Y-96757500D02*
X157641000Y-96282500D01*
G75*
G02*
X157878500Y-96045000I237500J0D01*
G01*
X158478500Y-96045000D01*
G75*
G02*
X158716000Y-96282500I0J-237500D01*
G01*
X158716000Y-96757500D01*
G75*
G02*
X158478500Y-96995000I-237500J0D01*
G01*
X157878500Y-96995000D01*
G75*
G02*
X157641000Y-96757500I0J237500D01*
G01*
G37*
G04 #@! TD.AperFunction*
G04 #@! TA.AperFunction,SMDPad,CuDef*
G36*
G01*
X165027000Y-94915500D02*
X165027000Y-94765500D01*
G75*
G02*
X165102000Y-94690500I75000J0D01*
G01*
X166427000Y-94690500D01*
G75*
G02*
X166502000Y-94765500I0J-75000D01*
G01*
X166502000Y-94915500D01*
G75*
G02*
X166427000Y-94990500I-75000J0D01*
G01*
X165102000Y-94990500D01*
G75*
G02*
X165027000Y-94915500I0J75000D01*
G01*
G37*
G04 #@! TD.AperFunction*
G04 #@! TA.AperFunction,SMDPad,CuDef*
G36*
G01*
X165027000Y-94415500D02*
X165027000Y-94265500D01*
G75*
G02*
X165102000Y-94190500I75000J0D01*
G01*
X166427000Y-94190500D01*
G75*
G02*
X166502000Y-94265500I0J-75000D01*
G01*
X166502000Y-94415500D01*
G75*
G02*
X166427000Y-94490500I-75000J0D01*
G01*
X165102000Y-94490500D01*
G75*
G02*
X165027000Y-94415500I0J75000D01*
G01*
G37*
G04 #@! TD.AperFunction*
G04 #@! TA.AperFunction,SMDPad,CuDef*
G36*
G01*
X165027000Y-93915500D02*
X165027000Y-93765500D01*
G75*
G02*
X165102000Y-93690500I75000J0D01*
G01*
X166427000Y-93690500D01*
G75*
G02*
X166502000Y-93765500I0J-75000D01*
G01*
X166502000Y-93915500D01*
G75*
G02*
X166427000Y-93990500I-75000J0D01*
G01*
X165102000Y-93990500D01*
G75*
G02*
X165027000Y-93915500I0J75000D01*
G01*
G37*
G04 #@! TD.AperFunction*
G04 #@! TA.AperFunction,SMDPad,CuDef*
G36*
G01*
X165027000Y-93415500D02*
X165027000Y-93265500D01*
G75*
G02*
X165102000Y-93190500I75000J0D01*
G01*
X166427000Y-93190500D01*
G75*
G02*
X166502000Y-93265500I0J-75000D01*
G01*
X166502000Y-93415500D01*
G75*
G02*
X166427000Y-93490500I-75000J0D01*
G01*
X165102000Y-93490500D01*
G75*
G02*
X165027000Y-93415500I0J75000D01*
G01*
G37*
G04 #@! TD.AperFunction*
G04 #@! TA.AperFunction,SMDPad,CuDef*
G36*
G01*
X165027000Y-92915500D02*
X165027000Y-92765500D01*
G75*
G02*
X165102000Y-92690500I75000J0D01*
G01*
X166427000Y-92690500D01*
G75*
G02*
X166502000Y-92765500I0J-75000D01*
G01*
X166502000Y-92915500D01*
G75*
G02*
X166427000Y-92990500I-75000J0D01*
G01*
X165102000Y-92990500D01*
G75*
G02*
X165027000Y-92915500I0J75000D01*
G01*
G37*
G04 #@! TD.AperFunction*
G04 #@! TA.AperFunction,SMDPad,CuDef*
G36*
G01*
X165027000Y-92415500D02*
X165027000Y-92265500D01*
G75*
G02*
X165102000Y-92190500I75000J0D01*
G01*
X166427000Y-92190500D01*
G75*
G02*
X166502000Y-92265500I0J-75000D01*
G01*
X166502000Y-92415500D01*
G75*
G02*
X166427000Y-92490500I-75000J0D01*
G01*
X165102000Y-92490500D01*
G75*
G02*
X165027000Y-92415500I0J75000D01*
G01*
G37*
G04 #@! TD.AperFunction*
G04 #@! TA.AperFunction,SMDPad,CuDef*
G36*
G01*
X165027000Y-91915500D02*
X165027000Y-91765500D01*
G75*
G02*
X165102000Y-91690500I75000J0D01*
G01*
X166427000Y-91690500D01*
G75*
G02*
X166502000Y-91765500I0J-75000D01*
G01*
X166502000Y-91915500D01*
G75*
G02*
X166427000Y-91990500I-75000J0D01*
G01*
X165102000Y-91990500D01*
G75*
G02*
X165027000Y-91915500I0J75000D01*
G01*
G37*
G04 #@! TD.AperFunction*
G04 #@! TA.AperFunction,SMDPad,CuDef*
G36*
G01*
X165027000Y-91415500D02*
X165027000Y-91265500D01*
G75*
G02*
X165102000Y-91190500I75000J0D01*
G01*
X166427000Y-91190500D01*
G75*
G02*
X166502000Y-91265500I0J-75000D01*
G01*
X166502000Y-91415500D01*
G75*
G02*
X166427000Y-91490500I-75000J0D01*
G01*
X165102000Y-91490500D01*
G75*
G02*
X165027000Y-91415500I0J75000D01*
G01*
G37*
G04 #@! TD.AperFunction*
G04 #@! TA.AperFunction,SMDPad,CuDef*
G36*
G01*
X165027000Y-90915500D02*
X165027000Y-90765500D01*
G75*
G02*
X165102000Y-90690500I75000J0D01*
G01*
X166427000Y-90690500D01*
G75*
G02*
X166502000Y-90765500I0J-75000D01*
G01*
X166502000Y-90915500D01*
G75*
G02*
X166427000Y-90990500I-75000J0D01*
G01*
X165102000Y-90990500D01*
G75*
G02*
X165027000Y-90915500I0J75000D01*
G01*
G37*
G04 #@! TD.AperFunction*
G04 #@! TA.AperFunction,SMDPad,CuDef*
G36*
G01*
X165027000Y-90415500D02*
X165027000Y-90265500D01*
G75*
G02*
X165102000Y-90190500I75000J0D01*
G01*
X166427000Y-90190500D01*
G75*
G02*
X166502000Y-90265500I0J-75000D01*
G01*
X166502000Y-90415500D01*
G75*
G02*
X166427000Y-90490500I-75000J0D01*
G01*
X165102000Y-90490500D01*
G75*
G02*
X165027000Y-90415500I0J75000D01*
G01*
G37*
G04 #@! TD.AperFunction*
G04 #@! TA.AperFunction,SMDPad,CuDef*
G36*
G01*
X165027000Y-89915500D02*
X165027000Y-89765500D01*
G75*
G02*
X165102000Y-89690500I75000J0D01*
G01*
X166427000Y-89690500D01*
G75*
G02*
X166502000Y-89765500I0J-75000D01*
G01*
X166502000Y-89915500D01*
G75*
G02*
X166427000Y-89990500I-75000J0D01*
G01*
X165102000Y-89990500D01*
G75*
G02*
X165027000Y-89915500I0J75000D01*
G01*
G37*
G04 #@! TD.AperFunction*
G04 #@! TA.AperFunction,SMDPad,CuDef*
G36*
G01*
X165027000Y-89415500D02*
X165027000Y-89265500D01*
G75*
G02*
X165102000Y-89190500I75000J0D01*
G01*
X166427000Y-89190500D01*
G75*
G02*
X166502000Y-89265500I0J-75000D01*
G01*
X166502000Y-89415500D01*
G75*
G02*
X166427000Y-89490500I-75000J0D01*
G01*
X165102000Y-89490500D01*
G75*
G02*
X165027000Y-89415500I0J75000D01*
G01*
G37*
G04 #@! TD.AperFunction*
G04 #@! TA.AperFunction,SMDPad,CuDef*
G36*
G01*
X165027000Y-88915500D02*
X165027000Y-88765500D01*
G75*
G02*
X165102000Y-88690500I75000J0D01*
G01*
X166427000Y-88690500D01*
G75*
G02*
X166502000Y-88765500I0J-75000D01*
G01*
X166502000Y-88915500D01*
G75*
G02*
X166427000Y-88990500I-75000J0D01*
G01*
X165102000Y-88990500D01*
G75*
G02*
X165027000Y-88915500I0J75000D01*
G01*
G37*
G04 #@! TD.AperFunction*
G04 #@! TA.AperFunction,SMDPad,CuDef*
G36*
G01*
X165027000Y-88415500D02*
X165027000Y-88265500D01*
G75*
G02*
X165102000Y-88190500I75000J0D01*
G01*
X166427000Y-88190500D01*
G75*
G02*
X166502000Y-88265500I0J-75000D01*
G01*
X166502000Y-88415500D01*
G75*
G02*
X166427000Y-88490500I-75000J0D01*
G01*
X165102000Y-88490500D01*
G75*
G02*
X165027000Y-88415500I0J75000D01*
G01*
G37*
G04 #@! TD.AperFunction*
G04 #@! TA.AperFunction,SMDPad,CuDef*
G36*
G01*
X165027000Y-87915500D02*
X165027000Y-87765500D01*
G75*
G02*
X165102000Y-87690500I75000J0D01*
G01*
X166427000Y-87690500D01*
G75*
G02*
X166502000Y-87765500I0J-75000D01*
G01*
X166502000Y-87915500D01*
G75*
G02*
X166427000Y-87990500I-75000J0D01*
G01*
X165102000Y-87990500D01*
G75*
G02*
X165027000Y-87915500I0J75000D01*
G01*
G37*
G04 #@! TD.AperFunction*
G04 #@! TA.AperFunction,SMDPad,CuDef*
G36*
G01*
X165027000Y-87415500D02*
X165027000Y-87265500D01*
G75*
G02*
X165102000Y-87190500I75000J0D01*
G01*
X166427000Y-87190500D01*
G75*
G02*
X166502000Y-87265500I0J-75000D01*
G01*
X166502000Y-87415500D01*
G75*
G02*
X166427000Y-87490500I-75000J0D01*
G01*
X165102000Y-87490500D01*
G75*
G02*
X165027000Y-87415500I0J75000D01*
G01*
G37*
G04 #@! TD.AperFunction*
G04 #@! TA.AperFunction,SMDPad,CuDef*
G36*
G01*
X165027000Y-86915500D02*
X165027000Y-86765500D01*
G75*
G02*
X165102000Y-86690500I75000J0D01*
G01*
X166427000Y-86690500D01*
G75*
G02*
X166502000Y-86765500I0J-75000D01*
G01*
X166502000Y-86915500D01*
G75*
G02*
X166427000Y-86990500I-75000J0D01*
G01*
X165102000Y-86990500D01*
G75*
G02*
X165027000Y-86915500I0J75000D01*
G01*
G37*
G04 #@! TD.AperFunction*
G04 #@! TA.AperFunction,SMDPad,CuDef*
G36*
G01*
X165027000Y-86415500D02*
X165027000Y-86265500D01*
G75*
G02*
X165102000Y-86190500I75000J0D01*
G01*
X166427000Y-86190500D01*
G75*
G02*
X166502000Y-86265500I0J-75000D01*
G01*
X166502000Y-86415500D01*
G75*
G02*
X166427000Y-86490500I-75000J0D01*
G01*
X165102000Y-86490500D01*
G75*
G02*
X165027000Y-86415500I0J75000D01*
G01*
G37*
G04 #@! TD.AperFunction*
G04 #@! TA.AperFunction,SMDPad,CuDef*
G36*
G01*
X165027000Y-85915500D02*
X165027000Y-85765500D01*
G75*
G02*
X165102000Y-85690500I75000J0D01*
G01*
X166427000Y-85690500D01*
G75*
G02*
X166502000Y-85765500I0J-75000D01*
G01*
X166502000Y-85915500D01*
G75*
G02*
X166427000Y-85990500I-75000J0D01*
G01*
X165102000Y-85990500D01*
G75*
G02*
X165027000Y-85915500I0J75000D01*
G01*
G37*
G04 #@! TD.AperFunction*
G04 #@! TA.AperFunction,SMDPad,CuDef*
G36*
G01*
X165027000Y-85415500D02*
X165027000Y-85265500D01*
G75*
G02*
X165102000Y-85190500I75000J0D01*
G01*
X166427000Y-85190500D01*
G75*
G02*
X166502000Y-85265500I0J-75000D01*
G01*
X166502000Y-85415500D01*
G75*
G02*
X166427000Y-85490500I-75000J0D01*
G01*
X165102000Y-85490500D01*
G75*
G02*
X165027000Y-85415500I0J75000D01*
G01*
G37*
G04 #@! TD.AperFunction*
G04 #@! TA.AperFunction,SMDPad,CuDef*
G36*
G01*
X165027000Y-84915500D02*
X165027000Y-84765500D01*
G75*
G02*
X165102000Y-84690500I75000J0D01*
G01*
X166427000Y-84690500D01*
G75*
G02*
X166502000Y-84765500I0J-75000D01*
G01*
X166502000Y-84915500D01*
G75*
G02*
X166427000Y-84990500I-75000J0D01*
G01*
X165102000Y-84990500D01*
G75*
G02*
X165027000Y-84915500I0J75000D01*
G01*
G37*
G04 #@! TD.AperFunction*
G04 #@! TA.AperFunction,SMDPad,CuDef*
G36*
G01*
X165027000Y-84415500D02*
X165027000Y-84265500D01*
G75*
G02*
X165102000Y-84190500I75000J0D01*
G01*
X166427000Y-84190500D01*
G75*
G02*
X166502000Y-84265500I0J-75000D01*
G01*
X166502000Y-84415500D01*
G75*
G02*
X166427000Y-84490500I-75000J0D01*
G01*
X165102000Y-84490500D01*
G75*
G02*
X165027000Y-84415500I0J75000D01*
G01*
G37*
G04 #@! TD.AperFunction*
G04 #@! TA.AperFunction,SMDPad,CuDef*
G36*
G01*
X165027000Y-83915500D02*
X165027000Y-83765500D01*
G75*
G02*
X165102000Y-83690500I75000J0D01*
G01*
X166427000Y-83690500D01*
G75*
G02*
X166502000Y-83765500I0J-75000D01*
G01*
X166502000Y-83915500D01*
G75*
G02*
X166427000Y-83990500I-75000J0D01*
G01*
X165102000Y-83990500D01*
G75*
G02*
X165027000Y-83915500I0J75000D01*
G01*
G37*
G04 #@! TD.AperFunction*
G04 #@! TA.AperFunction,SMDPad,CuDef*
G36*
G01*
X165027000Y-83415500D02*
X165027000Y-83265500D01*
G75*
G02*
X165102000Y-83190500I75000J0D01*
G01*
X166427000Y-83190500D01*
G75*
G02*
X166502000Y-83265500I0J-75000D01*
G01*
X166502000Y-83415500D01*
G75*
G02*
X166427000Y-83490500I-75000J0D01*
G01*
X165102000Y-83490500D01*
G75*
G02*
X165027000Y-83415500I0J75000D01*
G01*
G37*
G04 #@! TD.AperFunction*
G04 #@! TA.AperFunction,SMDPad,CuDef*
G36*
G01*
X157602000Y-83415500D02*
X157602000Y-83265500D01*
G75*
G02*
X157677000Y-83190500I75000J0D01*
G01*
X159002000Y-83190500D01*
G75*
G02*
X159077000Y-83265500I0J-75000D01*
G01*
X159077000Y-83415500D01*
G75*
G02*
X159002000Y-83490500I-75000J0D01*
G01*
X157677000Y-83490500D01*
G75*
G02*
X157602000Y-83415500I0J75000D01*
G01*
G37*
G04 #@! TD.AperFunction*
G04 #@! TA.AperFunction,SMDPad,CuDef*
G36*
G01*
X157602000Y-83915500D02*
X157602000Y-83765500D01*
G75*
G02*
X157677000Y-83690500I75000J0D01*
G01*
X159002000Y-83690500D01*
G75*
G02*
X159077000Y-83765500I0J-75000D01*
G01*
X159077000Y-83915500D01*
G75*
G02*
X159002000Y-83990500I-75000J0D01*
G01*
X157677000Y-83990500D01*
G75*
G02*
X157602000Y-83915500I0J75000D01*
G01*
G37*
G04 #@! TD.AperFunction*
G04 #@! TA.AperFunction,SMDPad,CuDef*
G36*
G01*
X157602000Y-84415500D02*
X157602000Y-84265500D01*
G75*
G02*
X157677000Y-84190500I75000J0D01*
G01*
X159002000Y-84190500D01*
G75*
G02*
X159077000Y-84265500I0J-75000D01*
G01*
X159077000Y-84415500D01*
G75*
G02*
X159002000Y-84490500I-75000J0D01*
G01*
X157677000Y-84490500D01*
G75*
G02*
X157602000Y-84415500I0J75000D01*
G01*
G37*
G04 #@! TD.AperFunction*
G04 #@! TA.AperFunction,SMDPad,CuDef*
G36*
G01*
X157602000Y-84915500D02*
X157602000Y-84765500D01*
G75*
G02*
X157677000Y-84690500I75000J0D01*
G01*
X159002000Y-84690500D01*
G75*
G02*
X159077000Y-84765500I0J-75000D01*
G01*
X159077000Y-84915500D01*
G75*
G02*
X159002000Y-84990500I-75000J0D01*
G01*
X157677000Y-84990500D01*
G75*
G02*
X157602000Y-84915500I0J75000D01*
G01*
G37*
G04 #@! TD.AperFunction*
G04 #@! TA.AperFunction,SMDPad,CuDef*
G36*
G01*
X157602000Y-85415500D02*
X157602000Y-85265500D01*
G75*
G02*
X157677000Y-85190500I75000J0D01*
G01*
X159002000Y-85190500D01*
G75*
G02*
X159077000Y-85265500I0J-75000D01*
G01*
X159077000Y-85415500D01*
G75*
G02*
X159002000Y-85490500I-75000J0D01*
G01*
X157677000Y-85490500D01*
G75*
G02*
X157602000Y-85415500I0J75000D01*
G01*
G37*
G04 #@! TD.AperFunction*
G04 #@! TA.AperFunction,SMDPad,CuDef*
G36*
G01*
X157602000Y-85915500D02*
X157602000Y-85765500D01*
G75*
G02*
X157677000Y-85690500I75000J0D01*
G01*
X159002000Y-85690500D01*
G75*
G02*
X159077000Y-85765500I0J-75000D01*
G01*
X159077000Y-85915500D01*
G75*
G02*
X159002000Y-85990500I-75000J0D01*
G01*
X157677000Y-85990500D01*
G75*
G02*
X157602000Y-85915500I0J75000D01*
G01*
G37*
G04 #@! TD.AperFunction*
G04 #@! TA.AperFunction,SMDPad,CuDef*
G36*
G01*
X157602000Y-86415500D02*
X157602000Y-86265500D01*
G75*
G02*
X157677000Y-86190500I75000J0D01*
G01*
X159002000Y-86190500D01*
G75*
G02*
X159077000Y-86265500I0J-75000D01*
G01*
X159077000Y-86415500D01*
G75*
G02*
X159002000Y-86490500I-75000J0D01*
G01*
X157677000Y-86490500D01*
G75*
G02*
X157602000Y-86415500I0J75000D01*
G01*
G37*
G04 #@! TD.AperFunction*
G04 #@! TA.AperFunction,SMDPad,CuDef*
G36*
G01*
X157602000Y-86915500D02*
X157602000Y-86765500D01*
G75*
G02*
X157677000Y-86690500I75000J0D01*
G01*
X159002000Y-86690500D01*
G75*
G02*
X159077000Y-86765500I0J-75000D01*
G01*
X159077000Y-86915500D01*
G75*
G02*
X159002000Y-86990500I-75000J0D01*
G01*
X157677000Y-86990500D01*
G75*
G02*
X157602000Y-86915500I0J75000D01*
G01*
G37*
G04 #@! TD.AperFunction*
G04 #@! TA.AperFunction,SMDPad,CuDef*
G36*
G01*
X157602000Y-87415500D02*
X157602000Y-87265500D01*
G75*
G02*
X157677000Y-87190500I75000J0D01*
G01*
X159002000Y-87190500D01*
G75*
G02*
X159077000Y-87265500I0J-75000D01*
G01*
X159077000Y-87415500D01*
G75*
G02*
X159002000Y-87490500I-75000J0D01*
G01*
X157677000Y-87490500D01*
G75*
G02*
X157602000Y-87415500I0J75000D01*
G01*
G37*
G04 #@! TD.AperFunction*
G04 #@! TA.AperFunction,SMDPad,CuDef*
G36*
G01*
X157602000Y-87915500D02*
X157602000Y-87765500D01*
G75*
G02*
X157677000Y-87690500I75000J0D01*
G01*
X159002000Y-87690500D01*
G75*
G02*
X159077000Y-87765500I0J-75000D01*
G01*
X159077000Y-87915500D01*
G75*
G02*
X159002000Y-87990500I-75000J0D01*
G01*
X157677000Y-87990500D01*
G75*
G02*
X157602000Y-87915500I0J75000D01*
G01*
G37*
G04 #@! TD.AperFunction*
G04 #@! TA.AperFunction,SMDPad,CuDef*
G36*
G01*
X157602000Y-88415500D02*
X157602000Y-88265500D01*
G75*
G02*
X157677000Y-88190500I75000J0D01*
G01*
X159002000Y-88190500D01*
G75*
G02*
X159077000Y-88265500I0J-75000D01*
G01*
X159077000Y-88415500D01*
G75*
G02*
X159002000Y-88490500I-75000J0D01*
G01*
X157677000Y-88490500D01*
G75*
G02*
X157602000Y-88415500I0J75000D01*
G01*
G37*
G04 #@! TD.AperFunction*
G04 #@! TA.AperFunction,SMDPad,CuDef*
G36*
G01*
X157602000Y-88915500D02*
X157602000Y-88765500D01*
G75*
G02*
X157677000Y-88690500I75000J0D01*
G01*
X159002000Y-88690500D01*
G75*
G02*
X159077000Y-88765500I0J-75000D01*
G01*
X159077000Y-88915500D01*
G75*
G02*
X159002000Y-88990500I-75000J0D01*
G01*
X157677000Y-88990500D01*
G75*
G02*
X157602000Y-88915500I0J75000D01*
G01*
G37*
G04 #@! TD.AperFunction*
G04 #@! TA.AperFunction,SMDPad,CuDef*
G36*
G01*
X157602000Y-89415500D02*
X157602000Y-89265500D01*
G75*
G02*
X157677000Y-89190500I75000J0D01*
G01*
X159002000Y-89190500D01*
G75*
G02*
X159077000Y-89265500I0J-75000D01*
G01*
X159077000Y-89415500D01*
G75*
G02*
X159002000Y-89490500I-75000J0D01*
G01*
X157677000Y-89490500D01*
G75*
G02*
X157602000Y-89415500I0J75000D01*
G01*
G37*
G04 #@! TD.AperFunction*
G04 #@! TA.AperFunction,SMDPad,CuDef*
G36*
G01*
X157602000Y-89915500D02*
X157602000Y-89765500D01*
G75*
G02*
X157677000Y-89690500I75000J0D01*
G01*
X159002000Y-89690500D01*
G75*
G02*
X159077000Y-89765500I0J-75000D01*
G01*
X159077000Y-89915500D01*
G75*
G02*
X159002000Y-89990500I-75000J0D01*
G01*
X157677000Y-89990500D01*
G75*
G02*
X157602000Y-89915500I0J75000D01*
G01*
G37*
G04 #@! TD.AperFunction*
G04 #@! TA.AperFunction,SMDPad,CuDef*
G36*
G01*
X157602000Y-90415500D02*
X157602000Y-90265500D01*
G75*
G02*
X157677000Y-90190500I75000J0D01*
G01*
X159002000Y-90190500D01*
G75*
G02*
X159077000Y-90265500I0J-75000D01*
G01*
X159077000Y-90415500D01*
G75*
G02*
X159002000Y-90490500I-75000J0D01*
G01*
X157677000Y-90490500D01*
G75*
G02*
X157602000Y-90415500I0J75000D01*
G01*
G37*
G04 #@! TD.AperFunction*
G04 #@! TA.AperFunction,SMDPad,CuDef*
G36*
G01*
X157602000Y-90915500D02*
X157602000Y-90765500D01*
G75*
G02*
X157677000Y-90690500I75000J0D01*
G01*
X159002000Y-90690500D01*
G75*
G02*
X159077000Y-90765500I0J-75000D01*
G01*
X159077000Y-90915500D01*
G75*
G02*
X159002000Y-90990500I-75000J0D01*
G01*
X157677000Y-90990500D01*
G75*
G02*
X157602000Y-90915500I0J75000D01*
G01*
G37*
G04 #@! TD.AperFunction*
G04 #@! TA.AperFunction,SMDPad,CuDef*
G36*
G01*
X157602000Y-91415500D02*
X157602000Y-91265500D01*
G75*
G02*
X157677000Y-91190500I75000J0D01*
G01*
X159002000Y-91190500D01*
G75*
G02*
X159077000Y-91265500I0J-75000D01*
G01*
X159077000Y-91415500D01*
G75*
G02*
X159002000Y-91490500I-75000J0D01*
G01*
X157677000Y-91490500D01*
G75*
G02*
X157602000Y-91415500I0J75000D01*
G01*
G37*
G04 #@! TD.AperFunction*
G04 #@! TA.AperFunction,SMDPad,CuDef*
G36*
G01*
X157602000Y-91915500D02*
X157602000Y-91765500D01*
G75*
G02*
X157677000Y-91690500I75000J0D01*
G01*
X159002000Y-91690500D01*
G75*
G02*
X159077000Y-91765500I0J-75000D01*
G01*
X159077000Y-91915500D01*
G75*
G02*
X159002000Y-91990500I-75000J0D01*
G01*
X157677000Y-91990500D01*
G75*
G02*
X157602000Y-91915500I0J75000D01*
G01*
G37*
G04 #@! TD.AperFunction*
G04 #@! TA.AperFunction,SMDPad,CuDef*
G36*
G01*
X157602000Y-92415500D02*
X157602000Y-92265500D01*
G75*
G02*
X157677000Y-92190500I75000J0D01*
G01*
X159002000Y-92190500D01*
G75*
G02*
X159077000Y-92265500I0J-75000D01*
G01*
X159077000Y-92415500D01*
G75*
G02*
X159002000Y-92490500I-75000J0D01*
G01*
X157677000Y-92490500D01*
G75*
G02*
X157602000Y-92415500I0J75000D01*
G01*
G37*
G04 #@! TD.AperFunction*
G04 #@! TA.AperFunction,SMDPad,CuDef*
G36*
G01*
X157602000Y-92915500D02*
X157602000Y-92765500D01*
G75*
G02*
X157677000Y-92690500I75000J0D01*
G01*
X159002000Y-92690500D01*
G75*
G02*
X159077000Y-92765500I0J-75000D01*
G01*
X159077000Y-92915500D01*
G75*
G02*
X159002000Y-92990500I-75000J0D01*
G01*
X157677000Y-92990500D01*
G75*
G02*
X157602000Y-92915500I0J75000D01*
G01*
G37*
G04 #@! TD.AperFunction*
G04 #@! TA.AperFunction,SMDPad,CuDef*
G36*
G01*
X157602000Y-93415500D02*
X157602000Y-93265500D01*
G75*
G02*
X157677000Y-93190500I75000J0D01*
G01*
X159002000Y-93190500D01*
G75*
G02*
X159077000Y-93265500I0J-75000D01*
G01*
X159077000Y-93415500D01*
G75*
G02*
X159002000Y-93490500I-75000J0D01*
G01*
X157677000Y-93490500D01*
G75*
G02*
X157602000Y-93415500I0J75000D01*
G01*
G37*
G04 #@! TD.AperFunction*
G04 #@! TA.AperFunction,SMDPad,CuDef*
G36*
G01*
X157602000Y-93915500D02*
X157602000Y-93765500D01*
G75*
G02*
X157677000Y-93690500I75000J0D01*
G01*
X159002000Y-93690500D01*
G75*
G02*
X159077000Y-93765500I0J-75000D01*
G01*
X159077000Y-93915500D01*
G75*
G02*
X159002000Y-93990500I-75000J0D01*
G01*
X157677000Y-93990500D01*
G75*
G02*
X157602000Y-93915500I0J75000D01*
G01*
G37*
G04 #@! TD.AperFunction*
G04 #@! TA.AperFunction,SMDPad,CuDef*
G36*
G01*
X157602000Y-94415500D02*
X157602000Y-94265500D01*
G75*
G02*
X157677000Y-94190500I75000J0D01*
G01*
X159002000Y-94190500D01*
G75*
G02*
X159077000Y-94265500I0J-75000D01*
G01*
X159077000Y-94415500D01*
G75*
G02*
X159002000Y-94490500I-75000J0D01*
G01*
X157677000Y-94490500D01*
G75*
G02*
X157602000Y-94415500I0J75000D01*
G01*
G37*
G04 #@! TD.AperFunction*
G04 #@! TA.AperFunction,SMDPad,CuDef*
G36*
G01*
X157602000Y-94915500D02*
X157602000Y-94765500D01*
G75*
G02*
X157677000Y-94690500I75000J0D01*
G01*
X159002000Y-94690500D01*
G75*
G02*
X159077000Y-94765500I0J-75000D01*
G01*
X159077000Y-94915500D01*
G75*
G02*
X159002000Y-94990500I-75000J0D01*
G01*
X157677000Y-94990500D01*
G75*
G02*
X157602000Y-94915500I0J75000D01*
G01*
G37*
G04 #@! TD.AperFunction*
G04 #@! TA.AperFunction,SMDPad,CuDef*
G36*
G01*
X144100500Y-95901500D02*
X144100500Y-96376500D01*
G75*
G02*
X143863000Y-96614000I-237500J0D01*
G01*
X143263000Y-96614000D01*
G75*
G02*
X143025500Y-96376500I0J237500D01*
G01*
X143025500Y-95901500D01*
G75*
G02*
X143263000Y-95664000I237500J0D01*
G01*
X143863000Y-95664000D01*
G75*
G02*
X144100500Y-95901500I0J-237500D01*
G01*
G37*
G04 #@! TD.AperFunction*
G04 #@! TA.AperFunction,SMDPad,CuDef*
G36*
G01*
X145825500Y-95901500D02*
X145825500Y-96376500D01*
G75*
G02*
X145588000Y-96614000I-237500J0D01*
G01*
X144988000Y-96614000D01*
G75*
G02*
X144750500Y-96376500I0J237500D01*
G01*
X144750500Y-95901500D01*
G75*
G02*
X144988000Y-95664000I237500J0D01*
G01*
X145588000Y-95664000D01*
G75*
G02*
X145825500Y-95901500I0J-237500D01*
G01*
G37*
G04 #@! TD.AperFunction*
G04 #@! TA.AperFunction,SMDPad,CuDef*
G36*
G01*
X128695500Y-91296500D02*
X128695500Y-90821500D01*
G75*
G02*
X128933000Y-90584000I237500J0D01*
G01*
X129533000Y-90584000D01*
G75*
G02*
X129770500Y-90821500I0J-237500D01*
G01*
X129770500Y-91296500D01*
G75*
G02*
X129533000Y-91534000I-237500J0D01*
G01*
X128933000Y-91534000D01*
G75*
G02*
X128695500Y-91296500I0J237500D01*
G01*
G37*
G04 #@! TD.AperFunction*
G04 #@! TA.AperFunction,SMDPad,CuDef*
G36*
G01*
X126970500Y-91296500D02*
X126970500Y-90821500D01*
G75*
G02*
X127208000Y-90584000I237500J0D01*
G01*
X127808000Y-90584000D01*
G75*
G02*
X128045500Y-90821500I0J-237500D01*
G01*
X128045500Y-91296500D01*
G75*
G02*
X127808000Y-91534000I-237500J0D01*
G01*
X127208000Y-91534000D01*
G75*
G02*
X126970500Y-91296500I0J237500D01*
G01*
G37*
G04 #@! TD.AperFunction*
G04 #@! TA.AperFunction,SMDPad,CuDef*
G36*
G01*
X126889500Y-98191500D02*
X127364500Y-98191500D01*
G75*
G02*
X127602000Y-98429000I0J-237500D01*
G01*
X127602000Y-98929000D01*
G75*
G02*
X127364500Y-99166500I-237500J0D01*
G01*
X126889500Y-99166500D01*
G75*
G02*
X126652000Y-98929000I0J237500D01*
G01*
X126652000Y-98429000D01*
G75*
G02*
X126889500Y-98191500I237500J0D01*
G01*
G37*
G04 #@! TD.AperFunction*
G04 #@! TA.AperFunction,SMDPad,CuDef*
G36*
G01*
X126889500Y-96366500D02*
X127364500Y-96366500D01*
G75*
G02*
X127602000Y-96604000I0J-237500D01*
G01*
X127602000Y-97104000D01*
G75*
G02*
X127364500Y-97341500I-237500J0D01*
G01*
X126889500Y-97341500D01*
G75*
G02*
X126652000Y-97104000I0J237500D01*
G01*
X126652000Y-96604000D01*
G75*
G02*
X126889500Y-96366500I237500J0D01*
G01*
G37*
G04 #@! TD.AperFunction*
G04 #@! TA.AperFunction,SMDPad,CuDef*
G36*
G01*
X127364500Y-101683000D02*
X126889500Y-101683000D01*
G75*
G02*
X126652000Y-101445500I0J237500D01*
G01*
X126652000Y-100945500D01*
G75*
G02*
X126889500Y-100708000I237500J0D01*
G01*
X127364500Y-100708000D01*
G75*
G02*
X127602000Y-100945500I0J-237500D01*
G01*
X127602000Y-101445500D01*
G75*
G02*
X127364500Y-101683000I-237500J0D01*
G01*
G37*
G04 #@! TD.AperFunction*
G04 #@! TA.AperFunction,SMDPad,CuDef*
G36*
G01*
X127364500Y-103508000D02*
X126889500Y-103508000D01*
G75*
G02*
X126652000Y-103270500I0J237500D01*
G01*
X126652000Y-102770500D01*
G75*
G02*
X126889500Y-102533000I237500J0D01*
G01*
X127364500Y-102533000D01*
G75*
G02*
X127602000Y-102770500I0J-237500D01*
G01*
X127602000Y-103270500D01*
G75*
G02*
X127364500Y-103508000I-237500J0D01*
G01*
G37*
G04 #@! TD.AperFunction*
D12*
X147828000Y-58039000D03*
X124968000Y-136779000D03*
X147828000Y-60579000D03*
X124968000Y-134239000D03*
X147828000Y-63119000D03*
X124968000Y-131699000D03*
X147828000Y-65659000D03*
X124968000Y-129159000D03*
X147828000Y-68199000D03*
X124968000Y-126619000D03*
X147828000Y-70739000D03*
X124968000Y-124079000D03*
X147828000Y-73279000D03*
X124968000Y-121539000D03*
X147828000Y-75819000D03*
X124968000Y-118999000D03*
X147828000Y-78359000D03*
X124968000Y-116459000D03*
X147828000Y-80899000D03*
X124968000Y-113919000D03*
X147828000Y-83439000D03*
X124968000Y-111379000D03*
X147828000Y-85979000D03*
X124968000Y-108839000D03*
X147828000Y-88519000D03*
X124968000Y-106299000D03*
X147828000Y-91059000D03*
X124968000Y-103759000D03*
X147828000Y-93599000D03*
X124968000Y-101219000D03*
X147828000Y-96139000D03*
X124968000Y-98679000D03*
X147828000Y-98679000D03*
X124968000Y-96139000D03*
X147828000Y-101219000D03*
X124968000Y-93599000D03*
X147828000Y-103759000D03*
X124968000Y-91059000D03*
X147828000Y-106299000D03*
X124968000Y-88519000D03*
X147828000Y-108839000D03*
X124968000Y-85979000D03*
X147828000Y-111379000D03*
X124968000Y-83439000D03*
X147828000Y-113919000D03*
X124968000Y-80899000D03*
X147828000Y-116459000D03*
X124968000Y-78359000D03*
X147828000Y-118999000D03*
X124968000Y-75819000D03*
X147828000Y-121539000D03*
X124968000Y-73279000D03*
X147828000Y-124079000D03*
X124968000Y-70739000D03*
X147828000Y-126619000D03*
X124968000Y-68199000D03*
X147828000Y-129159000D03*
X124968000Y-65659000D03*
X147828000Y-131699000D03*
X124968000Y-63119000D03*
X147828000Y-134239000D03*
X124968000Y-60579000D03*
X147828000Y-136779000D03*
D13*
X124968000Y-58039000D03*
D14*
X130556000Y-91059000D03*
X142240000Y-96139000D03*
X160972500Y-61658500D03*
X163068000Y-61658500D03*
X159766000Y-64833500D03*
X159766000Y-67818000D03*
X159766000Y-70358000D03*
X159766000Y-73342500D03*
X164338000Y-64833500D03*
X164338000Y-63373000D03*
X164338000Y-67818000D03*
X164338000Y-70358000D03*
X164338000Y-73342500D03*
X164338000Y-74866500D03*
X160972500Y-96520000D03*
X163068000Y-96520000D03*
X166941500Y-82994500D03*
X160083500Y-83693000D03*
X162941000Y-92900500D03*
X161290000Y-92900500D03*
X160972500Y-101663500D03*
X163068000Y-101663500D03*
X159766000Y-103314500D03*
X159766000Y-104838500D03*
X159766000Y-107823000D03*
X159766000Y-110363000D03*
X159766000Y-113347500D03*
X159766000Y-114808000D03*
X164338000Y-103378000D03*
X164338000Y-104838500D03*
X164338000Y-107823000D03*
X164338000Y-110299500D03*
X164338000Y-113347500D03*
X164338000Y-114808000D03*
X161036000Y-121666000D03*
X163068000Y-121666000D03*
X159766000Y-123380500D03*
X164338000Y-123380500D03*
X159766000Y-124841000D03*
X159766000Y-127825500D03*
X159766000Y-130365500D03*
X159766000Y-133350000D03*
X159766000Y-134874000D03*
X164338000Y-127825500D03*
X164338000Y-130365500D03*
X164338000Y-133350000D03*
X164338000Y-134874000D03*
X164338000Y-94869000D03*
X164338000Y-124841000D03*
X162984500Y-90340500D03*
X161036000Y-87820500D03*
X162941000Y-87820500D03*
D15*
X127127000Y-104394000D03*
D14*
X127127000Y-95504000D03*
X157099000Y-61658500D03*
X159766000Y-71882000D03*
X159766000Y-66357500D03*
X157099000Y-96520000D03*
X157099000Y-101663500D03*
X159766000Y-106362500D03*
X159766000Y-111887000D03*
X157162500Y-121666000D03*
X159766000Y-126365000D03*
X159766000Y-131826000D03*
X155378687Y-91916700D03*
X159766000Y-69088000D03*
X159766000Y-109093000D03*
X159766000Y-94869000D03*
X156718000Y-86487000D03*
X161036000Y-89090500D03*
X161036000Y-86550500D03*
X154051000Y-127889000D03*
X154051000Y-125349000D03*
X154051000Y-122809000D03*
X154813000Y-91313000D03*
X155321000Y-90614500D03*
X154813000Y-89979500D03*
X155321000Y-89344500D03*
D15*
X153808500Y-85840500D03*
D14*
X166941500Y-61595000D03*
X164338000Y-66357500D03*
X164338000Y-71818500D03*
X163893500Y-83693000D03*
X163004500Y-89090500D03*
X163004500Y-86550500D03*
X163004500Y-91630500D03*
X166941500Y-101663500D03*
X164338000Y-106362500D03*
X164338000Y-111823500D03*
X163004500Y-85280500D03*
X166941500Y-121666000D03*
X164338000Y-126365000D03*
X164338000Y-131826000D03*
X166941500Y-96520000D03*
D16*
X129233000Y-91059000D02*
X130556000Y-91059000D01*
X143563000Y-96139000D02*
X142240000Y-96139000D01*
X160972500Y-96520000D02*
X159903500Y-96520000D01*
X163068000Y-96520000D02*
X164147500Y-96520000D01*
X165764500Y-90340500D02*
X163024500Y-90340500D01*
X166405000Y-83340500D02*
X166941500Y-82804000D01*
X165764500Y-83340500D02*
X166405000Y-83340500D01*
X164958472Y-83340500D02*
X164528500Y-83770472D01*
X165764500Y-83340500D02*
X164958472Y-83340500D01*
X164958472Y-84840500D02*
X165764500Y-84840500D01*
X164528500Y-84410528D02*
X164958472Y-84840500D01*
X164528500Y-83770472D02*
X164528500Y-84410528D01*
X159731000Y-83340500D02*
X160083500Y-83693000D01*
X158339500Y-83340500D02*
X159731000Y-83340500D01*
X160083500Y-84117264D02*
X160083500Y-83693000D01*
X159360264Y-84840500D02*
X160083500Y-84117264D01*
X158339500Y-84840500D02*
X159360264Y-84840500D01*
X160201500Y-92900500D02*
X159761500Y-93340500D01*
X161290000Y-92900500D02*
X160201500Y-92900500D01*
X158339500Y-93340500D02*
X159761500Y-93340500D01*
X164469500Y-93340500D02*
X165764500Y-93340500D01*
X164029500Y-92900500D02*
X164469500Y-93340500D01*
X164366500Y-94840500D02*
X164338000Y-94869000D01*
X165764500Y-94840500D02*
X164366500Y-94840500D01*
X162941000Y-92900500D02*
X164029500Y-92900500D01*
X162984500Y-90340500D02*
X162984500Y-90340500D01*
X158339500Y-90340500D02*
X158770000Y-90340500D01*
X160317500Y-89642000D02*
X160317500Y-90340500D01*
X159516000Y-88840500D02*
X160317500Y-89642000D01*
X158339500Y-88840500D02*
X159516000Y-88840500D01*
X160317500Y-90340500D02*
X162984500Y-90340500D01*
X158770000Y-90340500D02*
X160317500Y-90340500D01*
X161016000Y-87840500D02*
X161036000Y-87820500D01*
X158339500Y-87840500D02*
X161016000Y-87840500D01*
X162961000Y-87840500D02*
X162941000Y-87820500D01*
X165764500Y-87840500D02*
X162961000Y-87840500D01*
D17*
X127127000Y-103020500D02*
X127127000Y-104394000D01*
D16*
X124968000Y-91059000D02*
X127508000Y-91059000D01*
X127127000Y-96854000D02*
X127127000Y-95504000D01*
X145288000Y-96139000D02*
X147828000Y-96139000D01*
X158178500Y-96520000D02*
X157099000Y-96520000D01*
X158324284Y-91855716D02*
X158339500Y-91840500D01*
X157384300Y-91916700D02*
X157460500Y-91840500D01*
X155378687Y-91916700D02*
X157384300Y-91916700D01*
X158339500Y-91840500D02*
X157460500Y-91840500D01*
X159770991Y-69092991D02*
X159766000Y-69088000D01*
X171241720Y-69092991D02*
X159770991Y-69092991D01*
X159766009Y-109092991D02*
X159766000Y-109093000D01*
X171241720Y-109092991D02*
X159766009Y-109092991D01*
X159737500Y-94840500D02*
X159766000Y-94869000D01*
X158339500Y-94840500D02*
X159737500Y-94840500D01*
X157255275Y-86340500D02*
X157499500Y-86340500D01*
X157108775Y-86487000D02*
X157255275Y-86340500D01*
X156718000Y-86487000D02*
X157108775Y-86487000D01*
X158339500Y-86340500D02*
X157499500Y-86340500D01*
D17*
X127127000Y-104394000D02*
X127127000Y-105767500D01*
X127103500Y-101219000D02*
X127127000Y-101195500D01*
X124968000Y-101219000D02*
X127103500Y-101219000D01*
X127127000Y-101195500D02*
X127150500Y-101195500D01*
X133477000Y-94869000D02*
X148463000Y-94869000D01*
X127150500Y-101195500D02*
X133477000Y-94869000D01*
X160286000Y-88340500D02*
X161036000Y-89090500D01*
X158339500Y-88340500D02*
X160286000Y-88340500D01*
X154991500Y-88340500D02*
X150812500Y-92519500D01*
X158339500Y-88340500D02*
X154991500Y-88340500D01*
X150812500Y-92519500D02*
X154293000Y-89039000D01*
X148463000Y-94869000D02*
X150812500Y-92519500D01*
X124968000Y-98679000D02*
X127127000Y-98679000D01*
X160246000Y-87340500D02*
X161036000Y-86550500D01*
X158339500Y-87340500D02*
X160246000Y-87340500D01*
X157381000Y-87340500D02*
X158339500Y-87340500D01*
X157028000Y-87693500D02*
X157381000Y-87340500D01*
X153098500Y-87693500D02*
X157028000Y-87693500D01*
X148463000Y-92329000D02*
X153098500Y-87693500D01*
X133477000Y-92329000D02*
X148463000Y-92329000D01*
X127127000Y-98679000D02*
X133477000Y-92329000D01*
X124968000Y-126619000D02*
X126238000Y-127889000D01*
X126238000Y-127889000D02*
X154051000Y-127889000D01*
X126238000Y-125349000D02*
X149098000Y-125349000D01*
X124968000Y-124079000D02*
X126238000Y-125349000D01*
X149098000Y-125349000D02*
X154051000Y-125349000D01*
X124968000Y-121539000D02*
X126238000Y-122809000D01*
X126238000Y-122809000D02*
X154051000Y-122809000D01*
X125984000Y-118999000D02*
X124968000Y-118999000D01*
X139954000Y-105029000D02*
X125984000Y-118999000D01*
X148463000Y-105029000D02*
X139954000Y-105029000D01*
X150672750Y-102793750D02*
X150685500Y-102806500D01*
X157373500Y-94340500D02*
X150672750Y-101041250D01*
X150685500Y-102806500D02*
X148463000Y-105029000D01*
X150672750Y-101041250D02*
X150672750Y-102793750D01*
X158339500Y-94340500D02*
X157373500Y-94340500D01*
X125984000Y-116459000D02*
X139954000Y-102489000D01*
X139954000Y-102489000D02*
X148336000Y-102489000D01*
X124968000Y-116459000D02*
X125984000Y-116459000D01*
X156241750Y-94583250D02*
X156286000Y-94539000D01*
X148336000Y-102489000D02*
X156241750Y-94583250D01*
X156984500Y-93840500D02*
X158339500Y-93840500D01*
X156241750Y-94583250D02*
X156984500Y-93840500D01*
X149796500Y-99949000D02*
X156905000Y-92840500D01*
X157166000Y-92840500D02*
X158339500Y-92840500D01*
X156905000Y-92840500D02*
X157166000Y-92840500D01*
X139954000Y-99949000D02*
X149796500Y-99949000D01*
X125984000Y-113919000D02*
X139954000Y-99949000D01*
X124968000Y-113919000D02*
X125984000Y-113919000D01*
X125984000Y-111379000D02*
X124968000Y-111379000D01*
X150749000Y-97409000D02*
X139954000Y-97409000D01*
X154612665Y-93545335D02*
X150749000Y-97409000D01*
X139954000Y-97409000D02*
X125984000Y-111379000D01*
X154612665Y-93535500D02*
X154612665Y-93545335D01*
X155807665Y-92340500D02*
X154612665Y-93535500D01*
X158339500Y-92340500D02*
X155807665Y-92340500D01*
X154840500Y-91340500D02*
X154813000Y-91313000D01*
X158339500Y-91340500D02*
X154840500Y-91340500D01*
X157091500Y-90614500D02*
X157317500Y-90840500D01*
X155321000Y-90614500D02*
X157091500Y-90614500D01*
X158339500Y-90840500D02*
X157317500Y-90840500D01*
X157365000Y-89840500D02*
X158339500Y-89840500D01*
X157226000Y-89979500D02*
X157365000Y-89840500D01*
X154813000Y-89979500D02*
X157226000Y-89979500D01*
X132334000Y-89789000D02*
X125984000Y-83439000D01*
X148971000Y-89789000D02*
X132334000Y-89789000D01*
X125984000Y-83439000D02*
X124968000Y-83439000D01*
X157012250Y-87153750D02*
X157325500Y-86840500D01*
X151606250Y-87153750D02*
X157012250Y-87153750D01*
X158339500Y-86840500D02*
X157325500Y-86840500D01*
X151606250Y-87153750D02*
X148971000Y-89789000D01*
X158335500Y-89344500D02*
X158339500Y-89340500D01*
X155325000Y-89340500D02*
X155321000Y-89344500D01*
X158339500Y-89340500D02*
X157349000Y-89340500D01*
X157349000Y-89340500D02*
X155325000Y-89340500D01*
X134874000Y-87249000D02*
X125984000Y-78359000D01*
X149479000Y-87249000D02*
X134874000Y-87249000D01*
X150495000Y-86233000D02*
X149479000Y-87249000D01*
X125984000Y-78359000D02*
X124968000Y-78359000D01*
X150887500Y-85840500D02*
X150495000Y-86233000D01*
X158339500Y-85840500D02*
X153808500Y-85840500D01*
X153808500Y-85840500D02*
X150887500Y-85840500D01*
X125984000Y-75819000D02*
X124968000Y-75819000D01*
X134874000Y-84709000D02*
X154559000Y-84709000D01*
X134874000Y-84709000D02*
X125984000Y-75819000D01*
X155190500Y-85340500D02*
X155035250Y-85185250D01*
X158339500Y-85340500D02*
X155190500Y-85340500D01*
X154559000Y-84709000D02*
X155035250Y-85185250D01*
X125984000Y-73279000D02*
X124968000Y-73279000D01*
X153536402Y-82169000D02*
X134874000Y-82169000D01*
X134874000Y-82169000D02*
X125984000Y-73279000D01*
X155707902Y-84340500D02*
X155539951Y-84172549D01*
X158339500Y-84340500D02*
X155707902Y-84340500D01*
X155539951Y-84172549D02*
X153536402Y-82169000D01*
X125984000Y-70739000D02*
X124968000Y-70739000D01*
X134874000Y-79629000D02*
X125984000Y-70739000D01*
X152359000Y-79629000D02*
X134874000Y-79629000D01*
X156570500Y-83840500D02*
X156316500Y-83586500D01*
X158339500Y-83840500D02*
X156570500Y-83840500D01*
X156316500Y-83586500D02*
X152359000Y-79629000D01*
D16*
X163004500Y-86550500D02*
X164147500Y-86550500D01*
X164147500Y-86550500D02*
X164357500Y-86340500D01*
X165764500Y-86340500D02*
X164357500Y-86340500D01*
X164235500Y-91630500D02*
X164445500Y-91840500D01*
X163004500Y-91630500D02*
X164235500Y-91630500D01*
X164445500Y-91840500D02*
X165764500Y-91840500D01*
X166941500Y-96520000D02*
X165872500Y-96520000D01*
D17*
X170370500Y-98107500D02*
X172227211Y-98107500D01*
X172227211Y-98107500D02*
X173241720Y-97092991D01*
X166603500Y-94340500D02*
X170370500Y-98107500D01*
X165764500Y-94340500D02*
X166603500Y-94340500D01*
X165764500Y-93840500D02*
X167056000Y-93840500D01*
X170308491Y-97092991D02*
X171241720Y-97092991D01*
X167056000Y-93840500D02*
X170308491Y-97092991D01*
X166818000Y-92840500D02*
X165764500Y-92840500D01*
X170307000Y-96075500D02*
X167072000Y-92840500D01*
X172259211Y-96075500D02*
X170307000Y-96075500D01*
X167072000Y-92840500D02*
X166818000Y-92840500D01*
X173241720Y-95092991D02*
X172259211Y-96075500D01*
X165764500Y-92340500D02*
X167524500Y-92340500D01*
X170276991Y-95092991D02*
X171241720Y-95092991D01*
X167524500Y-92340500D02*
X170276991Y-95092991D01*
X167350000Y-91340500D02*
X165764500Y-91340500D01*
X167604000Y-91340500D02*
X167350000Y-91340500D01*
X172227711Y-94107000D02*
X170370500Y-94107000D01*
X170370500Y-94107000D02*
X167604000Y-91340500D01*
X173241720Y-93092991D02*
X172227711Y-94107000D01*
X165764500Y-90840500D02*
X168056500Y-90840500D01*
X170308991Y-93092991D02*
X171241720Y-93092991D01*
X168056500Y-90840500D02*
X170308991Y-93092991D01*
X167779000Y-89840500D02*
X165764500Y-89840500D01*
X168072500Y-89840500D02*
X167779000Y-89840500D01*
X170307000Y-92075000D02*
X168072500Y-89840500D01*
X172259710Y-92075000D02*
X170307000Y-92075000D01*
X173241720Y-91092991D02*
X172259710Y-92075000D01*
X165764500Y-89340500D02*
X168525000Y-89340500D01*
X170277491Y-91092991D02*
X171241720Y-91092991D01*
X168525000Y-89340500D02*
X170277491Y-91092991D01*
X165764500Y-88340500D02*
X169088500Y-88340500D01*
X170336009Y-87092991D02*
X171241720Y-87092991D01*
X169088500Y-88340500D02*
X170336009Y-87092991D01*
X169072500Y-87340500D02*
X165764500Y-87340500D01*
X170307000Y-86106000D02*
X169072500Y-87340500D01*
X172228711Y-86106000D02*
X170307000Y-86106000D01*
X173241720Y-85092991D02*
X172228711Y-86106000D01*
X165764500Y-86840500D02*
X168556500Y-86840500D01*
X170304009Y-85092991D02*
X171241720Y-85092991D01*
X168556500Y-86840500D02*
X170304009Y-85092991D01*
X168540500Y-85840500D02*
X165764500Y-85840500D01*
X172260711Y-84074000D02*
X170307000Y-84074000D01*
X170307000Y-84074000D02*
X168540500Y-85840500D01*
X173241720Y-83092991D02*
X172260711Y-84074000D01*
X165764500Y-85340500D02*
X168088000Y-85340500D01*
X170335509Y-83092991D02*
X171241720Y-83092991D01*
X168088000Y-85340500D02*
X170335509Y-83092991D01*
X170243500Y-82105500D02*
X172229211Y-82105500D01*
X168008500Y-84340500D02*
X170243500Y-82105500D01*
X172229211Y-82105500D02*
X173241720Y-81092991D01*
X172229211Y-82105500D02*
X170307000Y-82105500D01*
X165764500Y-84340500D02*
X168008500Y-84340500D01*
X170303509Y-81092991D02*
X171241720Y-81092991D01*
X167556000Y-83840500D02*
X170303509Y-81092991D01*
X165764500Y-83840500D02*
X167556000Y-83840500D01*
X126682500Y-108839000D02*
X126428500Y-108839000D01*
X126428500Y-108839000D02*
X124968000Y-108839000D01*
X127127000Y-108394500D02*
X126682500Y-108839000D01*
X127127000Y-107592500D02*
X127127000Y-108394500D01*
M02*
