%FSLAX45Y45*%
G04 Gerber Fmt 4.5, Leading zero omitted, Abs format (unit mm)*
G04 Created by KiCad (PCBNEW 5.1.10) date 2021-08-30 11:46:24*
%MOMM*%
%LPD*%
G01*
G04 APERTURE LIST*
%TA.AperFunction,Profile*%
%ADD10C,0.050000*%
%TD*%
%ADD11C,0.200000*%
%ADD12C,0.300000*%
G04 APERTURE END LIST*
D10*
X12274550Y-5568950D02*
X17970500Y-5568950D01*
X12274550Y-13925550D02*
X17970500Y-13925550D01*
X12274550Y-5568950D02*
X12274550Y-13925550D01*
X17970500Y-5568950D02*
X17970500Y-13925550D01*
D11*
D12*
X12558478Y-14393764D02*
X12558478Y-14093764D01*
X12629907Y-14093764D01*
X12672764Y-14108050D01*
X12701336Y-14136621D01*
X12715621Y-14165193D01*
X12729907Y-14222336D01*
X12729907Y-14265193D01*
X12715621Y-14322336D01*
X12701336Y-14350907D01*
X12672764Y-14379479D01*
X12629907Y-14393764D01*
X12558478Y-14393764D01*
X12858478Y-14393764D02*
X12858478Y-14193764D01*
X12858478Y-14250907D02*
X12872764Y-14222336D01*
X12887050Y-14208050D01*
X12915621Y-14193764D01*
X12944193Y-14193764D01*
X13044193Y-14393764D02*
X13044193Y-14193764D01*
X13044193Y-14093764D02*
X13029907Y-14108050D01*
X13044193Y-14122336D01*
X13058478Y-14108050D01*
X13044193Y-14093764D01*
X13044193Y-14122336D01*
X13229907Y-14393764D02*
X13201336Y-14379479D01*
X13187050Y-14350907D01*
X13187050Y-14093764D01*
X13387050Y-14393764D02*
X13358478Y-14379479D01*
X13344193Y-14350907D01*
X13344193Y-14093764D01*
X13729907Y-14393764D02*
X13729907Y-14093764D01*
X13829907Y-14308050D01*
X13929907Y-14093764D01*
X13929907Y-14393764D01*
X14201336Y-14393764D02*
X14201336Y-14236621D01*
X14187050Y-14208050D01*
X14158478Y-14193764D01*
X14101336Y-14193764D01*
X14072764Y-14208050D01*
X14201336Y-14379479D02*
X14172764Y-14393764D01*
X14101336Y-14393764D01*
X14072764Y-14379479D01*
X14058478Y-14350907D01*
X14058478Y-14322336D01*
X14072764Y-14293764D01*
X14101336Y-14279479D01*
X14172764Y-14279479D01*
X14201336Y-14265193D01*
X14344193Y-14193764D02*
X14344193Y-14493764D01*
X14344193Y-14208050D02*
X14372764Y-14193764D01*
X14429907Y-14193764D01*
X14458478Y-14208050D01*
X14472764Y-14222336D01*
X14487050Y-14250907D01*
X14487050Y-14336621D01*
X14472764Y-14365193D01*
X14458478Y-14379479D01*
X14429907Y-14393764D01*
X14372764Y-14393764D01*
X14344193Y-14379479D01*
X14615621Y-14365193D02*
X14629907Y-14379479D01*
X14615621Y-14393764D01*
X14601336Y-14379479D01*
X14615621Y-14365193D01*
X14615621Y-14393764D01*
X14615621Y-14208050D02*
X14629907Y-14222336D01*
X14615621Y-14236621D01*
X14601336Y-14222336D01*
X14615621Y-14208050D01*
X14615621Y-14236621D01*
M02*
