M48
; DRILL file {KiCad 5.1.10} date Mon Aug 30 11:46:23 2021
; FORMAT={-:-/ absolute / metric / decimal}
; #@! TF.CreationDate,2021-08-30T11:46:23-07:00
; #@! TF.GenerationSoftware,Kicad,Pcbnew,5.1.10
; #@! TF.FileFunction,Plated,1,4,PTH
FMAT,2
METRIC
T1C0.300
T2C0.400
T3C0.800
%
G90
G05
T1
X127.127Y-95.504
X130.556Y-91.059
X142.24Y-96.139
X154.051Y-122.809
X154.051Y-125.349
X154.051Y-127.889
X154.813Y-89.98
X154.813Y-91.313
X155.321Y-89.344
X155.321Y-90.614
X155.379Y-91.917
X156.718Y-86.487
X157.099Y-61.658
X157.099Y-96.52
X157.099Y-101.663
X157.162Y-121.666
X159.766Y-64.834
X159.766Y-66.358
X159.766Y-67.818
X159.766Y-69.088
X159.766Y-70.358
X159.766Y-71.882
X159.766Y-73.343
X159.766Y-94.869
X159.766Y-103.314
X159.766Y-104.838
X159.766Y-106.362
X159.766Y-107.823
X159.766Y-109.093
X159.766Y-110.363
X159.766Y-111.887
X159.766Y-113.347
X159.766Y-114.808
X159.766Y-123.38
X159.766Y-124.841
X159.766Y-126.365
X159.766Y-127.825
X159.766Y-130.365
X159.766Y-131.826
X159.766Y-133.35
X159.766Y-134.874
X160.083Y-83.693
X160.972Y-61.658
X160.972Y-96.52
X160.972Y-101.663
X161.036Y-86.55
X161.036Y-87.82
X161.036Y-89.09
X161.036Y-121.666
X161.29Y-92.9
X162.941Y-87.82
X162.941Y-92.9
X162.984Y-90.34
X163.004Y-85.28
X163.004Y-86.55
X163.004Y-89.09
X163.004Y-91.63
X163.068Y-61.658
X163.068Y-96.52
X163.068Y-101.663
X163.068Y-121.666
X163.893Y-83.693
X164.338Y-63.373
X164.338Y-64.834
X164.338Y-66.358
X164.338Y-67.818
X164.338Y-70.358
X164.338Y-71.819
X164.338Y-73.343
X164.338Y-74.867
X164.338Y-94.869
X164.338Y-103.378
X164.338Y-104.838
X164.338Y-106.362
X164.338Y-107.823
X164.338Y-110.299
X164.338Y-111.823
X164.338Y-113.347
X164.338Y-114.808
X164.338Y-123.38
X164.338Y-124.841
X164.338Y-126.365
X164.338Y-127.825
X164.338Y-130.365
X164.338Y-131.826
X164.338Y-133.35
X164.338Y-134.874
X166.941Y-61.595
X166.941Y-82.995
X166.941Y-96.52
X166.941Y-101.663
X166.941Y-121.666
T2
X127.127Y-104.394
X153.808Y-85.84
T3
X124.968Y-58.039
X124.968Y-60.579
X124.968Y-63.119
X124.968Y-65.659
X124.968Y-68.199
X124.968Y-70.739
X124.968Y-73.279
X124.968Y-75.819
X124.968Y-78.359
X124.968Y-80.899
X124.968Y-83.439
X124.968Y-85.979
X124.968Y-88.519
X124.968Y-91.059
X124.968Y-93.599
X124.968Y-96.139
X124.968Y-98.679
X124.968Y-101.219
X124.968Y-103.759
X124.968Y-106.299
X124.968Y-108.839
X124.968Y-111.379
X124.968Y-113.919
X124.968Y-116.459
X124.968Y-118.999
X124.968Y-121.539
X124.968Y-124.079
X124.968Y-126.619
X124.968Y-129.159
X124.968Y-131.699
X124.968Y-134.239
X124.968Y-136.779
X147.828Y-58.039
X147.828Y-60.579
X147.828Y-63.119
X147.828Y-65.659
X147.828Y-68.199
X147.828Y-70.739
X147.828Y-73.279
X147.828Y-75.819
X147.828Y-78.359
X147.828Y-80.899
X147.828Y-83.439
X147.828Y-85.979
X147.828Y-88.519
X147.828Y-91.059
X147.828Y-93.599
X147.828Y-96.139
X147.828Y-98.679
X147.828Y-101.219
X147.828Y-103.759
X147.828Y-106.299
X147.828Y-108.839
X147.828Y-111.379
X147.828Y-113.919
X147.828Y-116.459
X147.828Y-118.999
X147.828Y-121.539
X147.828Y-124.079
X147.828Y-126.619
X147.828Y-129.159
X147.828Y-131.699
X147.828Y-134.239
X147.828Y-136.779
X171.242Y-61.093
X171.242Y-63.093
X171.242Y-65.093
X171.242Y-67.093
X171.242Y-69.093
X171.242Y-71.093
X171.242Y-73.093
X171.242Y-75.093
X171.242Y-77.093
X171.242Y-81.093
X171.242Y-83.093
X171.242Y-85.093
X171.242Y-87.093
X171.242Y-89.093
X171.242Y-91.093
X171.242Y-93.093
X171.242Y-95.093
X171.242Y-97.093
X171.242Y-101.093
X171.242Y-103.093
X171.242Y-105.093
X171.242Y-107.093
X171.242Y-109.093
X171.242Y-111.093
X171.242Y-113.093
X171.242Y-115.093
X171.242Y-117.093
X171.242Y-121.093
X171.242Y-123.093
X171.242Y-125.093
X171.242Y-127.093
X171.242Y-129.093
X171.242Y-131.093
X171.242Y-133.093
X171.242Y-135.093
X171.242Y-137.093
X173.242Y-61.093
X173.242Y-63.093
X173.242Y-65.093
X173.242Y-67.093
X173.242Y-69.093
X173.242Y-71.093
X173.242Y-73.093
X173.242Y-75.093
X173.242Y-77.093
X173.242Y-81.093
X173.242Y-83.093
X173.242Y-85.093
X173.242Y-87.093
X173.242Y-89.093
X173.242Y-91.093
X173.242Y-93.093
X173.242Y-95.093
X173.242Y-97.093
X173.242Y-101.093
X173.242Y-103.093
X173.242Y-105.093
X173.242Y-107.093
X173.242Y-109.093
X173.242Y-111.093
X173.242Y-113.093
X173.242Y-115.093
X173.242Y-117.093
X173.242Y-121.093
X173.242Y-123.093
X173.242Y-125.093
X173.242Y-127.093
X173.242Y-129.093
X173.242Y-131.093
X173.242Y-133.093
X173.242Y-135.093
X173.242Y-137.093
T0
M30
