G04 #@! TF.GenerationSoftware,KiCad,Pcbnew,5.1.10*
G04 #@! TF.CreationDate,2021-08-30T11:46:02-07:00*
G04 #@! TF.ProjectId,M68K-BREAKOUT,4d36384b-2d42-4524-9541-4b4f55542e6b,rev?*
G04 #@! TF.SameCoordinates,Original*
G04 #@! TF.FileFunction,Legend,Bot*
G04 #@! TF.FilePolarity,Positive*
%FSLAX46Y46*%
G04 Gerber Fmt 4.6, Leading zero omitted, Abs format (unit mm)*
G04 Created by KiCad (PCBNEW 5.1.10) date 2021-08-30 11:46:02*
%MOMM*%
%LPD*%
G01*
G04 APERTURE LIST*
%ADD10C,0.203200*%
%ADD11C,0.120000*%
%ADD12C,0.150000*%
%ADD13O,1.350000X1.350000*%
%ADD14R,1.350000X1.350000*%
%ADD15O,1.600000X1.600000*%
%ADD16R,1.600000X1.600000*%
G04 APERTURE END LIST*
D10*
X134864323Y-58536960D02*
X133594323Y-58536960D01*
X134501466Y-58960294D01*
X133594323Y-59383627D01*
X134864323Y-59383627D01*
X133594323Y-60532675D02*
X133594323Y-60290770D01*
X133654800Y-60169818D01*
X133715276Y-60109341D01*
X133896704Y-59988389D01*
X134138609Y-59927913D01*
X134622419Y-59927913D01*
X134743371Y-59988389D01*
X134803847Y-60048865D01*
X134864323Y-60169818D01*
X134864323Y-60411722D01*
X134803847Y-60532675D01*
X134743371Y-60593151D01*
X134622419Y-60653627D01*
X134320038Y-60653627D01*
X134199085Y-60593151D01*
X134138609Y-60532675D01*
X134078133Y-60411722D01*
X134078133Y-60169818D01*
X134138609Y-60048865D01*
X134199085Y-59988389D01*
X134320038Y-59927913D01*
X134138609Y-61379341D02*
X134078133Y-61258389D01*
X134017657Y-61197913D01*
X133896704Y-61137437D01*
X133836228Y-61137437D01*
X133715276Y-61197913D01*
X133654800Y-61258389D01*
X133594323Y-61379341D01*
X133594323Y-61621246D01*
X133654800Y-61742199D01*
X133715276Y-61802675D01*
X133836228Y-61863151D01*
X133896704Y-61863151D01*
X134017657Y-61802675D01*
X134078133Y-61742199D01*
X134138609Y-61621246D01*
X134138609Y-61379341D01*
X134199085Y-61258389D01*
X134259561Y-61197913D01*
X134380514Y-61137437D01*
X134622419Y-61137437D01*
X134743371Y-61197913D01*
X134803847Y-61258389D01*
X134864323Y-61379341D01*
X134864323Y-61621246D01*
X134803847Y-61742199D01*
X134743371Y-61802675D01*
X134622419Y-61863151D01*
X134380514Y-61863151D01*
X134259561Y-61802675D01*
X134199085Y-61742199D01*
X134138609Y-61621246D01*
X134864323Y-62407437D02*
X133594323Y-62407437D01*
X134864323Y-63133151D02*
X134138609Y-62588865D01*
X133594323Y-63133151D02*
X134320038Y-62407437D01*
X134199085Y-65068389D02*
X134259561Y-65249818D01*
X134320038Y-65310294D01*
X134440990Y-65370770D01*
X134622419Y-65370770D01*
X134743371Y-65310294D01*
X134803847Y-65249818D01*
X134864323Y-65128865D01*
X134864323Y-64645056D01*
X133594323Y-64645056D01*
X133594323Y-65068389D01*
X133654800Y-65189341D01*
X133715276Y-65249818D01*
X133836228Y-65310294D01*
X133957180Y-65310294D01*
X134078133Y-65249818D01*
X134138609Y-65189341D01*
X134199085Y-65068389D01*
X134199085Y-64645056D01*
X134017657Y-66459341D02*
X134864323Y-66459341D01*
X134017657Y-65915056D02*
X134682895Y-65915056D01*
X134803847Y-65975532D01*
X134864323Y-66096484D01*
X134864323Y-66277913D01*
X134803847Y-66398865D01*
X134743371Y-66459341D01*
X134803847Y-67003627D02*
X134864323Y-67124580D01*
X134864323Y-67366484D01*
X134803847Y-67487437D01*
X134682895Y-67547913D01*
X134622419Y-67547913D01*
X134501466Y-67487437D01*
X134440990Y-67366484D01*
X134440990Y-67185056D01*
X134380514Y-67064103D01*
X134259561Y-67003627D01*
X134199085Y-67003627D01*
X134078133Y-67064103D01*
X134017657Y-67185056D01*
X134017657Y-67366484D01*
X134078133Y-67487437D01*
X133594323Y-68878389D02*
X134864323Y-69301722D01*
X133594323Y-69725056D01*
X134864323Y-70329818D02*
X134803847Y-70208865D01*
X134743371Y-70148389D01*
X134622419Y-70087913D01*
X134259561Y-70087913D01*
X134138609Y-70148389D01*
X134078133Y-70208865D01*
X134017657Y-70329818D01*
X134017657Y-70511246D01*
X134078133Y-70632199D01*
X134138609Y-70692675D01*
X134259561Y-70753151D01*
X134622419Y-70753151D01*
X134743371Y-70692675D01*
X134803847Y-70632199D01*
X134864323Y-70511246D01*
X134864323Y-70329818D01*
X134864323Y-71478865D02*
X134803847Y-71357913D01*
X134682895Y-71297437D01*
X133594323Y-71297437D01*
X134017657Y-71781246D02*
X134017657Y-72265056D01*
X133594323Y-71962675D02*
X134682895Y-71962675D01*
X134803847Y-72023151D01*
X134864323Y-72144103D01*
X134864323Y-72265056D01*
X134864323Y-73232675D02*
X134199085Y-73232675D01*
X134078133Y-73172199D01*
X134017657Y-73051246D01*
X134017657Y-72809341D01*
X134078133Y-72688389D01*
X134803847Y-73232675D02*
X134864323Y-73111722D01*
X134864323Y-72809341D01*
X134803847Y-72688389D01*
X134682895Y-72627913D01*
X134561942Y-72627913D01*
X134440990Y-72688389D01*
X134380514Y-72809341D01*
X134380514Y-73111722D01*
X134320038Y-73232675D01*
X134017657Y-74381722D02*
X135045752Y-74381722D01*
X135166704Y-74321246D01*
X135227180Y-74260770D01*
X135287657Y-74139818D01*
X135287657Y-73958389D01*
X135227180Y-73837437D01*
X134803847Y-74381722D02*
X134864323Y-74260770D01*
X134864323Y-74018865D01*
X134803847Y-73897913D01*
X134743371Y-73837437D01*
X134622419Y-73776960D01*
X134259561Y-73776960D01*
X134138609Y-73837437D01*
X134078133Y-73897913D01*
X134017657Y-74018865D01*
X134017657Y-74260770D01*
X134078133Y-74381722D01*
X134803847Y-75470294D02*
X134864323Y-75349341D01*
X134864323Y-75107437D01*
X134803847Y-74986484D01*
X134682895Y-74926008D01*
X134199085Y-74926008D01*
X134078133Y-74986484D01*
X134017657Y-75107437D01*
X134017657Y-75349341D01*
X134078133Y-75470294D01*
X134199085Y-75530770D01*
X134320038Y-75530770D01*
X134440990Y-74926008D01*
X134743371Y-77768389D02*
X134803847Y-77707913D01*
X134864323Y-77526484D01*
X134864323Y-77405532D01*
X134803847Y-77224103D01*
X134682895Y-77103151D01*
X134561942Y-77042675D01*
X134320038Y-76982199D01*
X134138609Y-76982199D01*
X133896704Y-77042675D01*
X133775752Y-77103151D01*
X133654800Y-77224103D01*
X133594323Y-77405532D01*
X133594323Y-77526484D01*
X133654800Y-77707913D01*
X133715276Y-77768389D01*
X134864323Y-78494103D02*
X134803847Y-78373151D01*
X134743371Y-78312675D01*
X134622419Y-78252199D01*
X134259561Y-78252199D01*
X134138609Y-78312675D01*
X134078133Y-78373151D01*
X134017657Y-78494103D01*
X134017657Y-78675532D01*
X134078133Y-78796484D01*
X134138609Y-78856960D01*
X134259561Y-78917437D01*
X134622419Y-78917437D01*
X134743371Y-78856960D01*
X134803847Y-78796484D01*
X134864323Y-78675532D01*
X134864323Y-78494103D01*
X134017657Y-79461722D02*
X134864323Y-79461722D01*
X134138609Y-79461722D02*
X134078133Y-79522199D01*
X134017657Y-79643151D01*
X134017657Y-79824580D01*
X134078133Y-79945532D01*
X134199085Y-80006008D01*
X134864323Y-80006008D01*
X134017657Y-80489818D02*
X134864323Y-80792199D01*
X134017657Y-81094580D01*
X134803847Y-82062199D02*
X134864323Y-81941246D01*
X134864323Y-81699341D01*
X134803847Y-81578389D01*
X134682895Y-81517913D01*
X134199085Y-81517913D01*
X134078133Y-81578389D01*
X134017657Y-81699341D01*
X134017657Y-81941246D01*
X134078133Y-82062199D01*
X134199085Y-82122675D01*
X134320038Y-82122675D01*
X134440990Y-81517913D01*
X134864323Y-82666960D02*
X134017657Y-82666960D01*
X134259561Y-82666960D02*
X134138609Y-82727437D01*
X134078133Y-82787913D01*
X134017657Y-82908865D01*
X134017657Y-83029818D01*
X134017657Y-83271722D02*
X134017657Y-83755532D01*
X133594323Y-83453151D02*
X134682895Y-83453151D01*
X134803847Y-83513627D01*
X134864323Y-83634580D01*
X134864323Y-83755532D01*
X134803847Y-84662675D02*
X134864323Y-84541722D01*
X134864323Y-84299818D01*
X134803847Y-84178865D01*
X134682895Y-84118389D01*
X134199085Y-84118389D01*
X134078133Y-84178865D01*
X134017657Y-84299818D01*
X134017657Y-84541722D01*
X134078133Y-84662675D01*
X134199085Y-84723151D01*
X134320038Y-84723151D01*
X134440990Y-84118389D01*
X134864323Y-85267437D02*
X134017657Y-85267437D01*
X134259561Y-85267437D02*
X134138609Y-85327913D01*
X134078133Y-85388389D01*
X134017657Y-85509341D01*
X134017657Y-85630294D01*
X136972523Y-59262675D02*
X136367761Y-58839341D01*
X136972523Y-58536960D02*
X135702523Y-58536960D01*
X135702523Y-59020770D01*
X135763000Y-59141722D01*
X135823476Y-59202199D01*
X135944428Y-59262675D01*
X136125857Y-59262675D01*
X136246809Y-59202199D01*
X136307285Y-59141722D01*
X136367761Y-59020770D01*
X136367761Y-58536960D01*
X136912047Y-60290770D02*
X136972523Y-60169818D01*
X136972523Y-59927913D01*
X136912047Y-59806960D01*
X136791095Y-59746484D01*
X136307285Y-59746484D01*
X136186333Y-59806960D01*
X136125857Y-59927913D01*
X136125857Y-60169818D01*
X136186333Y-60290770D01*
X136307285Y-60351246D01*
X136428238Y-60351246D01*
X136549190Y-59746484D01*
X136125857Y-60774580D02*
X136972523Y-61076960D01*
X136125857Y-61379341D01*
X136972523Y-61863151D02*
X136125857Y-61863151D01*
X135702523Y-61863151D02*
X135763000Y-61802675D01*
X135823476Y-61863151D01*
X135763000Y-61923627D01*
X135702523Y-61863151D01*
X135823476Y-61863151D01*
X136912047Y-62407437D02*
X136972523Y-62528389D01*
X136972523Y-62770294D01*
X136912047Y-62891246D01*
X136791095Y-62951722D01*
X136730619Y-62951722D01*
X136609666Y-62891246D01*
X136549190Y-62770294D01*
X136549190Y-62588865D01*
X136488714Y-62467913D01*
X136367761Y-62407437D01*
X136307285Y-62407437D01*
X136186333Y-62467913D01*
X136125857Y-62588865D01*
X136125857Y-62770294D01*
X136186333Y-62891246D01*
X136972523Y-63496008D02*
X136125857Y-63496008D01*
X135702523Y-63496008D02*
X135763000Y-63435532D01*
X135823476Y-63496008D01*
X135763000Y-63556484D01*
X135702523Y-63496008D01*
X135823476Y-63496008D01*
X136972523Y-64282199D02*
X136912047Y-64161246D01*
X136851571Y-64100770D01*
X136730619Y-64040294D01*
X136367761Y-64040294D01*
X136246809Y-64100770D01*
X136186333Y-64161246D01*
X136125857Y-64282199D01*
X136125857Y-64463627D01*
X136186333Y-64584580D01*
X136246809Y-64645056D01*
X136367761Y-64705532D01*
X136730619Y-64705532D01*
X136851571Y-64645056D01*
X136912047Y-64584580D01*
X136972523Y-64463627D01*
X136972523Y-64282199D01*
X136125857Y-65249818D02*
X136972523Y-65249818D01*
X136246809Y-65249818D02*
X136186333Y-65310294D01*
X136125857Y-65431246D01*
X136125857Y-65612675D01*
X136186333Y-65733627D01*
X136307285Y-65794103D01*
X136972523Y-65794103D01*
X136972523Y-68031722D02*
X136972523Y-67306008D01*
X136972523Y-67668865D02*
X135702523Y-67668865D01*
X135883952Y-67547913D01*
X136004904Y-67426960D01*
X136065380Y-67306008D01*
X136851571Y-68576008D02*
X136912047Y-68636484D01*
X136972523Y-68576008D01*
X136912047Y-68515532D01*
X136851571Y-68576008D01*
X136972523Y-68576008D01*
X135702523Y-69422675D02*
X135702523Y-69543627D01*
X135763000Y-69664580D01*
X135823476Y-69725056D01*
X135944428Y-69785532D01*
X136186333Y-69846008D01*
X136488714Y-69846008D01*
X136730619Y-69785532D01*
X136851571Y-69725056D01*
X136912047Y-69664580D01*
X136972523Y-69543627D01*
X136972523Y-69422675D01*
X136912047Y-69301722D01*
X136851571Y-69241246D01*
X136730619Y-69180770D01*
X136488714Y-69120294D01*
X136186333Y-69120294D01*
X135944428Y-69180770D01*
X135823476Y-69241246D01*
X135763000Y-69301722D01*
X135702523Y-69422675D01*
X139080723Y-58536960D02*
X137810723Y-58536960D01*
X137810723Y-58839341D01*
X137871200Y-59020770D01*
X137992152Y-59141722D01*
X138113104Y-59202199D01*
X138355009Y-59262675D01*
X138536438Y-59262675D01*
X138778342Y-59202199D01*
X138899295Y-59141722D01*
X139020247Y-59020770D01*
X139080723Y-58839341D01*
X139080723Y-58536960D01*
X139020247Y-60290770D02*
X139080723Y-60169818D01*
X139080723Y-59927913D01*
X139020247Y-59806960D01*
X138899295Y-59746484D01*
X138415485Y-59746484D01*
X138294533Y-59806960D01*
X138234057Y-59927913D01*
X138234057Y-60169818D01*
X138294533Y-60290770D01*
X138415485Y-60351246D01*
X138536438Y-60351246D01*
X138657390Y-59746484D01*
X139020247Y-60835056D02*
X139080723Y-60956008D01*
X139080723Y-61197913D01*
X139020247Y-61318865D01*
X138899295Y-61379341D01*
X138838819Y-61379341D01*
X138717866Y-61318865D01*
X138657390Y-61197913D01*
X138657390Y-61016484D01*
X138596914Y-60895532D01*
X138475961Y-60835056D01*
X138415485Y-60835056D01*
X138294533Y-60895532D01*
X138234057Y-61016484D01*
X138234057Y-61197913D01*
X138294533Y-61318865D01*
X139080723Y-61923627D02*
X138234057Y-61923627D01*
X137810723Y-61923627D02*
X137871200Y-61863151D01*
X137931676Y-61923627D01*
X137871200Y-61984103D01*
X137810723Y-61923627D01*
X137931676Y-61923627D01*
X138234057Y-63072675D02*
X139262152Y-63072675D01*
X139383104Y-63012199D01*
X139443580Y-62951722D01*
X139504057Y-62830770D01*
X139504057Y-62649341D01*
X139443580Y-62528389D01*
X139020247Y-63072675D02*
X139080723Y-62951722D01*
X139080723Y-62709818D01*
X139020247Y-62588865D01*
X138959771Y-62528389D01*
X138838819Y-62467913D01*
X138475961Y-62467913D01*
X138355009Y-62528389D01*
X138294533Y-62588865D01*
X138234057Y-62709818D01*
X138234057Y-62951722D01*
X138294533Y-63072675D01*
X138234057Y-63677437D02*
X139080723Y-63677437D01*
X138355009Y-63677437D02*
X138294533Y-63737913D01*
X138234057Y-63858865D01*
X138234057Y-64040294D01*
X138294533Y-64161246D01*
X138415485Y-64221722D01*
X139080723Y-64221722D01*
X139020247Y-65310294D02*
X139080723Y-65189341D01*
X139080723Y-64947437D01*
X139020247Y-64826484D01*
X138899295Y-64766008D01*
X138415485Y-64766008D01*
X138294533Y-64826484D01*
X138234057Y-64947437D01*
X138234057Y-65189341D01*
X138294533Y-65310294D01*
X138415485Y-65370770D01*
X138536438Y-65370770D01*
X138657390Y-64766008D01*
X139080723Y-66459341D02*
X137810723Y-66459341D01*
X139020247Y-66459341D02*
X139080723Y-66338389D01*
X139080723Y-66096484D01*
X139020247Y-65975532D01*
X138959771Y-65915056D01*
X138838819Y-65854580D01*
X138475961Y-65854580D01*
X138355009Y-65915056D01*
X138294533Y-65975532D01*
X138234057Y-66096484D01*
X138234057Y-66338389D01*
X138294533Y-66459341D01*
X139080723Y-68031722D02*
X137810723Y-68031722D01*
X138294533Y-68031722D02*
X138234057Y-68152675D01*
X138234057Y-68394580D01*
X138294533Y-68515532D01*
X138355009Y-68576008D01*
X138475961Y-68636484D01*
X138838819Y-68636484D01*
X138959771Y-68576008D01*
X139020247Y-68515532D01*
X139080723Y-68394580D01*
X139080723Y-68152675D01*
X139020247Y-68031722D01*
X138234057Y-69059818D02*
X139080723Y-69362199D01*
X138234057Y-69664580D02*
X139080723Y-69362199D01*
X139383104Y-69241246D01*
X139443580Y-69180770D01*
X139504057Y-69059818D01*
X139080723Y-71116008D02*
X137810723Y-71116008D01*
X139080723Y-71841722D01*
X137810723Y-71841722D01*
X139080723Y-72990770D02*
X138415485Y-72990770D01*
X138294533Y-72930294D01*
X138234057Y-72809341D01*
X138234057Y-72567437D01*
X138294533Y-72446484D01*
X139020247Y-72990770D02*
X139080723Y-72869818D01*
X139080723Y-72567437D01*
X139020247Y-72446484D01*
X138899295Y-72386008D01*
X138778342Y-72386008D01*
X138657390Y-72446484D01*
X138596914Y-72567437D01*
X138596914Y-72869818D01*
X138536438Y-72990770D01*
X138234057Y-73414103D02*
X138234057Y-73897913D01*
X137810723Y-73595532D02*
X138899295Y-73595532D01*
X139020247Y-73656008D01*
X139080723Y-73776960D01*
X139080723Y-73897913D01*
X139080723Y-74321246D02*
X137810723Y-74321246D01*
X139080723Y-74865532D02*
X138415485Y-74865532D01*
X138294533Y-74805056D01*
X138234057Y-74684103D01*
X138234057Y-74502675D01*
X138294533Y-74381722D01*
X138355009Y-74321246D01*
X139080723Y-76014579D02*
X138415485Y-76014579D01*
X138294533Y-75954103D01*
X138234057Y-75833151D01*
X138234057Y-75591246D01*
X138294533Y-75470294D01*
X139020247Y-76014579D02*
X139080723Y-75893627D01*
X139080723Y-75591246D01*
X139020247Y-75470294D01*
X138899295Y-75409818D01*
X138778342Y-75409818D01*
X138657390Y-75470294D01*
X138596914Y-75591246D01*
X138596914Y-75893627D01*
X138536438Y-76014579D01*
X138234057Y-76619341D02*
X139080723Y-76619341D01*
X138355009Y-76619341D02*
X138294533Y-76679818D01*
X138234057Y-76800770D01*
X138234057Y-76982199D01*
X138294533Y-77103151D01*
X138415485Y-77163627D01*
X139080723Y-77163627D01*
X139080723Y-77768389D02*
X138234057Y-77768389D01*
X137810723Y-77768389D02*
X137871200Y-77707913D01*
X137931676Y-77768389D01*
X137871200Y-77828865D01*
X137810723Y-77768389D01*
X137931676Y-77768389D01*
X139020247Y-78856960D02*
X139080723Y-78736008D01*
X139080723Y-78494103D01*
X139020247Y-78373151D01*
X138899295Y-78312675D01*
X138415485Y-78312675D01*
X138294533Y-78373151D01*
X138234057Y-78494103D01*
X138234057Y-78736008D01*
X138294533Y-78856960D01*
X138415485Y-78917437D01*
X138536438Y-78917437D01*
X138657390Y-78312675D01*
X139080723Y-79643151D02*
X139020247Y-79522199D01*
X138899295Y-79461722D01*
X137810723Y-79461722D01*
X139080723Y-81820294D02*
X138475961Y-81396960D01*
X139080723Y-81094579D02*
X137810723Y-81094579D01*
X137810723Y-81578389D01*
X137871200Y-81699341D01*
X137931676Y-81759818D01*
X138052628Y-81820294D01*
X138234057Y-81820294D01*
X138355009Y-81759818D01*
X138415485Y-81699341D01*
X138475961Y-81578389D01*
X138475961Y-81094579D01*
X138959771Y-82364579D02*
X139020247Y-82425056D01*
X139080723Y-82364579D01*
X139020247Y-82304103D01*
X138959771Y-82364579D01*
X139080723Y-82364579D01*
X139080723Y-84541722D02*
X139080723Y-83936960D01*
X137810723Y-83936960D01*
X139020247Y-85448865D02*
X139080723Y-85327913D01*
X139080723Y-85086008D01*
X139020247Y-84965056D01*
X138899295Y-84904579D01*
X138415485Y-84904579D01*
X138294533Y-84965056D01*
X138234057Y-85086008D01*
X138234057Y-85327913D01*
X138294533Y-85448865D01*
X138415485Y-85509341D01*
X138536438Y-85509341D01*
X138657390Y-84904579D01*
X138234057Y-85932675D02*
X139080723Y-86174579D01*
X138475961Y-86416484D01*
X139080723Y-86658389D01*
X138234057Y-86900294D01*
X139080723Y-87384103D02*
X138234057Y-87384103D01*
X137810723Y-87384103D02*
X137871200Y-87323627D01*
X137931676Y-87384103D01*
X137871200Y-87444579D01*
X137810723Y-87384103D01*
X137931676Y-87384103D01*
X139020247Y-87928389D02*
X139080723Y-88049341D01*
X139080723Y-88291246D01*
X139020247Y-88412199D01*
X138899295Y-88472675D01*
X138838819Y-88472675D01*
X138717866Y-88412199D01*
X138657390Y-88291246D01*
X138657390Y-88109818D01*
X138596914Y-87988865D01*
X138475961Y-87928389D01*
X138415485Y-87928389D01*
X138294533Y-87988865D01*
X138234057Y-88109818D01*
X138234057Y-88291246D01*
X138294533Y-88412199D01*
X138234057Y-90952199D02*
X138596914Y-89984579D01*
X138959771Y-90952199D01*
X139080723Y-91556960D02*
X137810723Y-91556960D01*
X139080723Y-92101246D02*
X138415485Y-92101246D01*
X138294533Y-92040770D01*
X138234057Y-91919818D01*
X138234057Y-91738389D01*
X138294533Y-91617437D01*
X138355009Y-91556960D01*
X139080723Y-93250294D02*
X138415485Y-93250294D01*
X138294533Y-93189818D01*
X138234057Y-93068865D01*
X138234057Y-92826960D01*
X138294533Y-92706008D01*
X139020247Y-93250294D02*
X139080723Y-93129341D01*
X139080723Y-92826960D01*
X139020247Y-92706008D01*
X138899295Y-92645532D01*
X138778342Y-92645532D01*
X138657390Y-92706008D01*
X138596914Y-92826960D01*
X138596914Y-93129341D01*
X138536438Y-93250294D01*
X139080723Y-93855056D02*
X138234057Y-93855056D01*
X138475961Y-93855056D02*
X138355009Y-93915532D01*
X138294533Y-93976008D01*
X138234057Y-94096960D01*
X138234057Y-94217913D01*
X139080723Y-95185532D02*
X137810723Y-95185532D01*
X139020247Y-95185532D02*
X139080723Y-95064579D01*
X139080723Y-94822675D01*
X139020247Y-94701722D01*
X138959771Y-94641246D01*
X138838819Y-94580770D01*
X138475961Y-94580770D01*
X138355009Y-94641246D01*
X138294533Y-94701722D01*
X138234057Y-94822675D01*
X138234057Y-95064579D01*
X138294533Y-95185532D01*
X138234057Y-95669341D02*
X139080723Y-95911246D01*
X138475961Y-96153151D01*
X139080723Y-96395056D01*
X138234057Y-96636960D01*
X139080723Y-97665056D02*
X138415485Y-97665056D01*
X138294533Y-97604579D01*
X138234057Y-97483627D01*
X138234057Y-97241722D01*
X138294533Y-97120770D01*
X139020247Y-97665056D02*
X139080723Y-97544103D01*
X139080723Y-97241722D01*
X139020247Y-97120770D01*
X138899295Y-97060294D01*
X138778342Y-97060294D01*
X138657390Y-97120770D01*
X138596914Y-97241722D01*
X138596914Y-97544103D01*
X138536438Y-97665056D01*
X139080723Y-98269818D02*
X138234057Y-98269818D01*
X138475961Y-98269818D02*
X138355009Y-98330294D01*
X138294533Y-98390770D01*
X138234057Y-98511722D01*
X138234057Y-98632675D01*
X139020247Y-99539818D02*
X139080723Y-99418865D01*
X139080723Y-99176960D01*
X139020247Y-99056008D01*
X138899295Y-98995532D01*
X138415485Y-98995532D01*
X138294533Y-99056008D01*
X138234057Y-99176960D01*
X138234057Y-99418865D01*
X138294533Y-99539818D01*
X138415485Y-99600294D01*
X138536438Y-99600294D01*
X138657390Y-98995532D01*
X138475961Y-100930770D02*
X138415485Y-100870294D01*
X138355009Y-100749341D01*
X138355009Y-100628389D01*
X138415485Y-100507437D01*
X138475961Y-100446960D01*
X138596914Y-100386484D01*
X138717866Y-100386484D01*
X138838819Y-100446960D01*
X138899295Y-100507437D01*
X138959771Y-100628389D01*
X138959771Y-100749341D01*
X138899295Y-100870294D01*
X138838819Y-100930770D01*
X138355009Y-100930770D02*
X138838819Y-100930770D01*
X138899295Y-100991246D01*
X138899295Y-101051722D01*
X138838819Y-101172675D01*
X138717866Y-101233151D01*
X138415485Y-101233151D01*
X138234057Y-101112199D01*
X138113104Y-100930770D01*
X138052628Y-100688865D01*
X138113104Y-100446960D01*
X138234057Y-100265532D01*
X138415485Y-100144579D01*
X138657390Y-100084103D01*
X138899295Y-100144579D01*
X139080723Y-100265532D01*
X139201676Y-100446960D01*
X139262152Y-100688865D01*
X139201676Y-100930770D01*
X139080723Y-101112199D01*
X138234057Y-101777437D02*
X139080723Y-101777437D01*
X138355009Y-101777437D02*
X138294533Y-101837913D01*
X138234057Y-101958865D01*
X138234057Y-102140294D01*
X138294533Y-102261246D01*
X138415485Y-102321722D01*
X139080723Y-102321722D01*
X139080723Y-102926484D02*
X138234057Y-102926484D01*
X138475961Y-102926484D02*
X138355009Y-102986960D01*
X138294533Y-103047437D01*
X138234057Y-103168389D01*
X138234057Y-103289341D01*
X139080723Y-103894103D02*
X139020247Y-103773151D01*
X138899295Y-103712675D01*
X137810723Y-103712675D01*
X139020247Y-104861722D02*
X139080723Y-104740770D01*
X139080723Y-104498865D01*
X139020247Y-104377913D01*
X138899295Y-104317437D01*
X138415485Y-104317437D01*
X138294533Y-104377913D01*
X138234057Y-104498865D01*
X138234057Y-104740770D01*
X138294533Y-104861722D01*
X138415485Y-104922199D01*
X138536438Y-104922199D01*
X138657390Y-104317437D01*
X138234057Y-105345532D02*
X139080723Y-105587437D01*
X138475961Y-105829341D01*
X139080723Y-106071246D01*
X138234057Y-106313151D01*
X139080723Y-106796960D02*
X138234057Y-106796960D01*
X137810723Y-106796960D02*
X137871200Y-106736484D01*
X137931676Y-106796960D01*
X137871200Y-106857437D01*
X137810723Y-106796960D01*
X137931676Y-106796960D01*
X139020247Y-107341246D02*
X139080723Y-107462199D01*
X139080723Y-107704103D01*
X139020247Y-107825056D01*
X138899295Y-107885532D01*
X138838819Y-107885532D01*
X138717866Y-107825056D01*
X138657390Y-107704103D01*
X138657390Y-107522675D01*
X138596914Y-107401722D01*
X138475961Y-107341246D01*
X138415485Y-107341246D01*
X138294533Y-107401722D01*
X138234057Y-107522675D01*
X138234057Y-107704103D01*
X138294533Y-107825056D01*
X138959771Y-108429818D02*
X139020247Y-108490294D01*
X139080723Y-108429818D01*
X139020247Y-108369341D01*
X138959771Y-108429818D01*
X139080723Y-108429818D01*
X139080723Y-109578865D02*
X137810723Y-109578865D01*
X139020247Y-109578865D02*
X139080723Y-109457913D01*
X139080723Y-109216008D01*
X139020247Y-109095056D01*
X138959771Y-109034579D01*
X138838819Y-108974103D01*
X138475961Y-108974103D01*
X138355009Y-109034579D01*
X138294533Y-109095056D01*
X138234057Y-109216008D01*
X138234057Y-109457913D01*
X138294533Y-109578865D01*
X139020247Y-110667437D02*
X139080723Y-110546484D01*
X139080723Y-110304579D01*
X139020247Y-110183627D01*
X138899295Y-110123151D01*
X138415485Y-110123151D01*
X138294533Y-110183627D01*
X138234057Y-110304579D01*
X138234057Y-110546484D01*
X138294533Y-110667437D01*
X138415485Y-110727913D01*
X138536438Y-110727913D01*
X138657390Y-110123151D01*
X138234057Y-111151246D02*
X139080723Y-111453627D01*
X138234057Y-111756008D01*
X138234057Y-112239818D02*
X138596914Y-113207437D01*
X138959771Y-112239818D01*
D11*
X126604500Y-106425276D02*
X126604500Y-106934724D01*
X127649500Y-106425276D02*
X127649500Y-106934724D01*
X165156267Y-97030000D02*
X164863733Y-97030000D01*
X165156267Y-96010000D02*
X164863733Y-96010000D01*
X158894733Y-96010000D02*
X159187267Y-96010000D01*
X158894733Y-97030000D02*
X159187267Y-97030000D01*
X158892000Y-95250500D02*
X157602000Y-95250500D01*
X158892000Y-95450500D02*
X158892000Y-95250500D01*
X162052000Y-95450500D02*
X158892000Y-95450500D01*
X165212000Y-95450500D02*
X165212000Y-95250500D01*
X162052000Y-95450500D02*
X165212000Y-95450500D01*
X158892000Y-82730500D02*
X158892000Y-82930500D01*
X162052000Y-82730500D02*
X158892000Y-82730500D01*
X165212000Y-82730500D02*
X165212000Y-82930500D01*
X162052000Y-82730500D02*
X165212000Y-82730500D01*
X144571767Y-95629000D02*
X144279233Y-95629000D01*
X144571767Y-96649000D02*
X144279233Y-96649000D01*
X128224233Y-91569000D02*
X128516767Y-91569000D01*
X128224233Y-90549000D02*
X128516767Y-90549000D01*
X127649500Y-97511776D02*
X127649500Y-98021224D01*
X126604500Y-97511776D02*
X126604500Y-98021224D01*
X126604500Y-102362724D02*
X126604500Y-101853276D01*
X127649500Y-102362724D02*
X127649500Y-101853276D01*
D12*
X128944666Y-107132380D02*
X129278000Y-106656190D01*
X129516095Y-107132380D02*
X129516095Y-106132380D01*
X129135142Y-106132380D01*
X129039904Y-106180000D01*
X128992285Y-106227619D01*
X128944666Y-106322857D01*
X128944666Y-106465714D01*
X128992285Y-106560952D01*
X129039904Y-106608571D01*
X129135142Y-106656190D01*
X129516095Y-106656190D01*
X128611333Y-106132380D02*
X127992285Y-106132380D01*
X128325619Y-106513333D01*
X128182761Y-106513333D01*
X128087523Y-106560952D01*
X128039904Y-106608571D01*
X127992285Y-106703809D01*
X127992285Y-106941904D01*
X128039904Y-107037142D01*
X128087523Y-107084761D01*
X128182761Y-107132380D01*
X128468476Y-107132380D01*
X128563714Y-107084761D01*
X128611333Y-107037142D01*
X165176666Y-98337642D02*
X165224285Y-98385261D01*
X165367142Y-98432880D01*
X165462380Y-98432880D01*
X165605238Y-98385261D01*
X165700476Y-98290023D01*
X165748095Y-98194785D01*
X165795714Y-98004309D01*
X165795714Y-97861452D01*
X165748095Y-97670976D01*
X165700476Y-97575738D01*
X165605238Y-97480500D01*
X165462380Y-97432880D01*
X165367142Y-97432880D01*
X165224285Y-97480500D01*
X165176666Y-97528119D01*
X164605238Y-97861452D02*
X164700476Y-97813833D01*
X164748095Y-97766214D01*
X164795714Y-97670976D01*
X164795714Y-97623357D01*
X164748095Y-97528119D01*
X164700476Y-97480500D01*
X164605238Y-97432880D01*
X164414761Y-97432880D01*
X164319523Y-97480500D01*
X164271904Y-97528119D01*
X164224285Y-97623357D01*
X164224285Y-97670976D01*
X164271904Y-97766214D01*
X164319523Y-97813833D01*
X164414761Y-97861452D01*
X164605238Y-97861452D01*
X164700476Y-97909071D01*
X164748095Y-97956690D01*
X164795714Y-98051928D01*
X164795714Y-98242404D01*
X164748095Y-98337642D01*
X164700476Y-98385261D01*
X164605238Y-98432880D01*
X164414761Y-98432880D01*
X164319523Y-98385261D01*
X164271904Y-98337642D01*
X164224285Y-98242404D01*
X164224285Y-98051928D01*
X164271904Y-97956690D01*
X164319523Y-97909071D01*
X164414761Y-97861452D01*
X159207666Y-98401142D02*
X159255285Y-98448761D01*
X159398142Y-98496380D01*
X159493380Y-98496380D01*
X159636238Y-98448761D01*
X159731476Y-98353523D01*
X159779095Y-98258285D01*
X159826714Y-98067809D01*
X159826714Y-97924952D01*
X159779095Y-97734476D01*
X159731476Y-97639238D01*
X159636238Y-97544000D01*
X159493380Y-97496380D01*
X159398142Y-97496380D01*
X159255285Y-97544000D01*
X159207666Y-97591619D01*
X158350523Y-97829714D02*
X158350523Y-98496380D01*
X158588619Y-97448761D02*
X158826714Y-98163047D01*
X158207666Y-98163047D01*
X162813904Y-88542880D02*
X162813904Y-89352404D01*
X162766285Y-89447642D01*
X162718666Y-89495261D01*
X162623428Y-89542880D01*
X162432952Y-89542880D01*
X162337714Y-89495261D01*
X162290095Y-89447642D01*
X162242476Y-89352404D01*
X162242476Y-88542880D01*
X161337714Y-88876214D02*
X161337714Y-89542880D01*
X161575809Y-88495261D02*
X161813904Y-89209547D01*
X161194857Y-89209547D01*
X144592166Y-95066142D02*
X144639785Y-95113761D01*
X144782642Y-95161380D01*
X144877880Y-95161380D01*
X145020738Y-95113761D01*
X145115976Y-95018523D01*
X145163595Y-94923285D01*
X145211214Y-94732809D01*
X145211214Y-94589952D01*
X145163595Y-94399476D01*
X145115976Y-94304238D01*
X145020738Y-94209000D01*
X144877880Y-94161380D01*
X144782642Y-94161380D01*
X144639785Y-94209000D01*
X144592166Y-94256619D01*
X144211214Y-94256619D02*
X144163595Y-94209000D01*
X144068357Y-94161380D01*
X143830261Y-94161380D01*
X143735023Y-94209000D01*
X143687404Y-94256619D01*
X143639785Y-94351857D01*
X143639785Y-94447095D01*
X143687404Y-94589952D01*
X144258833Y-95161380D01*
X143639785Y-95161380D01*
X128537166Y-90019142D02*
X128584785Y-90066761D01*
X128727642Y-90114380D01*
X128822880Y-90114380D01*
X128965738Y-90066761D01*
X129060976Y-89971523D01*
X129108595Y-89876285D01*
X129156214Y-89685809D01*
X129156214Y-89542952D01*
X129108595Y-89352476D01*
X129060976Y-89257238D01*
X128965738Y-89162000D01*
X128822880Y-89114380D01*
X128727642Y-89114380D01*
X128584785Y-89162000D01*
X128537166Y-89209619D01*
X127584785Y-90114380D02*
X128156214Y-90114380D01*
X127870500Y-90114380D02*
X127870500Y-89114380D01*
X127965738Y-89257238D01*
X128060976Y-89352476D01*
X128156214Y-89400095D01*
X128944666Y-98242380D02*
X129278000Y-97766190D01*
X129516095Y-98242380D02*
X129516095Y-97242380D01*
X129135142Y-97242380D01*
X129039904Y-97290000D01*
X128992285Y-97337619D01*
X128944666Y-97432857D01*
X128944666Y-97575714D01*
X128992285Y-97670952D01*
X129039904Y-97718571D01*
X129135142Y-97766190D01*
X129516095Y-97766190D01*
X128563714Y-97337619D02*
X128516095Y-97290000D01*
X128420857Y-97242380D01*
X128182761Y-97242380D01*
X128087523Y-97290000D01*
X128039904Y-97337619D01*
X127992285Y-97432857D01*
X127992285Y-97528095D01*
X128039904Y-97670952D01*
X128611333Y-98242380D01*
X127992285Y-98242380D01*
X128944666Y-102560380D02*
X129278000Y-102084190D01*
X129516095Y-102560380D02*
X129516095Y-101560380D01*
X129135142Y-101560380D01*
X129039904Y-101608000D01*
X128992285Y-101655619D01*
X128944666Y-101750857D01*
X128944666Y-101893714D01*
X128992285Y-101988952D01*
X129039904Y-102036571D01*
X129135142Y-102084190D01*
X129516095Y-102084190D01*
X127992285Y-102560380D02*
X128563714Y-102560380D01*
X128278000Y-102560380D02*
X128278000Y-101560380D01*
X128373238Y-101703238D01*
X128468476Y-101798476D01*
X128563714Y-101846095D01*
%LPC*%
G36*
G01*
X126889500Y-107105000D02*
X127364500Y-107105000D01*
G75*
G02*
X127602000Y-107342500I0J-237500D01*
G01*
X127602000Y-107842500D01*
G75*
G02*
X127364500Y-108080000I-237500J0D01*
G01*
X126889500Y-108080000D01*
G75*
G02*
X126652000Y-107842500I0J237500D01*
G01*
X126652000Y-107342500D01*
G75*
G02*
X126889500Y-107105000I237500J0D01*
G01*
G37*
G36*
G01*
X126889500Y-105280000D02*
X127364500Y-105280000D01*
G75*
G02*
X127602000Y-105517500I0J-237500D01*
G01*
X127602000Y-106017500D01*
G75*
G02*
X127364500Y-106255000I-237500J0D01*
G01*
X126889500Y-106255000D01*
G75*
G02*
X126652000Y-106017500I0J237500D01*
G01*
X126652000Y-105517500D01*
G75*
G02*
X126889500Y-105280000I237500J0D01*
G01*
G37*
D13*
X173241720Y-137092991D03*
X171241720Y-137092991D03*
X173241720Y-135092991D03*
X171241720Y-135092991D03*
X173241720Y-133092991D03*
X171241720Y-133092991D03*
X173241720Y-131092991D03*
X171241720Y-131092991D03*
X173241720Y-129092991D03*
X171241720Y-129092991D03*
X173241720Y-127092991D03*
X171241720Y-127092991D03*
X173241720Y-125092991D03*
X171241720Y-125092991D03*
X173241720Y-123092991D03*
X171241720Y-123092991D03*
X173241720Y-121092991D03*
D14*
X171241720Y-121092991D03*
D13*
X173241720Y-117092991D03*
X171241720Y-117092991D03*
X173241720Y-115092991D03*
X171241720Y-115092991D03*
X173241720Y-113092991D03*
X171241720Y-113092991D03*
X173241720Y-111092991D03*
X171241720Y-111092991D03*
X173241720Y-109092991D03*
X171241720Y-109092991D03*
X173241720Y-107092991D03*
X171241720Y-107092991D03*
X173241720Y-105092991D03*
X171241720Y-105092991D03*
X173241720Y-103092991D03*
X171241720Y-103092991D03*
X173241720Y-101092991D03*
D14*
X171241720Y-101092991D03*
D13*
X173241720Y-97092991D03*
X171241720Y-97092991D03*
X173241720Y-95092991D03*
X171241720Y-95092991D03*
X173241720Y-93092991D03*
X171241720Y-93092991D03*
X173241720Y-91092991D03*
X171241720Y-91092991D03*
X173241720Y-89092991D03*
X171241720Y-89092991D03*
X173241720Y-87092991D03*
X171241720Y-87092991D03*
X173241720Y-85092991D03*
X171241720Y-85092991D03*
X173241720Y-83092991D03*
X171241720Y-83092991D03*
X173241720Y-81092991D03*
D14*
X171241720Y-81092991D03*
D13*
X173241720Y-77092991D03*
X171241720Y-77092991D03*
X173241720Y-75092991D03*
X171241720Y-75092991D03*
X173241720Y-73092991D03*
X171241720Y-73092991D03*
X173241720Y-71092991D03*
X171241720Y-71092991D03*
X173241720Y-69092991D03*
X171241720Y-69092991D03*
X173241720Y-67092991D03*
X171241720Y-67092991D03*
X173241720Y-65092991D03*
X171241720Y-65092991D03*
X173241720Y-63092991D03*
X171241720Y-63092991D03*
X173241720Y-61092991D03*
D14*
X171241720Y-61092991D03*
G36*
G01*
X164685000Y-96282500D02*
X164685000Y-96757500D01*
G75*
G02*
X164447500Y-96995000I-237500J0D01*
G01*
X163847500Y-96995000D01*
G75*
G02*
X163610000Y-96757500I0J237500D01*
G01*
X163610000Y-96282500D01*
G75*
G02*
X163847500Y-96045000I237500J0D01*
G01*
X164447500Y-96045000D01*
G75*
G02*
X164685000Y-96282500I0J-237500D01*
G01*
G37*
G36*
G01*
X166410000Y-96282500D02*
X166410000Y-96757500D01*
G75*
G02*
X166172500Y-96995000I-237500J0D01*
G01*
X165572500Y-96995000D01*
G75*
G02*
X165335000Y-96757500I0J237500D01*
G01*
X165335000Y-96282500D01*
G75*
G02*
X165572500Y-96045000I237500J0D01*
G01*
X166172500Y-96045000D01*
G75*
G02*
X166410000Y-96282500I0J-237500D01*
G01*
G37*
G36*
G01*
X159366000Y-96757500D02*
X159366000Y-96282500D01*
G75*
G02*
X159603500Y-96045000I237500J0D01*
G01*
X160203500Y-96045000D01*
G75*
G02*
X160441000Y-96282500I0J-237500D01*
G01*
X160441000Y-96757500D01*
G75*
G02*
X160203500Y-96995000I-237500J0D01*
G01*
X159603500Y-96995000D01*
G75*
G02*
X159366000Y-96757500I0J237500D01*
G01*
G37*
G36*
G01*
X157641000Y-96757500D02*
X157641000Y-96282500D01*
G75*
G02*
X157878500Y-96045000I237500J0D01*
G01*
X158478500Y-96045000D01*
G75*
G02*
X158716000Y-96282500I0J-237500D01*
G01*
X158716000Y-96757500D01*
G75*
G02*
X158478500Y-96995000I-237500J0D01*
G01*
X157878500Y-96995000D01*
G75*
G02*
X157641000Y-96757500I0J237500D01*
G01*
G37*
G36*
G01*
X165027000Y-94915500D02*
X165027000Y-94765500D01*
G75*
G02*
X165102000Y-94690500I75000J0D01*
G01*
X166427000Y-94690500D01*
G75*
G02*
X166502000Y-94765500I0J-75000D01*
G01*
X166502000Y-94915500D01*
G75*
G02*
X166427000Y-94990500I-75000J0D01*
G01*
X165102000Y-94990500D01*
G75*
G02*
X165027000Y-94915500I0J75000D01*
G01*
G37*
G36*
G01*
X165027000Y-94415500D02*
X165027000Y-94265500D01*
G75*
G02*
X165102000Y-94190500I75000J0D01*
G01*
X166427000Y-94190500D01*
G75*
G02*
X166502000Y-94265500I0J-75000D01*
G01*
X166502000Y-94415500D01*
G75*
G02*
X166427000Y-94490500I-75000J0D01*
G01*
X165102000Y-94490500D01*
G75*
G02*
X165027000Y-94415500I0J75000D01*
G01*
G37*
G36*
G01*
X165027000Y-93915500D02*
X165027000Y-93765500D01*
G75*
G02*
X165102000Y-93690500I75000J0D01*
G01*
X166427000Y-93690500D01*
G75*
G02*
X166502000Y-93765500I0J-75000D01*
G01*
X166502000Y-93915500D01*
G75*
G02*
X166427000Y-93990500I-75000J0D01*
G01*
X165102000Y-93990500D01*
G75*
G02*
X165027000Y-93915500I0J75000D01*
G01*
G37*
G36*
G01*
X165027000Y-93415500D02*
X165027000Y-93265500D01*
G75*
G02*
X165102000Y-93190500I75000J0D01*
G01*
X166427000Y-93190500D01*
G75*
G02*
X166502000Y-93265500I0J-75000D01*
G01*
X166502000Y-93415500D01*
G75*
G02*
X166427000Y-93490500I-75000J0D01*
G01*
X165102000Y-93490500D01*
G75*
G02*
X165027000Y-93415500I0J75000D01*
G01*
G37*
G36*
G01*
X165027000Y-92915500D02*
X165027000Y-92765500D01*
G75*
G02*
X165102000Y-92690500I75000J0D01*
G01*
X166427000Y-92690500D01*
G75*
G02*
X166502000Y-92765500I0J-75000D01*
G01*
X166502000Y-92915500D01*
G75*
G02*
X166427000Y-92990500I-75000J0D01*
G01*
X165102000Y-92990500D01*
G75*
G02*
X165027000Y-92915500I0J75000D01*
G01*
G37*
G36*
G01*
X165027000Y-92415500D02*
X165027000Y-92265500D01*
G75*
G02*
X165102000Y-92190500I75000J0D01*
G01*
X166427000Y-92190500D01*
G75*
G02*
X166502000Y-92265500I0J-75000D01*
G01*
X166502000Y-92415500D01*
G75*
G02*
X166427000Y-92490500I-75000J0D01*
G01*
X165102000Y-92490500D01*
G75*
G02*
X165027000Y-92415500I0J75000D01*
G01*
G37*
G36*
G01*
X165027000Y-91915500D02*
X165027000Y-91765500D01*
G75*
G02*
X165102000Y-91690500I75000J0D01*
G01*
X166427000Y-91690500D01*
G75*
G02*
X166502000Y-91765500I0J-75000D01*
G01*
X166502000Y-91915500D01*
G75*
G02*
X166427000Y-91990500I-75000J0D01*
G01*
X165102000Y-91990500D01*
G75*
G02*
X165027000Y-91915500I0J75000D01*
G01*
G37*
G36*
G01*
X165027000Y-91415500D02*
X165027000Y-91265500D01*
G75*
G02*
X165102000Y-91190500I75000J0D01*
G01*
X166427000Y-91190500D01*
G75*
G02*
X166502000Y-91265500I0J-75000D01*
G01*
X166502000Y-91415500D01*
G75*
G02*
X166427000Y-91490500I-75000J0D01*
G01*
X165102000Y-91490500D01*
G75*
G02*
X165027000Y-91415500I0J75000D01*
G01*
G37*
G36*
G01*
X165027000Y-90915500D02*
X165027000Y-90765500D01*
G75*
G02*
X165102000Y-90690500I75000J0D01*
G01*
X166427000Y-90690500D01*
G75*
G02*
X166502000Y-90765500I0J-75000D01*
G01*
X166502000Y-90915500D01*
G75*
G02*
X166427000Y-90990500I-75000J0D01*
G01*
X165102000Y-90990500D01*
G75*
G02*
X165027000Y-90915500I0J75000D01*
G01*
G37*
G36*
G01*
X165027000Y-90415500D02*
X165027000Y-90265500D01*
G75*
G02*
X165102000Y-90190500I75000J0D01*
G01*
X166427000Y-90190500D01*
G75*
G02*
X166502000Y-90265500I0J-75000D01*
G01*
X166502000Y-90415500D01*
G75*
G02*
X166427000Y-90490500I-75000J0D01*
G01*
X165102000Y-90490500D01*
G75*
G02*
X165027000Y-90415500I0J75000D01*
G01*
G37*
G36*
G01*
X165027000Y-89915500D02*
X165027000Y-89765500D01*
G75*
G02*
X165102000Y-89690500I75000J0D01*
G01*
X166427000Y-89690500D01*
G75*
G02*
X166502000Y-89765500I0J-75000D01*
G01*
X166502000Y-89915500D01*
G75*
G02*
X166427000Y-89990500I-75000J0D01*
G01*
X165102000Y-89990500D01*
G75*
G02*
X165027000Y-89915500I0J75000D01*
G01*
G37*
G36*
G01*
X165027000Y-89415500D02*
X165027000Y-89265500D01*
G75*
G02*
X165102000Y-89190500I75000J0D01*
G01*
X166427000Y-89190500D01*
G75*
G02*
X166502000Y-89265500I0J-75000D01*
G01*
X166502000Y-89415500D01*
G75*
G02*
X166427000Y-89490500I-75000J0D01*
G01*
X165102000Y-89490500D01*
G75*
G02*
X165027000Y-89415500I0J75000D01*
G01*
G37*
G36*
G01*
X165027000Y-88915500D02*
X165027000Y-88765500D01*
G75*
G02*
X165102000Y-88690500I75000J0D01*
G01*
X166427000Y-88690500D01*
G75*
G02*
X166502000Y-88765500I0J-75000D01*
G01*
X166502000Y-88915500D01*
G75*
G02*
X166427000Y-88990500I-75000J0D01*
G01*
X165102000Y-88990500D01*
G75*
G02*
X165027000Y-88915500I0J75000D01*
G01*
G37*
G36*
G01*
X165027000Y-88415500D02*
X165027000Y-88265500D01*
G75*
G02*
X165102000Y-88190500I75000J0D01*
G01*
X166427000Y-88190500D01*
G75*
G02*
X166502000Y-88265500I0J-75000D01*
G01*
X166502000Y-88415500D01*
G75*
G02*
X166427000Y-88490500I-75000J0D01*
G01*
X165102000Y-88490500D01*
G75*
G02*
X165027000Y-88415500I0J75000D01*
G01*
G37*
G36*
G01*
X165027000Y-87915500D02*
X165027000Y-87765500D01*
G75*
G02*
X165102000Y-87690500I75000J0D01*
G01*
X166427000Y-87690500D01*
G75*
G02*
X166502000Y-87765500I0J-75000D01*
G01*
X166502000Y-87915500D01*
G75*
G02*
X166427000Y-87990500I-75000J0D01*
G01*
X165102000Y-87990500D01*
G75*
G02*
X165027000Y-87915500I0J75000D01*
G01*
G37*
G36*
G01*
X165027000Y-87415500D02*
X165027000Y-87265500D01*
G75*
G02*
X165102000Y-87190500I75000J0D01*
G01*
X166427000Y-87190500D01*
G75*
G02*
X166502000Y-87265500I0J-75000D01*
G01*
X166502000Y-87415500D01*
G75*
G02*
X166427000Y-87490500I-75000J0D01*
G01*
X165102000Y-87490500D01*
G75*
G02*
X165027000Y-87415500I0J75000D01*
G01*
G37*
G36*
G01*
X165027000Y-86915500D02*
X165027000Y-86765500D01*
G75*
G02*
X165102000Y-86690500I75000J0D01*
G01*
X166427000Y-86690500D01*
G75*
G02*
X166502000Y-86765500I0J-75000D01*
G01*
X166502000Y-86915500D01*
G75*
G02*
X166427000Y-86990500I-75000J0D01*
G01*
X165102000Y-86990500D01*
G75*
G02*
X165027000Y-86915500I0J75000D01*
G01*
G37*
G36*
G01*
X165027000Y-86415500D02*
X165027000Y-86265500D01*
G75*
G02*
X165102000Y-86190500I75000J0D01*
G01*
X166427000Y-86190500D01*
G75*
G02*
X166502000Y-86265500I0J-75000D01*
G01*
X166502000Y-86415500D01*
G75*
G02*
X166427000Y-86490500I-75000J0D01*
G01*
X165102000Y-86490500D01*
G75*
G02*
X165027000Y-86415500I0J75000D01*
G01*
G37*
G36*
G01*
X165027000Y-85915500D02*
X165027000Y-85765500D01*
G75*
G02*
X165102000Y-85690500I75000J0D01*
G01*
X166427000Y-85690500D01*
G75*
G02*
X166502000Y-85765500I0J-75000D01*
G01*
X166502000Y-85915500D01*
G75*
G02*
X166427000Y-85990500I-75000J0D01*
G01*
X165102000Y-85990500D01*
G75*
G02*
X165027000Y-85915500I0J75000D01*
G01*
G37*
G36*
G01*
X165027000Y-85415500D02*
X165027000Y-85265500D01*
G75*
G02*
X165102000Y-85190500I75000J0D01*
G01*
X166427000Y-85190500D01*
G75*
G02*
X166502000Y-85265500I0J-75000D01*
G01*
X166502000Y-85415500D01*
G75*
G02*
X166427000Y-85490500I-75000J0D01*
G01*
X165102000Y-85490500D01*
G75*
G02*
X165027000Y-85415500I0J75000D01*
G01*
G37*
G36*
G01*
X165027000Y-84915500D02*
X165027000Y-84765500D01*
G75*
G02*
X165102000Y-84690500I75000J0D01*
G01*
X166427000Y-84690500D01*
G75*
G02*
X166502000Y-84765500I0J-75000D01*
G01*
X166502000Y-84915500D01*
G75*
G02*
X166427000Y-84990500I-75000J0D01*
G01*
X165102000Y-84990500D01*
G75*
G02*
X165027000Y-84915500I0J75000D01*
G01*
G37*
G36*
G01*
X165027000Y-84415500D02*
X165027000Y-84265500D01*
G75*
G02*
X165102000Y-84190500I75000J0D01*
G01*
X166427000Y-84190500D01*
G75*
G02*
X166502000Y-84265500I0J-75000D01*
G01*
X166502000Y-84415500D01*
G75*
G02*
X166427000Y-84490500I-75000J0D01*
G01*
X165102000Y-84490500D01*
G75*
G02*
X165027000Y-84415500I0J75000D01*
G01*
G37*
G36*
G01*
X165027000Y-83915500D02*
X165027000Y-83765500D01*
G75*
G02*
X165102000Y-83690500I75000J0D01*
G01*
X166427000Y-83690500D01*
G75*
G02*
X166502000Y-83765500I0J-75000D01*
G01*
X166502000Y-83915500D01*
G75*
G02*
X166427000Y-83990500I-75000J0D01*
G01*
X165102000Y-83990500D01*
G75*
G02*
X165027000Y-83915500I0J75000D01*
G01*
G37*
G36*
G01*
X165027000Y-83415500D02*
X165027000Y-83265500D01*
G75*
G02*
X165102000Y-83190500I75000J0D01*
G01*
X166427000Y-83190500D01*
G75*
G02*
X166502000Y-83265500I0J-75000D01*
G01*
X166502000Y-83415500D01*
G75*
G02*
X166427000Y-83490500I-75000J0D01*
G01*
X165102000Y-83490500D01*
G75*
G02*
X165027000Y-83415500I0J75000D01*
G01*
G37*
G36*
G01*
X157602000Y-83415500D02*
X157602000Y-83265500D01*
G75*
G02*
X157677000Y-83190500I75000J0D01*
G01*
X159002000Y-83190500D01*
G75*
G02*
X159077000Y-83265500I0J-75000D01*
G01*
X159077000Y-83415500D01*
G75*
G02*
X159002000Y-83490500I-75000J0D01*
G01*
X157677000Y-83490500D01*
G75*
G02*
X157602000Y-83415500I0J75000D01*
G01*
G37*
G36*
G01*
X157602000Y-83915500D02*
X157602000Y-83765500D01*
G75*
G02*
X157677000Y-83690500I75000J0D01*
G01*
X159002000Y-83690500D01*
G75*
G02*
X159077000Y-83765500I0J-75000D01*
G01*
X159077000Y-83915500D01*
G75*
G02*
X159002000Y-83990500I-75000J0D01*
G01*
X157677000Y-83990500D01*
G75*
G02*
X157602000Y-83915500I0J75000D01*
G01*
G37*
G36*
G01*
X157602000Y-84415500D02*
X157602000Y-84265500D01*
G75*
G02*
X157677000Y-84190500I75000J0D01*
G01*
X159002000Y-84190500D01*
G75*
G02*
X159077000Y-84265500I0J-75000D01*
G01*
X159077000Y-84415500D01*
G75*
G02*
X159002000Y-84490500I-75000J0D01*
G01*
X157677000Y-84490500D01*
G75*
G02*
X157602000Y-84415500I0J75000D01*
G01*
G37*
G36*
G01*
X157602000Y-84915500D02*
X157602000Y-84765500D01*
G75*
G02*
X157677000Y-84690500I75000J0D01*
G01*
X159002000Y-84690500D01*
G75*
G02*
X159077000Y-84765500I0J-75000D01*
G01*
X159077000Y-84915500D01*
G75*
G02*
X159002000Y-84990500I-75000J0D01*
G01*
X157677000Y-84990500D01*
G75*
G02*
X157602000Y-84915500I0J75000D01*
G01*
G37*
G36*
G01*
X157602000Y-85415500D02*
X157602000Y-85265500D01*
G75*
G02*
X157677000Y-85190500I75000J0D01*
G01*
X159002000Y-85190500D01*
G75*
G02*
X159077000Y-85265500I0J-75000D01*
G01*
X159077000Y-85415500D01*
G75*
G02*
X159002000Y-85490500I-75000J0D01*
G01*
X157677000Y-85490500D01*
G75*
G02*
X157602000Y-85415500I0J75000D01*
G01*
G37*
G36*
G01*
X157602000Y-85915500D02*
X157602000Y-85765500D01*
G75*
G02*
X157677000Y-85690500I75000J0D01*
G01*
X159002000Y-85690500D01*
G75*
G02*
X159077000Y-85765500I0J-75000D01*
G01*
X159077000Y-85915500D01*
G75*
G02*
X159002000Y-85990500I-75000J0D01*
G01*
X157677000Y-85990500D01*
G75*
G02*
X157602000Y-85915500I0J75000D01*
G01*
G37*
G36*
G01*
X157602000Y-86415500D02*
X157602000Y-86265500D01*
G75*
G02*
X157677000Y-86190500I75000J0D01*
G01*
X159002000Y-86190500D01*
G75*
G02*
X159077000Y-86265500I0J-75000D01*
G01*
X159077000Y-86415500D01*
G75*
G02*
X159002000Y-86490500I-75000J0D01*
G01*
X157677000Y-86490500D01*
G75*
G02*
X157602000Y-86415500I0J75000D01*
G01*
G37*
G36*
G01*
X157602000Y-86915500D02*
X157602000Y-86765500D01*
G75*
G02*
X157677000Y-86690500I75000J0D01*
G01*
X159002000Y-86690500D01*
G75*
G02*
X159077000Y-86765500I0J-75000D01*
G01*
X159077000Y-86915500D01*
G75*
G02*
X159002000Y-86990500I-75000J0D01*
G01*
X157677000Y-86990500D01*
G75*
G02*
X157602000Y-86915500I0J75000D01*
G01*
G37*
G36*
G01*
X157602000Y-87415500D02*
X157602000Y-87265500D01*
G75*
G02*
X157677000Y-87190500I75000J0D01*
G01*
X159002000Y-87190500D01*
G75*
G02*
X159077000Y-87265500I0J-75000D01*
G01*
X159077000Y-87415500D01*
G75*
G02*
X159002000Y-87490500I-75000J0D01*
G01*
X157677000Y-87490500D01*
G75*
G02*
X157602000Y-87415500I0J75000D01*
G01*
G37*
G36*
G01*
X157602000Y-87915500D02*
X157602000Y-87765500D01*
G75*
G02*
X157677000Y-87690500I75000J0D01*
G01*
X159002000Y-87690500D01*
G75*
G02*
X159077000Y-87765500I0J-75000D01*
G01*
X159077000Y-87915500D01*
G75*
G02*
X159002000Y-87990500I-75000J0D01*
G01*
X157677000Y-87990500D01*
G75*
G02*
X157602000Y-87915500I0J75000D01*
G01*
G37*
G36*
G01*
X157602000Y-88415500D02*
X157602000Y-88265500D01*
G75*
G02*
X157677000Y-88190500I75000J0D01*
G01*
X159002000Y-88190500D01*
G75*
G02*
X159077000Y-88265500I0J-75000D01*
G01*
X159077000Y-88415500D01*
G75*
G02*
X159002000Y-88490500I-75000J0D01*
G01*
X157677000Y-88490500D01*
G75*
G02*
X157602000Y-88415500I0J75000D01*
G01*
G37*
G36*
G01*
X157602000Y-88915500D02*
X157602000Y-88765500D01*
G75*
G02*
X157677000Y-88690500I75000J0D01*
G01*
X159002000Y-88690500D01*
G75*
G02*
X159077000Y-88765500I0J-75000D01*
G01*
X159077000Y-88915500D01*
G75*
G02*
X159002000Y-88990500I-75000J0D01*
G01*
X157677000Y-88990500D01*
G75*
G02*
X157602000Y-88915500I0J75000D01*
G01*
G37*
G36*
G01*
X157602000Y-89415500D02*
X157602000Y-89265500D01*
G75*
G02*
X157677000Y-89190500I75000J0D01*
G01*
X159002000Y-89190500D01*
G75*
G02*
X159077000Y-89265500I0J-75000D01*
G01*
X159077000Y-89415500D01*
G75*
G02*
X159002000Y-89490500I-75000J0D01*
G01*
X157677000Y-89490500D01*
G75*
G02*
X157602000Y-89415500I0J75000D01*
G01*
G37*
G36*
G01*
X157602000Y-89915500D02*
X157602000Y-89765500D01*
G75*
G02*
X157677000Y-89690500I75000J0D01*
G01*
X159002000Y-89690500D01*
G75*
G02*
X159077000Y-89765500I0J-75000D01*
G01*
X159077000Y-89915500D01*
G75*
G02*
X159002000Y-89990500I-75000J0D01*
G01*
X157677000Y-89990500D01*
G75*
G02*
X157602000Y-89915500I0J75000D01*
G01*
G37*
G36*
G01*
X157602000Y-90415500D02*
X157602000Y-90265500D01*
G75*
G02*
X157677000Y-90190500I75000J0D01*
G01*
X159002000Y-90190500D01*
G75*
G02*
X159077000Y-90265500I0J-75000D01*
G01*
X159077000Y-90415500D01*
G75*
G02*
X159002000Y-90490500I-75000J0D01*
G01*
X157677000Y-90490500D01*
G75*
G02*
X157602000Y-90415500I0J75000D01*
G01*
G37*
G36*
G01*
X157602000Y-90915500D02*
X157602000Y-90765500D01*
G75*
G02*
X157677000Y-90690500I75000J0D01*
G01*
X159002000Y-90690500D01*
G75*
G02*
X159077000Y-90765500I0J-75000D01*
G01*
X159077000Y-90915500D01*
G75*
G02*
X159002000Y-90990500I-75000J0D01*
G01*
X157677000Y-90990500D01*
G75*
G02*
X157602000Y-90915500I0J75000D01*
G01*
G37*
G36*
G01*
X157602000Y-91415500D02*
X157602000Y-91265500D01*
G75*
G02*
X157677000Y-91190500I75000J0D01*
G01*
X159002000Y-91190500D01*
G75*
G02*
X159077000Y-91265500I0J-75000D01*
G01*
X159077000Y-91415500D01*
G75*
G02*
X159002000Y-91490500I-75000J0D01*
G01*
X157677000Y-91490500D01*
G75*
G02*
X157602000Y-91415500I0J75000D01*
G01*
G37*
G36*
G01*
X157602000Y-91915500D02*
X157602000Y-91765500D01*
G75*
G02*
X157677000Y-91690500I75000J0D01*
G01*
X159002000Y-91690500D01*
G75*
G02*
X159077000Y-91765500I0J-75000D01*
G01*
X159077000Y-91915500D01*
G75*
G02*
X159002000Y-91990500I-75000J0D01*
G01*
X157677000Y-91990500D01*
G75*
G02*
X157602000Y-91915500I0J75000D01*
G01*
G37*
G36*
G01*
X157602000Y-92415500D02*
X157602000Y-92265500D01*
G75*
G02*
X157677000Y-92190500I75000J0D01*
G01*
X159002000Y-92190500D01*
G75*
G02*
X159077000Y-92265500I0J-75000D01*
G01*
X159077000Y-92415500D01*
G75*
G02*
X159002000Y-92490500I-75000J0D01*
G01*
X157677000Y-92490500D01*
G75*
G02*
X157602000Y-92415500I0J75000D01*
G01*
G37*
G36*
G01*
X157602000Y-92915500D02*
X157602000Y-92765500D01*
G75*
G02*
X157677000Y-92690500I75000J0D01*
G01*
X159002000Y-92690500D01*
G75*
G02*
X159077000Y-92765500I0J-75000D01*
G01*
X159077000Y-92915500D01*
G75*
G02*
X159002000Y-92990500I-75000J0D01*
G01*
X157677000Y-92990500D01*
G75*
G02*
X157602000Y-92915500I0J75000D01*
G01*
G37*
G36*
G01*
X157602000Y-93415500D02*
X157602000Y-93265500D01*
G75*
G02*
X157677000Y-93190500I75000J0D01*
G01*
X159002000Y-93190500D01*
G75*
G02*
X159077000Y-93265500I0J-75000D01*
G01*
X159077000Y-93415500D01*
G75*
G02*
X159002000Y-93490500I-75000J0D01*
G01*
X157677000Y-93490500D01*
G75*
G02*
X157602000Y-93415500I0J75000D01*
G01*
G37*
G36*
G01*
X157602000Y-93915500D02*
X157602000Y-93765500D01*
G75*
G02*
X157677000Y-93690500I75000J0D01*
G01*
X159002000Y-93690500D01*
G75*
G02*
X159077000Y-93765500I0J-75000D01*
G01*
X159077000Y-93915500D01*
G75*
G02*
X159002000Y-93990500I-75000J0D01*
G01*
X157677000Y-93990500D01*
G75*
G02*
X157602000Y-93915500I0J75000D01*
G01*
G37*
G36*
G01*
X157602000Y-94415500D02*
X157602000Y-94265500D01*
G75*
G02*
X157677000Y-94190500I75000J0D01*
G01*
X159002000Y-94190500D01*
G75*
G02*
X159077000Y-94265500I0J-75000D01*
G01*
X159077000Y-94415500D01*
G75*
G02*
X159002000Y-94490500I-75000J0D01*
G01*
X157677000Y-94490500D01*
G75*
G02*
X157602000Y-94415500I0J75000D01*
G01*
G37*
G36*
G01*
X157602000Y-94915500D02*
X157602000Y-94765500D01*
G75*
G02*
X157677000Y-94690500I75000J0D01*
G01*
X159002000Y-94690500D01*
G75*
G02*
X159077000Y-94765500I0J-75000D01*
G01*
X159077000Y-94915500D01*
G75*
G02*
X159002000Y-94990500I-75000J0D01*
G01*
X157677000Y-94990500D01*
G75*
G02*
X157602000Y-94915500I0J75000D01*
G01*
G37*
G36*
G01*
X144100500Y-95901500D02*
X144100500Y-96376500D01*
G75*
G02*
X143863000Y-96614000I-237500J0D01*
G01*
X143263000Y-96614000D01*
G75*
G02*
X143025500Y-96376500I0J237500D01*
G01*
X143025500Y-95901500D01*
G75*
G02*
X143263000Y-95664000I237500J0D01*
G01*
X143863000Y-95664000D01*
G75*
G02*
X144100500Y-95901500I0J-237500D01*
G01*
G37*
G36*
G01*
X145825500Y-95901500D02*
X145825500Y-96376500D01*
G75*
G02*
X145588000Y-96614000I-237500J0D01*
G01*
X144988000Y-96614000D01*
G75*
G02*
X144750500Y-96376500I0J237500D01*
G01*
X144750500Y-95901500D01*
G75*
G02*
X144988000Y-95664000I237500J0D01*
G01*
X145588000Y-95664000D01*
G75*
G02*
X145825500Y-95901500I0J-237500D01*
G01*
G37*
G36*
G01*
X128695500Y-91296500D02*
X128695500Y-90821500D01*
G75*
G02*
X128933000Y-90584000I237500J0D01*
G01*
X129533000Y-90584000D01*
G75*
G02*
X129770500Y-90821500I0J-237500D01*
G01*
X129770500Y-91296500D01*
G75*
G02*
X129533000Y-91534000I-237500J0D01*
G01*
X128933000Y-91534000D01*
G75*
G02*
X128695500Y-91296500I0J237500D01*
G01*
G37*
G36*
G01*
X126970500Y-91296500D02*
X126970500Y-90821500D01*
G75*
G02*
X127208000Y-90584000I237500J0D01*
G01*
X127808000Y-90584000D01*
G75*
G02*
X128045500Y-90821500I0J-237500D01*
G01*
X128045500Y-91296500D01*
G75*
G02*
X127808000Y-91534000I-237500J0D01*
G01*
X127208000Y-91534000D01*
G75*
G02*
X126970500Y-91296500I0J237500D01*
G01*
G37*
G36*
G01*
X126889500Y-98191500D02*
X127364500Y-98191500D01*
G75*
G02*
X127602000Y-98429000I0J-237500D01*
G01*
X127602000Y-98929000D01*
G75*
G02*
X127364500Y-99166500I-237500J0D01*
G01*
X126889500Y-99166500D01*
G75*
G02*
X126652000Y-98929000I0J237500D01*
G01*
X126652000Y-98429000D01*
G75*
G02*
X126889500Y-98191500I237500J0D01*
G01*
G37*
G36*
G01*
X126889500Y-96366500D02*
X127364500Y-96366500D01*
G75*
G02*
X127602000Y-96604000I0J-237500D01*
G01*
X127602000Y-97104000D01*
G75*
G02*
X127364500Y-97341500I-237500J0D01*
G01*
X126889500Y-97341500D01*
G75*
G02*
X126652000Y-97104000I0J237500D01*
G01*
X126652000Y-96604000D01*
G75*
G02*
X126889500Y-96366500I237500J0D01*
G01*
G37*
G36*
G01*
X127364500Y-101683000D02*
X126889500Y-101683000D01*
G75*
G02*
X126652000Y-101445500I0J237500D01*
G01*
X126652000Y-100945500D01*
G75*
G02*
X126889500Y-100708000I237500J0D01*
G01*
X127364500Y-100708000D01*
G75*
G02*
X127602000Y-100945500I0J-237500D01*
G01*
X127602000Y-101445500D01*
G75*
G02*
X127364500Y-101683000I-237500J0D01*
G01*
G37*
G36*
G01*
X127364500Y-103508000D02*
X126889500Y-103508000D01*
G75*
G02*
X126652000Y-103270500I0J237500D01*
G01*
X126652000Y-102770500D01*
G75*
G02*
X126889500Y-102533000I237500J0D01*
G01*
X127364500Y-102533000D01*
G75*
G02*
X127602000Y-102770500I0J-237500D01*
G01*
X127602000Y-103270500D01*
G75*
G02*
X127364500Y-103508000I-237500J0D01*
G01*
G37*
D15*
X147828000Y-58039000D03*
X124968000Y-136779000D03*
X147828000Y-60579000D03*
X124968000Y-134239000D03*
X147828000Y-63119000D03*
X124968000Y-131699000D03*
X147828000Y-65659000D03*
X124968000Y-129159000D03*
X147828000Y-68199000D03*
X124968000Y-126619000D03*
X147828000Y-70739000D03*
X124968000Y-124079000D03*
X147828000Y-73279000D03*
X124968000Y-121539000D03*
X147828000Y-75819000D03*
X124968000Y-118999000D03*
X147828000Y-78359000D03*
X124968000Y-116459000D03*
X147828000Y-80899000D03*
X124968000Y-113919000D03*
X147828000Y-83439000D03*
X124968000Y-111379000D03*
X147828000Y-85979000D03*
X124968000Y-108839000D03*
X147828000Y-88519000D03*
X124968000Y-106299000D03*
X147828000Y-91059000D03*
X124968000Y-103759000D03*
X147828000Y-93599000D03*
X124968000Y-101219000D03*
X147828000Y-96139000D03*
X124968000Y-98679000D03*
X147828000Y-98679000D03*
X124968000Y-96139000D03*
X147828000Y-101219000D03*
X124968000Y-93599000D03*
X147828000Y-103759000D03*
X124968000Y-91059000D03*
X147828000Y-106299000D03*
X124968000Y-88519000D03*
X147828000Y-108839000D03*
X124968000Y-85979000D03*
X147828000Y-111379000D03*
X124968000Y-83439000D03*
X147828000Y-113919000D03*
X124968000Y-80899000D03*
X147828000Y-116459000D03*
X124968000Y-78359000D03*
X147828000Y-118999000D03*
X124968000Y-75819000D03*
X147828000Y-121539000D03*
X124968000Y-73279000D03*
X147828000Y-124079000D03*
X124968000Y-70739000D03*
X147828000Y-126619000D03*
X124968000Y-68199000D03*
X147828000Y-129159000D03*
X124968000Y-65659000D03*
X147828000Y-131699000D03*
X124968000Y-63119000D03*
X147828000Y-134239000D03*
X124968000Y-60579000D03*
X147828000Y-136779000D03*
D16*
X124968000Y-58039000D03*
M02*
