G04 #@! TF.GenerationSoftware,KiCad,Pcbnew,5.1.10*
G04 #@! TF.CreationDate,2021-08-30T11:46:02-07:00*
G04 #@! TF.ProjectId,M68K-BREAKOUT,4d36384b-2d42-4524-9541-4b4f55542e6b,rev?*
G04 #@! TF.SameCoordinates,Original*
G04 #@! TF.FileFunction,Soldermask,Bot*
G04 #@! TF.FilePolarity,Negative*
%FSLAX46Y46*%
G04 Gerber Fmt 4.6, Leading zero omitted, Abs format (unit mm)*
G04 Created by KiCad (PCBNEW 5.1.10) date 2021-08-30 11:46:02*
%MOMM*%
%LPD*%
G01*
G04 APERTURE LIST*
%ADD10O,1.350000X1.350000*%
%ADD11R,1.350000X1.350000*%
%ADD12O,1.600000X1.600000*%
%ADD13R,1.600000X1.600000*%
G04 APERTURE END LIST*
G36*
G01*
X126889500Y-107105000D02*
X127364500Y-107105000D01*
G75*
G02*
X127602000Y-107342500I0J-237500D01*
G01*
X127602000Y-107842500D01*
G75*
G02*
X127364500Y-108080000I-237500J0D01*
G01*
X126889500Y-108080000D01*
G75*
G02*
X126652000Y-107842500I0J237500D01*
G01*
X126652000Y-107342500D01*
G75*
G02*
X126889500Y-107105000I237500J0D01*
G01*
G37*
G36*
G01*
X126889500Y-105280000D02*
X127364500Y-105280000D01*
G75*
G02*
X127602000Y-105517500I0J-237500D01*
G01*
X127602000Y-106017500D01*
G75*
G02*
X127364500Y-106255000I-237500J0D01*
G01*
X126889500Y-106255000D01*
G75*
G02*
X126652000Y-106017500I0J237500D01*
G01*
X126652000Y-105517500D01*
G75*
G02*
X126889500Y-105280000I237500J0D01*
G01*
G37*
D10*
X173241720Y-137092991D03*
X171241720Y-137092991D03*
X173241720Y-135092991D03*
X171241720Y-135092991D03*
X173241720Y-133092991D03*
X171241720Y-133092991D03*
X173241720Y-131092991D03*
X171241720Y-131092991D03*
X173241720Y-129092991D03*
X171241720Y-129092991D03*
X173241720Y-127092991D03*
X171241720Y-127092991D03*
X173241720Y-125092991D03*
X171241720Y-125092991D03*
X173241720Y-123092991D03*
X171241720Y-123092991D03*
X173241720Y-121092991D03*
D11*
X171241720Y-121092991D03*
D10*
X173241720Y-117092991D03*
X171241720Y-117092991D03*
X173241720Y-115092991D03*
X171241720Y-115092991D03*
X173241720Y-113092991D03*
X171241720Y-113092991D03*
X173241720Y-111092991D03*
X171241720Y-111092991D03*
X173241720Y-109092991D03*
X171241720Y-109092991D03*
X173241720Y-107092991D03*
X171241720Y-107092991D03*
X173241720Y-105092991D03*
X171241720Y-105092991D03*
X173241720Y-103092991D03*
X171241720Y-103092991D03*
X173241720Y-101092991D03*
D11*
X171241720Y-101092991D03*
D10*
X173241720Y-97092991D03*
X171241720Y-97092991D03*
X173241720Y-95092991D03*
X171241720Y-95092991D03*
X173241720Y-93092991D03*
X171241720Y-93092991D03*
X173241720Y-91092991D03*
X171241720Y-91092991D03*
X173241720Y-89092991D03*
X171241720Y-89092991D03*
X173241720Y-87092991D03*
X171241720Y-87092991D03*
X173241720Y-85092991D03*
X171241720Y-85092991D03*
X173241720Y-83092991D03*
X171241720Y-83092991D03*
X173241720Y-81092991D03*
D11*
X171241720Y-81092991D03*
D10*
X173241720Y-77092991D03*
X171241720Y-77092991D03*
X173241720Y-75092991D03*
X171241720Y-75092991D03*
X173241720Y-73092991D03*
X171241720Y-73092991D03*
X173241720Y-71092991D03*
X171241720Y-71092991D03*
X173241720Y-69092991D03*
X171241720Y-69092991D03*
X173241720Y-67092991D03*
X171241720Y-67092991D03*
X173241720Y-65092991D03*
X171241720Y-65092991D03*
X173241720Y-63092991D03*
X171241720Y-63092991D03*
X173241720Y-61092991D03*
D11*
X171241720Y-61092991D03*
G36*
G01*
X164685000Y-96282500D02*
X164685000Y-96757500D01*
G75*
G02*
X164447500Y-96995000I-237500J0D01*
G01*
X163847500Y-96995000D01*
G75*
G02*
X163610000Y-96757500I0J237500D01*
G01*
X163610000Y-96282500D01*
G75*
G02*
X163847500Y-96045000I237500J0D01*
G01*
X164447500Y-96045000D01*
G75*
G02*
X164685000Y-96282500I0J-237500D01*
G01*
G37*
G36*
G01*
X166410000Y-96282500D02*
X166410000Y-96757500D01*
G75*
G02*
X166172500Y-96995000I-237500J0D01*
G01*
X165572500Y-96995000D01*
G75*
G02*
X165335000Y-96757500I0J237500D01*
G01*
X165335000Y-96282500D01*
G75*
G02*
X165572500Y-96045000I237500J0D01*
G01*
X166172500Y-96045000D01*
G75*
G02*
X166410000Y-96282500I0J-237500D01*
G01*
G37*
G36*
G01*
X159366000Y-96757500D02*
X159366000Y-96282500D01*
G75*
G02*
X159603500Y-96045000I237500J0D01*
G01*
X160203500Y-96045000D01*
G75*
G02*
X160441000Y-96282500I0J-237500D01*
G01*
X160441000Y-96757500D01*
G75*
G02*
X160203500Y-96995000I-237500J0D01*
G01*
X159603500Y-96995000D01*
G75*
G02*
X159366000Y-96757500I0J237500D01*
G01*
G37*
G36*
G01*
X157641000Y-96757500D02*
X157641000Y-96282500D01*
G75*
G02*
X157878500Y-96045000I237500J0D01*
G01*
X158478500Y-96045000D01*
G75*
G02*
X158716000Y-96282500I0J-237500D01*
G01*
X158716000Y-96757500D01*
G75*
G02*
X158478500Y-96995000I-237500J0D01*
G01*
X157878500Y-96995000D01*
G75*
G02*
X157641000Y-96757500I0J237500D01*
G01*
G37*
G36*
G01*
X165027000Y-94915500D02*
X165027000Y-94765500D01*
G75*
G02*
X165102000Y-94690500I75000J0D01*
G01*
X166427000Y-94690500D01*
G75*
G02*
X166502000Y-94765500I0J-75000D01*
G01*
X166502000Y-94915500D01*
G75*
G02*
X166427000Y-94990500I-75000J0D01*
G01*
X165102000Y-94990500D01*
G75*
G02*
X165027000Y-94915500I0J75000D01*
G01*
G37*
G36*
G01*
X165027000Y-94415500D02*
X165027000Y-94265500D01*
G75*
G02*
X165102000Y-94190500I75000J0D01*
G01*
X166427000Y-94190500D01*
G75*
G02*
X166502000Y-94265500I0J-75000D01*
G01*
X166502000Y-94415500D01*
G75*
G02*
X166427000Y-94490500I-75000J0D01*
G01*
X165102000Y-94490500D01*
G75*
G02*
X165027000Y-94415500I0J75000D01*
G01*
G37*
G36*
G01*
X165027000Y-93915500D02*
X165027000Y-93765500D01*
G75*
G02*
X165102000Y-93690500I75000J0D01*
G01*
X166427000Y-93690500D01*
G75*
G02*
X166502000Y-93765500I0J-75000D01*
G01*
X166502000Y-93915500D01*
G75*
G02*
X166427000Y-93990500I-75000J0D01*
G01*
X165102000Y-93990500D01*
G75*
G02*
X165027000Y-93915500I0J75000D01*
G01*
G37*
G36*
G01*
X165027000Y-93415500D02*
X165027000Y-93265500D01*
G75*
G02*
X165102000Y-93190500I75000J0D01*
G01*
X166427000Y-93190500D01*
G75*
G02*
X166502000Y-93265500I0J-75000D01*
G01*
X166502000Y-93415500D01*
G75*
G02*
X166427000Y-93490500I-75000J0D01*
G01*
X165102000Y-93490500D01*
G75*
G02*
X165027000Y-93415500I0J75000D01*
G01*
G37*
G36*
G01*
X165027000Y-92915500D02*
X165027000Y-92765500D01*
G75*
G02*
X165102000Y-92690500I75000J0D01*
G01*
X166427000Y-92690500D01*
G75*
G02*
X166502000Y-92765500I0J-75000D01*
G01*
X166502000Y-92915500D01*
G75*
G02*
X166427000Y-92990500I-75000J0D01*
G01*
X165102000Y-92990500D01*
G75*
G02*
X165027000Y-92915500I0J75000D01*
G01*
G37*
G36*
G01*
X165027000Y-92415500D02*
X165027000Y-92265500D01*
G75*
G02*
X165102000Y-92190500I75000J0D01*
G01*
X166427000Y-92190500D01*
G75*
G02*
X166502000Y-92265500I0J-75000D01*
G01*
X166502000Y-92415500D01*
G75*
G02*
X166427000Y-92490500I-75000J0D01*
G01*
X165102000Y-92490500D01*
G75*
G02*
X165027000Y-92415500I0J75000D01*
G01*
G37*
G36*
G01*
X165027000Y-91915500D02*
X165027000Y-91765500D01*
G75*
G02*
X165102000Y-91690500I75000J0D01*
G01*
X166427000Y-91690500D01*
G75*
G02*
X166502000Y-91765500I0J-75000D01*
G01*
X166502000Y-91915500D01*
G75*
G02*
X166427000Y-91990500I-75000J0D01*
G01*
X165102000Y-91990500D01*
G75*
G02*
X165027000Y-91915500I0J75000D01*
G01*
G37*
G36*
G01*
X165027000Y-91415500D02*
X165027000Y-91265500D01*
G75*
G02*
X165102000Y-91190500I75000J0D01*
G01*
X166427000Y-91190500D01*
G75*
G02*
X166502000Y-91265500I0J-75000D01*
G01*
X166502000Y-91415500D01*
G75*
G02*
X166427000Y-91490500I-75000J0D01*
G01*
X165102000Y-91490500D01*
G75*
G02*
X165027000Y-91415500I0J75000D01*
G01*
G37*
G36*
G01*
X165027000Y-90915500D02*
X165027000Y-90765500D01*
G75*
G02*
X165102000Y-90690500I75000J0D01*
G01*
X166427000Y-90690500D01*
G75*
G02*
X166502000Y-90765500I0J-75000D01*
G01*
X166502000Y-90915500D01*
G75*
G02*
X166427000Y-90990500I-75000J0D01*
G01*
X165102000Y-90990500D01*
G75*
G02*
X165027000Y-90915500I0J75000D01*
G01*
G37*
G36*
G01*
X165027000Y-90415500D02*
X165027000Y-90265500D01*
G75*
G02*
X165102000Y-90190500I75000J0D01*
G01*
X166427000Y-90190500D01*
G75*
G02*
X166502000Y-90265500I0J-75000D01*
G01*
X166502000Y-90415500D01*
G75*
G02*
X166427000Y-90490500I-75000J0D01*
G01*
X165102000Y-90490500D01*
G75*
G02*
X165027000Y-90415500I0J75000D01*
G01*
G37*
G36*
G01*
X165027000Y-89915500D02*
X165027000Y-89765500D01*
G75*
G02*
X165102000Y-89690500I75000J0D01*
G01*
X166427000Y-89690500D01*
G75*
G02*
X166502000Y-89765500I0J-75000D01*
G01*
X166502000Y-89915500D01*
G75*
G02*
X166427000Y-89990500I-75000J0D01*
G01*
X165102000Y-89990500D01*
G75*
G02*
X165027000Y-89915500I0J75000D01*
G01*
G37*
G36*
G01*
X165027000Y-89415500D02*
X165027000Y-89265500D01*
G75*
G02*
X165102000Y-89190500I75000J0D01*
G01*
X166427000Y-89190500D01*
G75*
G02*
X166502000Y-89265500I0J-75000D01*
G01*
X166502000Y-89415500D01*
G75*
G02*
X166427000Y-89490500I-75000J0D01*
G01*
X165102000Y-89490500D01*
G75*
G02*
X165027000Y-89415500I0J75000D01*
G01*
G37*
G36*
G01*
X165027000Y-88915500D02*
X165027000Y-88765500D01*
G75*
G02*
X165102000Y-88690500I75000J0D01*
G01*
X166427000Y-88690500D01*
G75*
G02*
X166502000Y-88765500I0J-75000D01*
G01*
X166502000Y-88915500D01*
G75*
G02*
X166427000Y-88990500I-75000J0D01*
G01*
X165102000Y-88990500D01*
G75*
G02*
X165027000Y-88915500I0J75000D01*
G01*
G37*
G36*
G01*
X165027000Y-88415500D02*
X165027000Y-88265500D01*
G75*
G02*
X165102000Y-88190500I75000J0D01*
G01*
X166427000Y-88190500D01*
G75*
G02*
X166502000Y-88265500I0J-75000D01*
G01*
X166502000Y-88415500D01*
G75*
G02*
X166427000Y-88490500I-75000J0D01*
G01*
X165102000Y-88490500D01*
G75*
G02*
X165027000Y-88415500I0J75000D01*
G01*
G37*
G36*
G01*
X165027000Y-87915500D02*
X165027000Y-87765500D01*
G75*
G02*
X165102000Y-87690500I75000J0D01*
G01*
X166427000Y-87690500D01*
G75*
G02*
X166502000Y-87765500I0J-75000D01*
G01*
X166502000Y-87915500D01*
G75*
G02*
X166427000Y-87990500I-75000J0D01*
G01*
X165102000Y-87990500D01*
G75*
G02*
X165027000Y-87915500I0J75000D01*
G01*
G37*
G36*
G01*
X165027000Y-87415500D02*
X165027000Y-87265500D01*
G75*
G02*
X165102000Y-87190500I75000J0D01*
G01*
X166427000Y-87190500D01*
G75*
G02*
X166502000Y-87265500I0J-75000D01*
G01*
X166502000Y-87415500D01*
G75*
G02*
X166427000Y-87490500I-75000J0D01*
G01*
X165102000Y-87490500D01*
G75*
G02*
X165027000Y-87415500I0J75000D01*
G01*
G37*
G36*
G01*
X165027000Y-86915500D02*
X165027000Y-86765500D01*
G75*
G02*
X165102000Y-86690500I75000J0D01*
G01*
X166427000Y-86690500D01*
G75*
G02*
X166502000Y-86765500I0J-75000D01*
G01*
X166502000Y-86915500D01*
G75*
G02*
X166427000Y-86990500I-75000J0D01*
G01*
X165102000Y-86990500D01*
G75*
G02*
X165027000Y-86915500I0J75000D01*
G01*
G37*
G36*
G01*
X165027000Y-86415500D02*
X165027000Y-86265500D01*
G75*
G02*
X165102000Y-86190500I75000J0D01*
G01*
X166427000Y-86190500D01*
G75*
G02*
X166502000Y-86265500I0J-75000D01*
G01*
X166502000Y-86415500D01*
G75*
G02*
X166427000Y-86490500I-75000J0D01*
G01*
X165102000Y-86490500D01*
G75*
G02*
X165027000Y-86415500I0J75000D01*
G01*
G37*
G36*
G01*
X165027000Y-85915500D02*
X165027000Y-85765500D01*
G75*
G02*
X165102000Y-85690500I75000J0D01*
G01*
X166427000Y-85690500D01*
G75*
G02*
X166502000Y-85765500I0J-75000D01*
G01*
X166502000Y-85915500D01*
G75*
G02*
X166427000Y-85990500I-75000J0D01*
G01*
X165102000Y-85990500D01*
G75*
G02*
X165027000Y-85915500I0J75000D01*
G01*
G37*
G36*
G01*
X165027000Y-85415500D02*
X165027000Y-85265500D01*
G75*
G02*
X165102000Y-85190500I75000J0D01*
G01*
X166427000Y-85190500D01*
G75*
G02*
X166502000Y-85265500I0J-75000D01*
G01*
X166502000Y-85415500D01*
G75*
G02*
X166427000Y-85490500I-75000J0D01*
G01*
X165102000Y-85490500D01*
G75*
G02*
X165027000Y-85415500I0J75000D01*
G01*
G37*
G36*
G01*
X165027000Y-84915500D02*
X165027000Y-84765500D01*
G75*
G02*
X165102000Y-84690500I75000J0D01*
G01*
X166427000Y-84690500D01*
G75*
G02*
X166502000Y-84765500I0J-75000D01*
G01*
X166502000Y-84915500D01*
G75*
G02*
X166427000Y-84990500I-75000J0D01*
G01*
X165102000Y-84990500D01*
G75*
G02*
X165027000Y-84915500I0J75000D01*
G01*
G37*
G36*
G01*
X165027000Y-84415500D02*
X165027000Y-84265500D01*
G75*
G02*
X165102000Y-84190500I75000J0D01*
G01*
X166427000Y-84190500D01*
G75*
G02*
X166502000Y-84265500I0J-75000D01*
G01*
X166502000Y-84415500D01*
G75*
G02*
X166427000Y-84490500I-75000J0D01*
G01*
X165102000Y-84490500D01*
G75*
G02*
X165027000Y-84415500I0J75000D01*
G01*
G37*
G36*
G01*
X165027000Y-83915500D02*
X165027000Y-83765500D01*
G75*
G02*
X165102000Y-83690500I75000J0D01*
G01*
X166427000Y-83690500D01*
G75*
G02*
X166502000Y-83765500I0J-75000D01*
G01*
X166502000Y-83915500D01*
G75*
G02*
X166427000Y-83990500I-75000J0D01*
G01*
X165102000Y-83990500D01*
G75*
G02*
X165027000Y-83915500I0J75000D01*
G01*
G37*
G36*
G01*
X165027000Y-83415500D02*
X165027000Y-83265500D01*
G75*
G02*
X165102000Y-83190500I75000J0D01*
G01*
X166427000Y-83190500D01*
G75*
G02*
X166502000Y-83265500I0J-75000D01*
G01*
X166502000Y-83415500D01*
G75*
G02*
X166427000Y-83490500I-75000J0D01*
G01*
X165102000Y-83490500D01*
G75*
G02*
X165027000Y-83415500I0J75000D01*
G01*
G37*
G36*
G01*
X157602000Y-83415500D02*
X157602000Y-83265500D01*
G75*
G02*
X157677000Y-83190500I75000J0D01*
G01*
X159002000Y-83190500D01*
G75*
G02*
X159077000Y-83265500I0J-75000D01*
G01*
X159077000Y-83415500D01*
G75*
G02*
X159002000Y-83490500I-75000J0D01*
G01*
X157677000Y-83490500D01*
G75*
G02*
X157602000Y-83415500I0J75000D01*
G01*
G37*
G36*
G01*
X157602000Y-83915500D02*
X157602000Y-83765500D01*
G75*
G02*
X157677000Y-83690500I75000J0D01*
G01*
X159002000Y-83690500D01*
G75*
G02*
X159077000Y-83765500I0J-75000D01*
G01*
X159077000Y-83915500D01*
G75*
G02*
X159002000Y-83990500I-75000J0D01*
G01*
X157677000Y-83990500D01*
G75*
G02*
X157602000Y-83915500I0J75000D01*
G01*
G37*
G36*
G01*
X157602000Y-84415500D02*
X157602000Y-84265500D01*
G75*
G02*
X157677000Y-84190500I75000J0D01*
G01*
X159002000Y-84190500D01*
G75*
G02*
X159077000Y-84265500I0J-75000D01*
G01*
X159077000Y-84415500D01*
G75*
G02*
X159002000Y-84490500I-75000J0D01*
G01*
X157677000Y-84490500D01*
G75*
G02*
X157602000Y-84415500I0J75000D01*
G01*
G37*
G36*
G01*
X157602000Y-84915500D02*
X157602000Y-84765500D01*
G75*
G02*
X157677000Y-84690500I75000J0D01*
G01*
X159002000Y-84690500D01*
G75*
G02*
X159077000Y-84765500I0J-75000D01*
G01*
X159077000Y-84915500D01*
G75*
G02*
X159002000Y-84990500I-75000J0D01*
G01*
X157677000Y-84990500D01*
G75*
G02*
X157602000Y-84915500I0J75000D01*
G01*
G37*
G36*
G01*
X157602000Y-85415500D02*
X157602000Y-85265500D01*
G75*
G02*
X157677000Y-85190500I75000J0D01*
G01*
X159002000Y-85190500D01*
G75*
G02*
X159077000Y-85265500I0J-75000D01*
G01*
X159077000Y-85415500D01*
G75*
G02*
X159002000Y-85490500I-75000J0D01*
G01*
X157677000Y-85490500D01*
G75*
G02*
X157602000Y-85415500I0J75000D01*
G01*
G37*
G36*
G01*
X157602000Y-85915500D02*
X157602000Y-85765500D01*
G75*
G02*
X157677000Y-85690500I75000J0D01*
G01*
X159002000Y-85690500D01*
G75*
G02*
X159077000Y-85765500I0J-75000D01*
G01*
X159077000Y-85915500D01*
G75*
G02*
X159002000Y-85990500I-75000J0D01*
G01*
X157677000Y-85990500D01*
G75*
G02*
X157602000Y-85915500I0J75000D01*
G01*
G37*
G36*
G01*
X157602000Y-86415500D02*
X157602000Y-86265500D01*
G75*
G02*
X157677000Y-86190500I75000J0D01*
G01*
X159002000Y-86190500D01*
G75*
G02*
X159077000Y-86265500I0J-75000D01*
G01*
X159077000Y-86415500D01*
G75*
G02*
X159002000Y-86490500I-75000J0D01*
G01*
X157677000Y-86490500D01*
G75*
G02*
X157602000Y-86415500I0J75000D01*
G01*
G37*
G36*
G01*
X157602000Y-86915500D02*
X157602000Y-86765500D01*
G75*
G02*
X157677000Y-86690500I75000J0D01*
G01*
X159002000Y-86690500D01*
G75*
G02*
X159077000Y-86765500I0J-75000D01*
G01*
X159077000Y-86915500D01*
G75*
G02*
X159002000Y-86990500I-75000J0D01*
G01*
X157677000Y-86990500D01*
G75*
G02*
X157602000Y-86915500I0J75000D01*
G01*
G37*
G36*
G01*
X157602000Y-87415500D02*
X157602000Y-87265500D01*
G75*
G02*
X157677000Y-87190500I75000J0D01*
G01*
X159002000Y-87190500D01*
G75*
G02*
X159077000Y-87265500I0J-75000D01*
G01*
X159077000Y-87415500D01*
G75*
G02*
X159002000Y-87490500I-75000J0D01*
G01*
X157677000Y-87490500D01*
G75*
G02*
X157602000Y-87415500I0J75000D01*
G01*
G37*
G36*
G01*
X157602000Y-87915500D02*
X157602000Y-87765500D01*
G75*
G02*
X157677000Y-87690500I75000J0D01*
G01*
X159002000Y-87690500D01*
G75*
G02*
X159077000Y-87765500I0J-75000D01*
G01*
X159077000Y-87915500D01*
G75*
G02*
X159002000Y-87990500I-75000J0D01*
G01*
X157677000Y-87990500D01*
G75*
G02*
X157602000Y-87915500I0J75000D01*
G01*
G37*
G36*
G01*
X157602000Y-88415500D02*
X157602000Y-88265500D01*
G75*
G02*
X157677000Y-88190500I75000J0D01*
G01*
X159002000Y-88190500D01*
G75*
G02*
X159077000Y-88265500I0J-75000D01*
G01*
X159077000Y-88415500D01*
G75*
G02*
X159002000Y-88490500I-75000J0D01*
G01*
X157677000Y-88490500D01*
G75*
G02*
X157602000Y-88415500I0J75000D01*
G01*
G37*
G36*
G01*
X157602000Y-88915500D02*
X157602000Y-88765500D01*
G75*
G02*
X157677000Y-88690500I75000J0D01*
G01*
X159002000Y-88690500D01*
G75*
G02*
X159077000Y-88765500I0J-75000D01*
G01*
X159077000Y-88915500D01*
G75*
G02*
X159002000Y-88990500I-75000J0D01*
G01*
X157677000Y-88990500D01*
G75*
G02*
X157602000Y-88915500I0J75000D01*
G01*
G37*
G36*
G01*
X157602000Y-89415500D02*
X157602000Y-89265500D01*
G75*
G02*
X157677000Y-89190500I75000J0D01*
G01*
X159002000Y-89190500D01*
G75*
G02*
X159077000Y-89265500I0J-75000D01*
G01*
X159077000Y-89415500D01*
G75*
G02*
X159002000Y-89490500I-75000J0D01*
G01*
X157677000Y-89490500D01*
G75*
G02*
X157602000Y-89415500I0J75000D01*
G01*
G37*
G36*
G01*
X157602000Y-89915500D02*
X157602000Y-89765500D01*
G75*
G02*
X157677000Y-89690500I75000J0D01*
G01*
X159002000Y-89690500D01*
G75*
G02*
X159077000Y-89765500I0J-75000D01*
G01*
X159077000Y-89915500D01*
G75*
G02*
X159002000Y-89990500I-75000J0D01*
G01*
X157677000Y-89990500D01*
G75*
G02*
X157602000Y-89915500I0J75000D01*
G01*
G37*
G36*
G01*
X157602000Y-90415500D02*
X157602000Y-90265500D01*
G75*
G02*
X157677000Y-90190500I75000J0D01*
G01*
X159002000Y-90190500D01*
G75*
G02*
X159077000Y-90265500I0J-75000D01*
G01*
X159077000Y-90415500D01*
G75*
G02*
X159002000Y-90490500I-75000J0D01*
G01*
X157677000Y-90490500D01*
G75*
G02*
X157602000Y-90415500I0J75000D01*
G01*
G37*
G36*
G01*
X157602000Y-90915500D02*
X157602000Y-90765500D01*
G75*
G02*
X157677000Y-90690500I75000J0D01*
G01*
X159002000Y-90690500D01*
G75*
G02*
X159077000Y-90765500I0J-75000D01*
G01*
X159077000Y-90915500D01*
G75*
G02*
X159002000Y-90990500I-75000J0D01*
G01*
X157677000Y-90990500D01*
G75*
G02*
X157602000Y-90915500I0J75000D01*
G01*
G37*
G36*
G01*
X157602000Y-91415500D02*
X157602000Y-91265500D01*
G75*
G02*
X157677000Y-91190500I75000J0D01*
G01*
X159002000Y-91190500D01*
G75*
G02*
X159077000Y-91265500I0J-75000D01*
G01*
X159077000Y-91415500D01*
G75*
G02*
X159002000Y-91490500I-75000J0D01*
G01*
X157677000Y-91490500D01*
G75*
G02*
X157602000Y-91415500I0J75000D01*
G01*
G37*
G36*
G01*
X157602000Y-91915500D02*
X157602000Y-91765500D01*
G75*
G02*
X157677000Y-91690500I75000J0D01*
G01*
X159002000Y-91690500D01*
G75*
G02*
X159077000Y-91765500I0J-75000D01*
G01*
X159077000Y-91915500D01*
G75*
G02*
X159002000Y-91990500I-75000J0D01*
G01*
X157677000Y-91990500D01*
G75*
G02*
X157602000Y-91915500I0J75000D01*
G01*
G37*
G36*
G01*
X157602000Y-92415500D02*
X157602000Y-92265500D01*
G75*
G02*
X157677000Y-92190500I75000J0D01*
G01*
X159002000Y-92190500D01*
G75*
G02*
X159077000Y-92265500I0J-75000D01*
G01*
X159077000Y-92415500D01*
G75*
G02*
X159002000Y-92490500I-75000J0D01*
G01*
X157677000Y-92490500D01*
G75*
G02*
X157602000Y-92415500I0J75000D01*
G01*
G37*
G36*
G01*
X157602000Y-92915500D02*
X157602000Y-92765500D01*
G75*
G02*
X157677000Y-92690500I75000J0D01*
G01*
X159002000Y-92690500D01*
G75*
G02*
X159077000Y-92765500I0J-75000D01*
G01*
X159077000Y-92915500D01*
G75*
G02*
X159002000Y-92990500I-75000J0D01*
G01*
X157677000Y-92990500D01*
G75*
G02*
X157602000Y-92915500I0J75000D01*
G01*
G37*
G36*
G01*
X157602000Y-93415500D02*
X157602000Y-93265500D01*
G75*
G02*
X157677000Y-93190500I75000J0D01*
G01*
X159002000Y-93190500D01*
G75*
G02*
X159077000Y-93265500I0J-75000D01*
G01*
X159077000Y-93415500D01*
G75*
G02*
X159002000Y-93490500I-75000J0D01*
G01*
X157677000Y-93490500D01*
G75*
G02*
X157602000Y-93415500I0J75000D01*
G01*
G37*
G36*
G01*
X157602000Y-93915500D02*
X157602000Y-93765500D01*
G75*
G02*
X157677000Y-93690500I75000J0D01*
G01*
X159002000Y-93690500D01*
G75*
G02*
X159077000Y-93765500I0J-75000D01*
G01*
X159077000Y-93915500D01*
G75*
G02*
X159002000Y-93990500I-75000J0D01*
G01*
X157677000Y-93990500D01*
G75*
G02*
X157602000Y-93915500I0J75000D01*
G01*
G37*
G36*
G01*
X157602000Y-94415500D02*
X157602000Y-94265500D01*
G75*
G02*
X157677000Y-94190500I75000J0D01*
G01*
X159002000Y-94190500D01*
G75*
G02*
X159077000Y-94265500I0J-75000D01*
G01*
X159077000Y-94415500D01*
G75*
G02*
X159002000Y-94490500I-75000J0D01*
G01*
X157677000Y-94490500D01*
G75*
G02*
X157602000Y-94415500I0J75000D01*
G01*
G37*
G36*
G01*
X157602000Y-94915500D02*
X157602000Y-94765500D01*
G75*
G02*
X157677000Y-94690500I75000J0D01*
G01*
X159002000Y-94690500D01*
G75*
G02*
X159077000Y-94765500I0J-75000D01*
G01*
X159077000Y-94915500D01*
G75*
G02*
X159002000Y-94990500I-75000J0D01*
G01*
X157677000Y-94990500D01*
G75*
G02*
X157602000Y-94915500I0J75000D01*
G01*
G37*
G36*
G01*
X144100500Y-95901500D02*
X144100500Y-96376500D01*
G75*
G02*
X143863000Y-96614000I-237500J0D01*
G01*
X143263000Y-96614000D01*
G75*
G02*
X143025500Y-96376500I0J237500D01*
G01*
X143025500Y-95901500D01*
G75*
G02*
X143263000Y-95664000I237500J0D01*
G01*
X143863000Y-95664000D01*
G75*
G02*
X144100500Y-95901500I0J-237500D01*
G01*
G37*
G36*
G01*
X145825500Y-95901500D02*
X145825500Y-96376500D01*
G75*
G02*
X145588000Y-96614000I-237500J0D01*
G01*
X144988000Y-96614000D01*
G75*
G02*
X144750500Y-96376500I0J237500D01*
G01*
X144750500Y-95901500D01*
G75*
G02*
X144988000Y-95664000I237500J0D01*
G01*
X145588000Y-95664000D01*
G75*
G02*
X145825500Y-95901500I0J-237500D01*
G01*
G37*
G36*
G01*
X128695500Y-91296500D02*
X128695500Y-90821500D01*
G75*
G02*
X128933000Y-90584000I237500J0D01*
G01*
X129533000Y-90584000D01*
G75*
G02*
X129770500Y-90821500I0J-237500D01*
G01*
X129770500Y-91296500D01*
G75*
G02*
X129533000Y-91534000I-237500J0D01*
G01*
X128933000Y-91534000D01*
G75*
G02*
X128695500Y-91296500I0J237500D01*
G01*
G37*
G36*
G01*
X126970500Y-91296500D02*
X126970500Y-90821500D01*
G75*
G02*
X127208000Y-90584000I237500J0D01*
G01*
X127808000Y-90584000D01*
G75*
G02*
X128045500Y-90821500I0J-237500D01*
G01*
X128045500Y-91296500D01*
G75*
G02*
X127808000Y-91534000I-237500J0D01*
G01*
X127208000Y-91534000D01*
G75*
G02*
X126970500Y-91296500I0J237500D01*
G01*
G37*
G36*
G01*
X126889500Y-98191500D02*
X127364500Y-98191500D01*
G75*
G02*
X127602000Y-98429000I0J-237500D01*
G01*
X127602000Y-98929000D01*
G75*
G02*
X127364500Y-99166500I-237500J0D01*
G01*
X126889500Y-99166500D01*
G75*
G02*
X126652000Y-98929000I0J237500D01*
G01*
X126652000Y-98429000D01*
G75*
G02*
X126889500Y-98191500I237500J0D01*
G01*
G37*
G36*
G01*
X126889500Y-96366500D02*
X127364500Y-96366500D01*
G75*
G02*
X127602000Y-96604000I0J-237500D01*
G01*
X127602000Y-97104000D01*
G75*
G02*
X127364500Y-97341500I-237500J0D01*
G01*
X126889500Y-97341500D01*
G75*
G02*
X126652000Y-97104000I0J237500D01*
G01*
X126652000Y-96604000D01*
G75*
G02*
X126889500Y-96366500I237500J0D01*
G01*
G37*
G36*
G01*
X127364500Y-101683000D02*
X126889500Y-101683000D01*
G75*
G02*
X126652000Y-101445500I0J237500D01*
G01*
X126652000Y-100945500D01*
G75*
G02*
X126889500Y-100708000I237500J0D01*
G01*
X127364500Y-100708000D01*
G75*
G02*
X127602000Y-100945500I0J-237500D01*
G01*
X127602000Y-101445500D01*
G75*
G02*
X127364500Y-101683000I-237500J0D01*
G01*
G37*
G36*
G01*
X127364500Y-103508000D02*
X126889500Y-103508000D01*
G75*
G02*
X126652000Y-103270500I0J237500D01*
G01*
X126652000Y-102770500D01*
G75*
G02*
X126889500Y-102533000I237500J0D01*
G01*
X127364500Y-102533000D01*
G75*
G02*
X127602000Y-102770500I0J-237500D01*
G01*
X127602000Y-103270500D01*
G75*
G02*
X127364500Y-103508000I-237500J0D01*
G01*
G37*
D12*
X147828000Y-58039000D03*
X124968000Y-136779000D03*
X147828000Y-60579000D03*
X124968000Y-134239000D03*
X147828000Y-63119000D03*
X124968000Y-131699000D03*
X147828000Y-65659000D03*
X124968000Y-129159000D03*
X147828000Y-68199000D03*
X124968000Y-126619000D03*
X147828000Y-70739000D03*
X124968000Y-124079000D03*
X147828000Y-73279000D03*
X124968000Y-121539000D03*
X147828000Y-75819000D03*
X124968000Y-118999000D03*
X147828000Y-78359000D03*
X124968000Y-116459000D03*
X147828000Y-80899000D03*
X124968000Y-113919000D03*
X147828000Y-83439000D03*
X124968000Y-111379000D03*
X147828000Y-85979000D03*
X124968000Y-108839000D03*
X147828000Y-88519000D03*
X124968000Y-106299000D03*
X147828000Y-91059000D03*
X124968000Y-103759000D03*
X147828000Y-93599000D03*
X124968000Y-101219000D03*
X147828000Y-96139000D03*
X124968000Y-98679000D03*
X147828000Y-98679000D03*
X124968000Y-96139000D03*
X147828000Y-101219000D03*
X124968000Y-93599000D03*
X147828000Y-103759000D03*
X124968000Y-91059000D03*
X147828000Y-106299000D03*
X124968000Y-88519000D03*
X147828000Y-108839000D03*
X124968000Y-85979000D03*
X147828000Y-111379000D03*
X124968000Y-83439000D03*
X147828000Y-113919000D03*
X124968000Y-80899000D03*
X147828000Y-116459000D03*
X124968000Y-78359000D03*
X147828000Y-118999000D03*
X124968000Y-75819000D03*
X147828000Y-121539000D03*
X124968000Y-73279000D03*
X147828000Y-124079000D03*
X124968000Y-70739000D03*
X147828000Y-126619000D03*
X124968000Y-68199000D03*
X147828000Y-129159000D03*
X124968000Y-65659000D03*
X147828000Y-131699000D03*
X124968000Y-63119000D03*
X147828000Y-134239000D03*
X124968000Y-60579000D03*
X147828000Y-136779000D03*
D13*
X124968000Y-58039000D03*
M02*
